<svg xmlns="http://www.w3.org/2000/svg" xmlns:xlink="http://www.w3.org/1999/xlink" width="1084" height="503" viewBox="0 0 1084 503">
  <defs>
    <clipPath id="clip-path">
      <rect id="Rechteck_280" data-name="Rechteck 280" width="167.581" height="44" fill="none"/>
    </clipPath>
  </defs>
  <g id="infografik-suchbegriff-workation" transform="translate(-141 -3667.826)">
    <text id="Anzahl_Suchanfragen_über_Google" data-name="Anzahl Suchanfragen über Google" transform="translate(141 3667.826)" fill="#737373" font-size="12" font-family="TUITypeLightLATN-Regular, TUITypeLight LATN"><tspan x="0" y="11">Anzahl Suchanfragen über Google</tspan></text>
    <line id="Linie_5" data-name="Linie 5" x2="1030.226" transform="translate(194.774 4071.738)" fill="none" stroke="#dcdcdc" stroke-width="1"/>
    <line id="Linie_6" data-name="Linie 6" x2="1030.226" transform="translate(194.774 3999.24)" fill="none" stroke="#dcdcdc" stroke-width="1"/>
    <line id="Linie_7" data-name="Linie 7" x2="1030.226" transform="translate(194.774 3926.744)" fill="none" stroke="#dcdcdc" stroke-width="1"/>
    <line id="Linie_16" data-name="Linie 16" x2="1030.226" transform="translate(194.774 3781.744)" fill="none" stroke="#dcdcdc" stroke-width="1"/>
    <line id="Linie_8" data-name="Linie 8" x2="1030.226" transform="translate(194.637 3854.244)" fill="none" stroke="#dcdcdc" stroke-width="1"/>
    <line id="Linie_17" data-name="Linie 17" x2="1030.363" transform="translate(194.5 3709.244)" fill="none" stroke="#dcdcdc" stroke-width="1"/>
    <line id="Linie_4" data-name="Linie 4" y1="0.09" x2="1030.5" transform="translate(194.5 4144.236)" fill="none" stroke="#b9b9b9" stroke-width="1"/>
    <line id="Linie_27" data-name="Linie 27" y1="434.91" transform="translate(194.637 3709.326)" fill="none" stroke="#b9b9b9" stroke-width="1"/>
    <text id="Jan_20" data-name="Jan 20" transform="translate(239 4167.826)" fill="#b9b9b9" font-size="16" font-family="TUITypeLightLATN-Regular, TUITypeLight LATN"><tspan x="-20.976" y="0">Jan 20</tspan></text>
    <text id="Jul_20" data-name="Jul 20" transform="translate(360 4167.826)" fill="#b9b9b9" font-size="16" font-family="TUITypeLightLATN-Regular, TUITypeLight LATN"><tspan x="-19.088" y="0">Jul 20</tspan></text>
    <text id="Jan_21" data-name="Jan 21" transform="translate(480 4167.826)" fill="#b9b9b9" font-size="16" font-family="TUITypeLightLATN-Regular, TUITypeLight LATN"><tspan x="-20.936" y="0">Jan 21</tspan></text>
    <text id="Jul_21" data-name="Jul 21" transform="translate(600 4167.826)" fill="#b9b9b9" font-size="16" font-family="TUITypeLightLATN-Regular, TUITypeLight LATN"><tspan x="-19.048" y="0">Jul 21</tspan></text>
    <text id="Jan_22" data-name="Jan 22" transform="translate(720 4167.826)" fill="#b9b9b9" font-size="16" font-family="TUITypeLightLATN-Regular, TUITypeLight LATN"><tspan x="-20.832" y="0">Jan 22</tspan></text>
    <text id="Jul_22" data-name="Jul 22" transform="translate(840 4167.826)" fill="#b9b9b9" font-size="16" font-family="TUITypeLightLATN-Regular, TUITypeLight LATN"><tspan x="-18.944" y="0">Jul 22</tspan></text>
    <text id="Jan_23" data-name="Jan 23" transform="translate(960 4167.826)" fill="#b9b9b9" font-size="16" font-family="TUITypeLightLATN-Regular, TUITypeLight LATN"><tspan x="-20.84" y="0">Jan 23</tspan></text>
    <text id="Jul_23" data-name="Jul 23" transform="translate(1079 4167.826)" fill="#b9b9b9" font-size="16" font-family="TUITypeLightLATN-Regular, TUITypeLight LATN"><tspan x="-18.952" y="0">Jul 23</tspan></text>
    <text id="Jan_24" data-name="Jan 24" transform="translate(1199 4167.826)" fill="#b9b9b9" font-size="16" font-family="TUITypeLightLATN-Regular, TUITypeLight LATN"><tspan x="-20.784" y="0">Jan 24</tspan></text>
    <text id="_8.000" data-name="8.000" transform="translate(184 3859.826)" fill="#b9b9b9" font-size="16" font-family="TUITypeLightLATN-Regular, TUITypeLight LATN"><tspan x="-34.688" y="0">8.000</tspan></text>
    <text id="_12.000" data-name="12.000" transform="translate(184 3714.826)" fill="#b9b9b9" font-size="16" font-family="TUITypeLightLATN-Regular, TUITypeLight LATN"><tspan x="-42.656" y="0">12.000</tspan></text>
    <text id="_6.000" data-name="6.000" transform="translate(184 3932.826)" fill="#b9b9b9" font-size="16" font-family="TUITypeLightLATN-Regular, TUITypeLight LATN"><tspan x="-34.688" y="0">6.000</tspan></text>
    <text id="_10.000" data-name="10.000" transform="translate(184 3787.826)" fill="#b9b9b9" font-size="16" font-family="TUITypeLightLATN-Regular, TUITypeLight LATN"><tspan x="-42.944" y="0">10.000</tspan></text>
    <text id="_4.000" data-name="4.000" transform="translate(184 4004.826)" fill="#b9b9b9" font-size="16" font-family="TUITypeLightLATN-Regular, TUITypeLight LATN"><tspan x="-34.656" y="0">4.000</tspan></text>
    <text id="_2.000" data-name="2.000" transform="translate(184 4077.826)" fill="#b9b9b9" font-size="16" font-family="TUITypeLightLATN-Regular, TUITypeLight LATN"><tspan x="-34.752" y="0">2.000</tspan></text>
    <text id="_0" data-name="0" transform="translate(184 4149.826)" fill="#b9b9b9" font-size="16" font-family="TUITypeLightLATN-Regular, TUITypeLight LATN"><tspan x="-7.984" y="0">0</tspan></text>
    <path id="Pfad_1526" data-name="Pfad 1526" d="M245-16384.59v6.359" transform="translate(-6 20528.826)" fill="none" stroke="#b9b9b9" stroke-width="1"/>
    <path id="Pfad_7979" data-name="Pfad 7979" d="M245-16384.59v6.359" transform="translate(115 20528.826)" fill="none" stroke="#b9b9b9" stroke-width="1"/>
    <path id="Pfad_7981" data-name="Pfad 7981" d="M245-16384.59v6.359" transform="translate(355 20528.826)" fill="none" stroke="#b9b9b9" stroke-width="1"/>
    <path id="Pfad_7983" data-name="Pfad 7983" d="M245-16384.59v6.359" transform="translate(475 20528.826)" fill="none" stroke="#b9b9b9" stroke-width="1"/>
    <path id="Pfad_1576" data-name="Pfad 1576" d="M245-16384.59v23.41" transform="translate(-6 20505.006)" fill="none" stroke="#c2e6fa" stroke-width="1" stroke-dasharray="4 2"/>
    <path id="Pfad_7980" data-name="Pfad 7980" d="M245-16384.592v23.409" transform="translate(115 20505.008)" fill="none" stroke="#c2e6fa" stroke-width="1" stroke-dasharray="4 2"/>
    <path id="Pfad_7982" data-name="Pfad 7982" d="M245-16384.59v50.311" transform="translate(355 20478.105)" fill="none" stroke="#c2e6fa" stroke-width="1" stroke-dasharray="4 2"/>
    <path id="Pfad_7984" data-name="Pfad 7984" d="M245-16384.59v89.344" transform="translate(475 20439.072)" fill="none" stroke="#c2e6fa" stroke-width="1" stroke-dasharray="4 2"/>
    <path id="Pfad_1577" data-name="Pfad 1577" d="M245-16384.592v32.24" transform="translate(235 20496.178)" fill="none" stroke="#c2e6fa" stroke-width="1" stroke-dasharray="4 2"/>
    <path id="Pfad_1578" data-name="Pfad 1578" d="M245-16384.594v133.516" transform="translate(595 20394.9)" fill="none" stroke="#c2e6fa" stroke-width="1" stroke-dasharray="4 2"/>
    <path id="Pfad_1579" data-name="Pfad 1579" d="M245-16384.592v200.875" transform="translate(715 20327.543)" fill="none" stroke="#c2e6fa" stroke-width="1" stroke-dasharray="4 2"/>
    <path id="Pfad_7986" data-name="Pfad 7986" d="M245-16384.592v296.146" transform="translate(834 20232.271)" fill="none" stroke="#c2e6fa" stroke-width="1" stroke-dasharray="4 2"/>
    <path id="Pfad_1580" data-name="Pfad 1580" d="M245-16384.594v359.063" transform="translate(954 20169.354)" fill="none" stroke="#c2e6fa" stroke-width="1" stroke-dasharray="4 2"/>
    <path id="Pfad_1527" data-name="Pfad 1527" d="M245-16384.59v6.359" transform="translate(235 20528.826)" fill="none" stroke="#b9b9b9" stroke-width="1"/>
    <path id="Pfad_1528" data-name="Pfad 1528" d="M245-16384.59v6.359" transform="translate(595 20528.916)" fill="none" stroke="#b9b9b9" stroke-width="1"/>
    <path id="Pfad_1529" data-name="Pfad 1529" d="M245-16384.59v6.359" transform="translate(715 20528.826)" fill="none" stroke="#b9b9b9" stroke-width="1"/>
    <path id="Pfad_7985" data-name="Pfad 7985" d="M245-16384.59v6.359" transform="translate(834 20528.826)" fill="none" stroke="#b9b9b9" stroke-width="1"/>
    <path id="Pfad_1530" data-name="Pfad 1530" d="M245-16384.59v6.359" transform="translate(954 20528.826)" fill="none" stroke="#b9b9b9" stroke-width="1"/>
    <path id="Pfad_1589" data-name="Pfad 1589" d="M1238.943-16630.3l-118.9,61.895-118.4,97.84s-118.586,64.684-120.464,65.164-120.471,44.58-120.471,44.58l-119.5,39.461-120.247,18.652-120.7,8.064H237.793" transform="translate(-40.718 20415.064)" fill="none" stroke="#70cbf4" stroke-linecap="round" stroke-linejoin="round" stroke-width="5"/>
    <circle id="Ellipse_35" data-name="Ellipse 35" cx="99" cy="99" r="99" transform="translate(1016.725 3904.268)" fill="#b5ce52"/>
    <g id="Gruppe_720" data-name="Gruppe 720" transform="translate(475.725 -1784.732)">
      <text id="_2.438_" data-name="+ 2.438 %" transform="translate(540 5733)" fill="#fff" font-size="40" font-family="TUITypeLATN-Bold, TUIType LATN" font-weight="700"><tspan x="-82.744" y="38">+ 2.438 %</tspan></text>
      <text id="Suchanfragen_von_Jan._2020_bis_Jan._2024" data-name="Suchanfragen von  Jan. 2020 bis
Jan. 2024" transform="translate(640 5804)" fill="#fff" font-size="18" font-family="TUITypeLightLATN-Regular, TUITypeLight LATN"><tspan x="-64.539" y="0">Suchanfragen von </tspan><tspan x="-48.501" y="24" xml:space="preserve"> Jan. 2020 bis</tspan><tspan x="-33.948" y="48">Jan. 2024</tspan></text>
    </g>
    <g id="Gruppe_1934" data-name="Gruppe 1934" transform="translate(-30.89 1063.598)">
      <g id="Gruppe_722" data-name="Gruppe 722" transform="translate(630.1 2623.457)" clip-path="url(#clip-path)">
        <path id="Pfad_1532" data-name="Pfad 1532" d="M148.962,44H18.619C8.337,44,0,34.151,0,22S8.337,0,18.619,0H148.962c10.283,0,18.619,9.849,18.619,22s-8.336,22-18.619,22" transform="translate(0 0)" fill="#092a5e"/>
      </g>
      <g id="Gruppe_1933" data-name="Gruppe 1933">
        <path id="Pfad_1533" data-name="Pfad 1533" d="M194.452,30.444a7.461,7.461,0,0,0,4.585-1.575l4.943,4.943a.929.929,0,0,0,1.314-1.314l-4.943-4.943a7.473,7.473,0,1,0-5.9,2.889M190.481,19a5.6,5.6,0,1,1-.029.029l.029-.029" transform="translate(572.126 2620.635)" fill="#fff"/>
        <text id="_Workation_" data-name="„Workation“" transform="translate(649.1 2651.457)" fill="#fff" font-size="22" font-family="TUITypeLightLATN-Regular, TUITypeLight LATN"><tspan x="0" y="0">„Workation“</tspan></text>
      </g>
    </g>
  </g>
</svg>
