<svg aria-hidden="true" style="position: absolute; width: 0; height: 0; overflow: hidden;" version="1.1" xmlns="http://www.w3.org/2000/svg" xmlns:xlink="http://www.w3.org/1999/xlink">
<defs>
<symbol id="Litauen" viewBox="0 0 32 32">
<path fill="#006a44" style="fill: var(--color1, #006a44)" d="M32 16c0 8.837-7.163 16-16 16s-16-7.163-16-16c0-8.837 7.163-16 16-16s16 7.163 16 16z"></path>
<path fill="#fdb913" style="fill: var(--color2, #fdb913)" d="M16 0c-7.394 0-13.613 5.013-15.45 11.825h30.9c-1.837-6.813-8.056-11.825-15.45-11.825z"></path>
<path fill="#c1272d" style="fill: var(--color3, #c1272d)" d="M16 32c7.394 0 13.613-5.012 15.45-11.825h-30.9c1.837 6.813 8.056 11.825 15.45 11.825z"></path>
</symbol>
<symbol id="Argentinien" viewBox="0 0 32 32">
<path fill="#f0f0f0" style="fill: var(--color4, #f0f0f0)" d="M32 16c0 8.837-7.163 16-16 16s-16-7.163-16-16c0-8.837 7.163-16 16-16s16 7.163 16 16z"></path>
<path fill="#338af3" style="fill: var(--color5, #338af3)" d="M16 0c-6.343 0-11.824 3.692-14.412 9.043h28.825c-2.588-5.352-8.069-9.043-14.412-9.043z"></path>
<path fill="#338af3" style="fill: var(--color5, #338af3)" d="M16 32c6.343 0 11.824-3.692 14.412-9.044h-28.825c2.588 5.352 8.069 9.044 14.412 9.044z"></path>
<path fill="#ffda44" style="fill: var(--color6, #ffda44)" d="M20.782 16l-1.954 0.919 1.041 1.892-2.122-0.406-0.269 2.143-1.478-1.576-1.478 1.576-0.269-2.143-2.122 0.406 1.040-1.892-1.954-0.919 1.954-0.919-1.041-1.892 2.122 0.406 0.269-2.143 1.478 1.576 1.478-1.576 0.269 2.143 2.122-0.406-1.041 1.892z"></path>
</symbol>
<symbol id="Australien" viewBox="0 0 32 32">
<path fill="#0052b4" style="fill: var(--color7, #0052b4)" d="M32 16c0 8.837-7.163 16-16 16s-16-7.163-16-16c0 0.004 16-15.998 16-16 8.837 0 16 7.163 16 16z"></path>
<path fill="#f0f0f0" style="fill: var(--color4, #f0f0f0)" d="M16 0c-0.001 0-0.002 0-0.003 0l0.003-0z"></path>
<path fill="#f0f0f0" style="fill: var(--color4, #f0f0f0)" d="M15.957 16h0.043c0-0.014 0-0.028 0-0.043-0.014 0.014-0.028 0.029-0.043 0.043z"></path>
<path fill="#f0f0f0" style="fill: var(--color4, #f0f0f0)" d="M16 8.348c0-2.815 0-4.66 0-8.348h-0.003c-8.835 0.001-15.997 7.164-15.997 16h8.348v-4.701l4.701 4.701h2.909c0.014-0.014 0.029-0.028 0.043-0.043 0-1.078 0-2.040 0-2.909l-4.701-4.701h4.701z"></path>
<path fill="#d80027" style="fill: var(--color8, #d80027)" d="M8.095 2.087c-2.502 1.425-4.583 3.505-6.008 6.008v7.905h4.174v-9.739h9.739c0-1.316 0-2.571 0-4.174h-7.905z"></path>
<path fill="#d80027" style="fill: var(--color8, #d80027)" d="M16 14.032l-5.685-5.684h-1.968c0-0 0 0 0 0l7.652 7.652c0 0 0-1.357 0-1.968z"></path>
<path fill="#f0f0f0" style="fill: var(--color4, #f0f0f0)" d="M9.65 18.783l0.878 1.836 1.983-0.458-0.888 1.831 1.595 1.265-1.985 0.448 0.006 2.035-1.588-1.273-1.588 1.273 0.006-2.035-1.986-0.448 1.595-1.265-0.888-1.831 1.983 0.458z"></path>
<path fill="#f0f0f0" style="fill: var(--color4, #f0f0f0)" d="M23.955 22.261l0.439 0.918 0.991-0.229-0.444 0.916 0.797 0.632-0.993 0.224 0.003 1.018-0.794-0.637-0.794 0.637 0.003-1.018-0.993-0.224 0.797-0.632-0.444-0.916 0.991 0.229z"></path>
<path fill="#f0f0f0" style="fill: var(--color4, #f0f0f0)" d="M19.871 12.522l0.439 0.918 0.991-0.229-0.444 0.916 0.797 0.632-0.993 0.224 0.003 1.018-0.794-0.637-0.794 0.637 0.003-1.018-0.993-0.224 0.797-0.632-0.444-0.916 0.991 0.229z"></path>
<path fill="#f0f0f0" style="fill: var(--color4, #f0f0f0)" d="M23.955 6.957l0.439 0.918 0.991-0.229-0.444 0.916 0.797 0.632-0.993 0.224 0.003 1.018-0.794-0.637-0.794 0.637 0.003-1.018-0.993-0.224 0.797-0.632-0.444-0.916 0.991 0.229z"></path>
<path fill="#f0f0f0" style="fill: var(--color4, #f0f0f0)" d="M27.523 11.13l0.439 0.918 0.991-0.229-0.444 0.916 0.797 0.632-0.993 0.224 0.003 1.018-0.794-0.637-0.794 0.637 0.003-1.018-0.993-0.224 0.797-0.632-0.444-0.916 0.991 0.229z"></path>
<path fill="#f0f0f0" style="fill: var(--color4, #f0f0f0)" d="M24.972 16l0.345 1.063h1.118l-0.904 0.657 0.345 1.063-0.904-0.657-0.904 0.657 0.345-1.063-0.904-0.657h1.118z"></path>
</symbol>
<symbol id="Belgien" viewBox="0 0 32 32">
<path fill="#ffda44" style="fill: var(--color6, #ffda44)" d="M21.565 0.995c-1.733-0.643-3.608-0.995-5.565-0.995s-3.832 0.352-5.565 0.995l-1.391 15.005 1.391 15.005c1.733 0.643 3.608 0.995 5.565 0.995s3.832-0.352 5.565-0.995l1.391-15.005-1.391-15.005z"></path>
<path fill="#d80027" style="fill: var(--color8, #d80027)" d="M32 16c0-6.879-4.342-12.744-10.435-15.005v30.010c6.093-2.261 10.435-8.125 10.435-15.005z"></path>
<path fill="#000" style="fill: var(--color9, #000)" d="M0 16c0 6.88 4.342 12.744 10.435 15.005v-30.010c-6.093 2.261-10.435 8.125-10.435 15.005z"></path>
</symbol>
<symbol id="Brasilien" viewBox="0 0 32 32">
<path fill="#6da544" style="fill: var(--color10, #6da544)" d="M32 16c0 8.837-7.163 16-16 16s-16-7.163-16-16c0-8.837 7.163-16 16-16s16 7.163 16 16z"></path>
<path fill="#ffda44" style="fill: var(--color6, #ffda44)" d="M16 6.261l13.217 9.739-13.217 9.739-13.217-9.739z"></path>
<path fill="#f0f0f0" style="fill: var(--color4, #f0f0f0)" d="M21.565 16c0 3.074-2.492 5.565-5.565 5.565s-5.565-2.492-5.565-5.565c0-3.074 2.492-5.565 5.565-5.565s5.565 2.492 5.565 5.565z"></path>
<path fill="#0052b4" style="fill: var(--color7, #0052b4)" d="M13.217 15.652c-0.968 0-1.902 0.147-2.781 0.42 0.039 3.040 2.514 5.493 5.563 5.493 1.886 0 3.551-0.939 4.557-2.373-1.722-2.156-4.372-3.54-7.34-3.54z"></path>
<path fill="#0052b4" style="fill: var(--color7, #0052b4)" d="M21.462 17.066c0.067-0.345 0.103-0.701 0.103-1.066 0-3.074-2.492-5.565-5.565-5.565-2.293 0-4.262 1.388-5.114 3.369 0.753-0.156 1.533-0.238 2.332-0.238 3.232-0 6.156 1.344 8.245 3.501z"></path>
</symbol>
<symbol id="Bulgarien" viewBox="0 0 32 32">
<path fill="#496e2d" style="fill: var(--color11, #496e2d)" d="M32 16c0-1.957-0.352-3.832-0.995-5.565l-15.005-0.696-15.005 0.696c-0.643 1.733-0.995 3.608-0.995 5.565s0.352 3.832 0.995 5.565l15.005 0.696 15.005-0.696c0.643-1.733 0.995-3.608 0.995-5.565z"></path>
<path fill="#d80027" style="fill: var(--color8, #d80027)" d="M16 32c6.879 0 12.744-4.342 15.005-10.435h-30.010c2.261 6.093 8.125 10.435 15.005 10.435z"></path>
<path fill="#f0f0f0" style="fill: var(--color4, #f0f0f0)" d="M0.995 10.435h30.010c-2.261-6.093-8.125-10.435-15.005-10.435s-12.744 4.342-15.005 10.435z"></path>
</symbol>
<symbol id="Chile" viewBox="0 0 32 32">
<path fill="#f0f0f0" style="fill: var(--color4, #f0f0f0)" d="M32 16c0 8.837-7.163 16-16 16s-16-7.163-16-16c0-8.837 7.163-16 16-16s16 7.163 16 16z"></path>
<path fill="#d80027" style="fill: var(--color8, #d80027)" d="M32 16c0 8.837-7.163 16-16 16s-16-7.163-16-16 16 0 16 0 12.11 0 16 0z"></path>
<path fill="#0052b4" style="fill: var(--color7, #0052b4)" d="M0 16c0-8.836 7.163-16 16-16 0 6.085 0 16 0 16s-10.435 0-16 0z"></path>
<path fill="#f0f0f0" style="fill: var(--color4, #f0f0f0)" d="M9.524 5.565l1.036 3.189h3.353l-2.712 1.971 1.036 3.189-2.712-1.971-2.712 1.971 1.036-3.189-2.712-1.971h3.353z"></path>
</symbol>
<symbol id="China" viewBox="0 0 32 32">
<path fill="#d80027" style="fill: var(--color8, #d80027)" d="M32 16c0 8.837-7.163 16-16 16s-16-7.163-16-16c0-8.837 7.163-16 16-16s16 7.163 16 16z"></path>
<path fill="#ffda44" style="fill: var(--color6, #ffda44)" d="M8.756 9.738l1.381 4.25h4.469l-3.613 2.631 1.381 4.25-3.619-2.625-3.619 2.625 1.388-4.25-3.619-2.631h4.469z"></path>
<path fill="#ffda44" style="fill: var(--color6, #ffda44)" d="M18.969 24.781l-1.056-1.3-1.563 0.606 0.906-1.406-1.056-1.306 1.619 0.431 0.913-1.406 0.087 1.675 1.625 0.431-1.569 0.6z"></path>
<path fill="#ffda44" style="fill: var(--color6, #ffda44)" d="M21.069 20.969l0.5-1.6-1.369-0.969 1.675-0.025 0.494-1.6 0.544 1.587 1.675-0.019-1.344 1 0.538 1.587-1.369-0.969z"></path>
<path fill="#ffda44" style="fill: var(--color6, #ffda44)" d="M23.9 11.744l-0.738 1.506 1.2 1.169-1.656-0.238-0.738 1.5-0.288-1.65-1.663-0.238 1.488-0.781-0.288-1.656 1.2 1.169z"></path>
<path fill="#ffda44" style="fill: var(--color6, #ffda44)" d="M19.012 7.181l-0.125 1.669 1.556 0.631-1.631 0.4-0.119 1.675-0.881-1.425-1.631 0.4 1.081-1.281-0.887-1.419 1.556 0.631z"></path>
</symbol>
<symbol id="Costa Rica" viewBox="0 0 32 32">
<path fill="#f0f0f0" style="fill: var(--color4, #f0f0f0)" d="M32 16c0 8.837-7.163 16-16 16s-16-7.163-16-16c0-8.837 7.163-16 16-16s16 7.163 16 16z"></path>
<path fill="#d80027" style="fill: var(--color8, #d80027)" d="M31.005 10.435h-30.010c-0.643 1.733-0.995 3.608-0.995 5.565s0.352 3.832 0.995 5.565h30.010c0.643-1.733 0.995-3.608 0.995-5.565s-0.352-3.832-0.995-5.565z"></path>
<path fill="#0052b4" style="fill: var(--color7, #0052b4)" d="M16 0c-4.849 0-9.195 2.158-12.129 5.565h24.258c-2.934-3.407-7.279-5.565-12.129-5.565z"></path>
<path fill="#0052b4" style="fill: var(--color7, #0052b4)" d="M28.129 26.435h-24.258c2.934 3.407 7.279 5.565 12.129 5.565s9.195-2.158 12.129-5.565z"></path>
</symbol>
<symbol id="Dänemark" viewBox="0 0 32 32">
<path fill="#f0f0f0" style="fill: var(--color4, #f0f0f0)" d="M32 16c0 8.837-7.163 16-16 16s-16-7.163-16-16c0-8.837 7.163-16 16-16s16 7.163 16 16z"></path>
<path fill="#d80027" style="fill: var(--color8, #d80027)" d="M12.522 13.913h19.343c-1.023-7.85-7.735-13.913-15.865-13.913-1.195 0-2.358 0.132-3.478 0.38v13.533h0z"></path>
<path fill="#d80027" style="fill: var(--color8, #d80027)" d="M8.348 13.913v-11.968c-4.393 2.397-7.538 6.794-8.212 11.968l8.212-0z"></path>
<path fill="#d80027" style="fill: var(--color8, #d80027)" d="M8.348 18.087h-8.212c0.674 5.174 3.819 9.57 8.212 11.968l-0-11.968z"></path>
<path fill="#d80027" style="fill: var(--color8, #d80027)" d="M12.522 18.087v13.533c1.12 0.248 2.284 0.38 3.478 0.38 8.129 0 14.842-6.063 15.865-13.913l-19.343 0z"></path>
</symbol>
<symbol id="Deutschland" viewBox="0 0 32 32">
<path fill="#ffda44" style="fill: var(--color6, #ffda44)" d="M0.995 21.565c2.261 6.093 8.125 10.435 15.005 10.435s12.744-4.342 15.005-10.435l-15.005-1.391z"></path>
<path fill="#000" style="fill: var(--color9, #000)" d="M16 0c-6.879 0-12.744 4.342-15.005 10.435l15.005 1.391 15.005-1.391c-2.261-6.093-8.125-10.435-15.005-10.435z"></path>
<path fill="#d80027" style="fill: var(--color8, #d80027)" d="M0.995 10.435c-0.643 1.733-0.995 3.608-0.995 5.565s0.352 3.832 0.995 5.565h30.010c0.643-1.733 0.995-3.608 0.995-5.565s-0.352-3.832-0.995-5.565z"></path>
</symbol>
<symbol id="Ecuador" viewBox="0 0 32 32">
<path fill="#ffda44" style="fill: var(--color6, #ffda44)" d="M0 16c0-8.836 7.163-16 16-16s16 7.163 16 16l-16 1.391-16-1.391z"></path>
<path fill="#d80027" style="fill: var(--color8, #d80027)" d="M2.141 24c2.767 4.782 7.937 8 13.859 8s11.092-3.218 13.859-8l-13.859-1.044-13.859 1.044z"></path>
<path fill="#0052b4" style="fill: var(--color7, #0052b4)" d="M29.859 24c1.361-2.353 2.141-5.086 2.141-8h-32c0 2.914 0.78 5.647 2.141 8h27.718z"></path>
<path fill="#ffda44" style="fill: var(--color6, #ffda44)" d="M21.565 16c0 3.074-2.492 5.565-5.565 5.565s-5.565-2.492-5.565-5.565c0-3.074 2.492-5.565 5.565-5.565s5.565 2.492 5.565 5.565z"></path>
<path fill="#338af3" style="fill: var(--color5, #338af3)" d="M16 19.478c-1.918 0-3.478-1.56-3.478-3.478v-2.087c0-1.918 1.56-3.478 3.478-3.478s3.478 1.56 3.478 3.478v2.087c0 1.918-1.56 3.478-3.478 3.478z"></path>
<path fill="#000" style="fill: var(--color9, #000)" d="M21.565 7.652h-4.174c0-0.768-0.623-1.391-1.391-1.391s-1.391 0.623-1.391 1.391h-4.174c0 0.768 0.669 1.391 1.438 1.391h-0.046c0 0.768 0.623 1.391 1.391 1.391 0 0.768 0.623 1.391 1.391 1.391h2.783c0.768 0 1.391-0.623 1.391-1.391 0.768 0 1.391-0.623 1.391-1.391h-0.046c0.768 0 1.438-0.623 1.438-1.391z"></path>
</symbol>
<symbol id="Estland" viewBox="0 0 32 32">
<path fill="#000" style="fill: var(--color9, #000)" d="M0 16c0 1.957 0.352 3.832 0.995 5.565l15.005 0.696 15.005-0.696c0.643-1.733 0.995-3.608 0.995-5.565s-0.352-3.832-0.995-5.565l-15.005-0.696-15.005 0.696c-0.643 1.733-0.995 3.608-0.995 5.565z"></path>
<path fill="#0052b4" style="fill: var(--color7, #0052b4)" d="M16 0c-6.879 0-12.744 4.342-15.005 10.435h30.010c-2.261-6.093-8.125-10.435-15.005-10.435z"></path>
<path fill="#f0f0f0" style="fill: var(--color4, #f0f0f0)" d="M31.005 21.565h-30.010c2.261 6.093 8.125 10.435 15.005 10.435s12.744-4.342 15.005-10.435z"></path>
</symbol>
<symbol id="Finnland" viewBox="0 0 32 32">
<path fill="#f0f0f0" style="fill: var(--color4, #f0f0f0)" d="M32 16c0 8.837-7.163 16-16 16s-16-7.163-16-16c0-8.837 7.163-16 16-16s16 7.163 16 16z"></path>
<path fill="#0052b4" style="fill: var(--color7, #0052b4)" d="M31.865 13.913h-19.343v-13.533c-1.479 0.328-2.88 0.859-4.174 1.565v11.968h-8.212c-0.089 0.683-0.135 1.38-0.135 2.087s0.046 1.404 0.135 2.087h8.212v11.968c1.293 0.706 2.695 1.237 4.174 1.565v-13.533h19.343c0.089-0.683 0.135-1.38 0.135-2.087s-0.047-1.404-0.135-2.087z"></path>
</symbol>
<symbol id="Frankreich" viewBox="0 0 32 32">
<path fill="#f0f0f0" style="fill: var(--color4, #f0f0f0)" d="M32 16c0 8.837-7.163 16-16 16s-16-7.163-16-16c0-8.837 7.163-16 16-16s16 7.163 16 16z"></path>
<path fill="#d80027" style="fill: var(--color8, #d80027)" d="M32 16c0-6.879-4.342-12.744-10.435-15.005v30.010c6.093-2.261 10.435-8.125 10.435-15.005z"></path>
<path fill="#0052b4" style="fill: var(--color7, #0052b4)" d="M0 16c0 6.879 4.342 12.744 10.435 15.005v-30.010c-6.093 2.261-10.435 8.125-10.435 15.005z"></path>
</symbol>
<symbol id="Georgien" viewBox="0 0 32 32">
<path fill="#f0f0f0" style="fill: var(--color4, #f0f0f0)" d="M32 16c0 8.837-7.163 16-16 16s-16-7.163-16-16c0-8.837 7.163-16 16-16s16 7.163 16 16z"></path>
<path fill="#d80027" style="fill: var(--color8, #d80027)" d="M31.865 13.913h-13.778v-13.778c-0.683-0.089-1.38-0.135-2.087-0.135s-1.404 0.046-2.087 0.135v13.778h-13.778c-0.089 0.683-0.135 1.38-0.135 2.087s0.046 1.404 0.135 2.087h13.778v13.778c0.683 0.089 1.38 0.135 2.087 0.135s1.404-0.046 2.087-0.135v-13.778h13.778c0.089-0.683 0.135-1.38 0.135-2.087s-0.047-1.404-0.135-2.087z"></path>
<path fill="#d80027" style="fill: var(--color8, #d80027)" d="M9.739 7.652v-2.087h-2.087v2.087h-2.087v2.087h2.087v2.087h2.087v-2.087h2.087v-2.087z"></path>
<path fill="#d80027" style="fill: var(--color8, #d80027)" d="M24.348 7.652v-2.087h-2.087v2.087h-2.087v2.087h2.087v2.087h2.087v-2.087h2.087v-2.087z"></path>
<path fill="#d80027" style="fill: var(--color8, #d80027)" d="M9.739 22.261v-2.087h-2.087v2.087h-2.087v2.087h2.087v2.087h2.087v-2.087h2.087v-2.087z"></path>
<path fill="#d80027" style="fill: var(--color8, #d80027)" d="M24.348 22.261v-2.087h-2.087v2.087h-2.087v2.087h2.087v2.087h2.087v-2.087h2.087v-2.087z"></path>
</symbol>
<symbol id="Griechenland" viewBox="0 0 32 32">
<path fill="#f0f0f0" style="fill: var(--color4, #f0f0f0)" d="M32 16c0 8.837-7.163 16-16 16s-16-7.163-16-16c0-8.837 7.163-16 16-16s16 7.163 16 16z"></path>
<path fill="#338af3" style="fill: var(--color5, #338af3)" d="M16 11.826h15.449c-0.401-1.488-1.011-2.891-1.797-4.174h-13.652v4.174z"></path>
<path fill="#338af3" style="fill: var(--color5, #338af3)" d="M6.040 28.522h19.92c1.46-1.163 2.712-2.576 3.692-4.174h-27.303c0.979 1.598 2.232 3.011 3.692 4.174z"></path>
<path fill="#338af3" style="fill: var(--color5, #338af3)" d="M5.565 3.871c-1.258 1.083-2.345 2.359-3.217 3.781h3.217v-3.781z"></path>
<path fill="#338af3" style="fill: var(--color5, #338af3)" d="M16 16c0-1.63 0-2.994 0-4.174h-6.261v4.174h-4.174v-4.174h-5.014c-0.359 1.331-0.551 2.73-0.551 4.174s0.193 2.843 0.551 4.174h30.898c0.359-1.331 0.551-2.73 0.551-4.174h-16z"></path>
<path fill="#338af3" style="fill: var(--color5, #338af3)" d="M16 0c-2.222 0-4.338 0.453-6.261 1.272v6.38h6.261c0-1.457 0-2.696 0-4.174h9.96c-2.733-2.177-6.194-3.478-9.96-3.478z"></path>
</symbol>
<symbol id="Großbritannien" viewBox="0 0 32 32">
<path fill="#012169" style="fill: var(--color12, #012169)" d="M32 16c0 8.837-7.163 16-16 16s-16-7.163-16-16c0-8.837 7.163-16 16-16s16 7.163 16 16z"></path>
<path fill="#fff" style="fill: var(--color13, #fff)" d="M11.563 11.563h-8.794l-1.85-0.912 0.244-0.637c0.65-1.6 1.462-2.956 2.575-4.287l0.331-0.381 7.494 4.494v1.725z"></path>
<path fill="#c8102e" style="fill: var(--color14, #c8102e)" d="M11.063 11.063v-0.938l-7.325-4.4c-1.069 1.275-1.944 2.719-2.575 4.287l1.75 1.050h8.15z"></path>
<path fill="#fff" style="fill: var(--color13, #fff)" d="M27.831 26.856l-7.387-4.438v-1.725h8.794l1.731 0.988-0.169 0.431c-0.65 1.6-1.575 3.087-2.688 4.419l-0.281 0.325zM28.569 12.019h-8.488v-1.537l8.094-4.856 0.3 0.362c1.031 1.256 1.819 2.637 2.406 4.15l0.163 0.4-2.475 1.481zM3.962 26.538l-0.325-0.387c-1.031-1.256-1.794-2.525-2.413-4.019l-0.188-0.469 2.038-1.225h8.488v1.538l-7.6 4.563z"></path>
<path fill="#c8102e" style="fill: var(--color14, #c8102e)" d="M20.775 21.194v0.938l7.325 4.394c1.069-1.275 1.988-2.688 2.619-4.25l-1.794-1.081h-8.15zM28.788 11.319l1.994-1.194c-0.606-1.463-1.425-2.813-2.413-4.019l-7.431 4.45v0.756h7.85zM3.212 20.938l-1.994 1.194c0.606 1.462 1.425 2.813 2.413 4.019l7.431-4.45v-0.762h-7.85z"></path>
<path fill="#fff" style="fill: var(--color13, #fff)" d="M16 32c0.844 0 1.675-0.069 2.488-0.194h-4.975c0.813 0.125 1.644 0.194 2.487 0.194zM16 0c-0.844 0-1.675 0.069-2.488 0.194h4.975c-0.813-0.125-1.644-0.194-2.488-0.194zM12.050 12.050v-11.556c-0.331 0.088-0.662 0.181-0.988 0.287v10.281h-10.281c-0.106 0.325-0.2 0.656-0.287 0.988h11.556zM19.95 19.95v11.556c0.331-0.087 0.663-0.181 0.988-0.288v-10.275h10.281c0.106-0.325 0.2-0.656 0.288-0.988h-11.556zM20.938 11.063v-10.281c-0.325-0.106-0.656-0.2-0.988-0.287v11.556h11.556c-0.087-0.331-0.181-0.662-0.288-0.988h-10.281zM12.050 19.95h-11.556c0.088 0.331 0.181 0.663 0.287 0.988h10.281v10.281c0.325 0.106 0.656 0.2 0.988 0.288v-11.556z"></path>
<path fill="#c8102e" style="fill: var(--color14, #c8102e)" d="M19.95 12.050v-11.556c-0.481-0.119-0.969-0.225-1.462-0.3h-4.975c-0.494 0.075-0.981 0.175-1.463 0.3v11.556h-11.556c-0.325 1.262-0.494 2.588-0.494 3.95s0.169 2.688 0.494 3.95h11.556v11.556c0.481 0.119 0.969 0.225 1.463 0.3h4.975c0.494-0.075 0.981-0.175 1.462-0.3v-11.556h11.556c0.319-1.262 0.494-2.587 0.494-3.95s-0.169-2.688-0.494-3.95h-11.556z"></path>
</symbol>
<symbol id="Hong-Kong" viewBox="0 0 32 32">
<path fill="#d80027" style="fill: var(--color8, #d80027)" d="M32 16c0 8.837-7.163 16-16 16s-16-7.163-16-16c0-8.837 7.163-16 16-16s16 7.163 16 16z"></path>
<path fill="#f0f0f0" style="fill: var(--color4, #f0f0f0)" d="M17.652 12.104c-0.364 1.512-1.010 1.224-1.327 2.543-1.868-0.449-3.018-2.327-2.569-4.195s2.327-3.018 4.195-2.569c-0.634 2.638 0.026 2.868-0.299 4.221z"></path>
<path fill="#f0f0f0" style="fill: var(--color4, #f0f0f0)" d="M12.805 13.225c1.326 0.813 0.852 1.339 2.008 2.048-1.004 1.638-3.146 2.151-4.783 1.147s-2.151-3.146-1.147-4.783c2.313 1.418 2.736 0.862 3.922 1.589z"></path>
<path fill="#f0f0f0" style="fill: var(--color4, #f0f0f0)" d="M12.374 18.181c1.183-1.010 1.536-0.397 2.568-1.277 1.247 1.461 1.074 3.657-0.387 4.904s-3.657 1.073-4.904-0.387c2.063-1.761 1.665-2.336 2.723-3.239z"></path>
<path fill="#f0f0f0" style="fill: var(--color4, #f0f0f0)" d="M16.953 20.123c-0.595-1.437 0.097-1.584-0.421-2.837 1.775-0.735 3.809 0.109 4.544 1.884s-0.109 3.809-1.884 4.544c-1.037-2.507-1.707-2.305-2.239-3.591z"></path>
<path fill="#f0f0f0" style="fill: var(--color4, #f0f0f0)" d="M20.216 16.367c-1.551 0.122-1.476-0.582-2.829-0.476-0.15-1.915 1.281-3.589 3.196-3.74s3.589 1.281 3.739 3.196c-2.705 0.212-2.72 0.911-4.107 1.020z"></path>
</symbol>
<symbol id="Indonesien" viewBox="0 0 32 32">
<path fill="#f0f0f0" style="fill: var(--color4, #f0f0f0)" d="M32 16c0 8.837-7.163 16-16 16s-16-7.163-16-16c0-8.837 7.163-16 16-16s16 7.163 16 16z"></path>
<path fill="#a2001d" style="fill: var(--color15, #a2001d)" d="M0 16c0-8.836 7.163-16 16-16s16 7.163 16 16z"></path>
</symbol>
<symbol id="Irland" viewBox="0 0 32 32">
<path fill="#f0f0f0" style="fill: var(--color4, #f0f0f0)" d="M32 16c0 8.837-7.163 16-16 16s-16-7.163-16-16c0-8.837 7.163-16 16-16s16 7.163 16 16z"></path>
<path fill="#ff9811" style="fill: var(--color16, #ff9811)" d="M32 16c0-6.879-4.342-12.744-10.435-15.005v30.010c6.093-2.261 10.435-8.125 10.435-15.005z"></path>
<path fill="#6da544" style="fill: var(--color10, #6da544)" d="M0 16c0 6.88 4.342 12.744 10.435 15.005v-30.010c-6.093 2.261-10.435 8.125-10.435 15.005z"></path>
</symbol>
<symbol id="Israel" viewBox="0 0 32 32">
<path fill="#f0f0f0" style="fill: var(--color4, #f0f0f0)" d="M32 16c0 8.837-7.163 16-16 16s-16-7.163-16-16c0-8.837 7.163-16 16-16s16 7.163 16 16z"></path>
<path fill="#0052b4" style="fill: var(--color7, #0052b4)" d="M22.025 12.522h-4.016l-2.008-3.478-2.008 3.478h-4.016l2.008 3.478-2.008 3.478h4.017l2.008 3.478 2.008-3.478h4.016l-2.008-3.478 2.008-3.478zM18.467 16l-1.233 2.137h-2.467l-1.234-2.137 1.234-2.137h2.467l1.234 2.137zM16 11.726l0.459 0.795h-0.918l0.459-0.795zM12.299 13.863h0.918l-0.459 0.795-0.459-0.795zM12.299 18.137l0.459-0.795 0.459 0.795h-0.918zM16 20.273l-0.459-0.795h0.918l-0.459 0.795zM19.701 18.137h-0.918l0.459-0.795 0.459 0.795zM18.783 13.863h0.918l-0.459 0.795-0.459-0.795z"></path>
<path fill="#0052b4" style="fill: var(--color7, #0052b4)" d="M25.96 3.478h-19.92c-1.46 1.163-2.712 2.576-3.692 4.174h27.303c-0.979-1.598-2.232-3.011-3.692-4.174z"></path>
<path fill="#0052b4" style="fill: var(--color7, #0052b4)" d="M6.040 28.522h19.92c1.46-1.163 2.712-2.576 3.692-4.174h-27.303c0.979 1.598 2.232 3.011 3.692 4.174z"></path>
</symbol>
<symbol id="Italien" viewBox="0 0 32 32">
<path fill="#f0f0f0" style="fill: var(--color4, #f0f0f0)" d="M32 16c0 8.837-7.163 16-16 16s-16-7.163-16-16c0-8.837 7.163-16 16-16s16 7.163 16 16z"></path>
<path fill="#d80027" style="fill: var(--color8, #d80027)" d="M32 16c0-6.879-4.342-12.744-10.435-15.005v30.010c6.093-2.261 10.435-8.125 10.435-15.005z"></path>
<path fill="#6da544" style="fill: var(--color10, #6da544)" d="M0 16c0 6.879 4.342 12.744 10.435 15.005v-30.010c-6.093 2.261-10.435 8.125-10.435 15.005z"></path>
</symbol>
<symbol id="Japan" viewBox="0 0 32 32">
<path fill="#f0f0f0" style="fill: var(--color4, #f0f0f0)" d="M32 16c0 8.837-7.163 16-16 16s-16-7.163-16-16c0-8.837 7.163-16 16-16s16 7.163 16 16z"></path>
<path fill="#d80027" style="fill: var(--color8, #d80027)" d="M22.956 16c0 3.842-3.115 6.956-6.957 6.956s-6.957-3.115-6.957-6.957c0-3.842 3.115-6.957 6.957-6.957s6.957 3.115 6.957 6.957z"></path>
</symbol>
<symbol id="Kanada" viewBox="0 0 32 32">
<path fill="#f0f0f0" style="fill: var(--color4, #f0f0f0)" d="M32 16c0 8.837-7.163 16-16 16s-16-7.163-16-16c0-8.837 7.163-16 16-16s16 7.163 16 16z"></path>
<path fill="#d80027" style="fill: var(--color8, #d80027)" d="M32 16c0-6.343-3.692-11.824-9.044-14.412v28.825c5.352-2.588 9.044-8.069 9.044-14.412z"></path>
<path fill="#d80027" style="fill: var(--color8, #d80027)" d="M0 16c0 6.343 3.692 11.824 9.043 14.412v-28.825c-5.352 2.588-9.043 8.069-9.043 14.412z"></path>
<path fill="#d80027" style="fill: var(--color8, #d80027)" d="M18.783 18.087l2.783-1.391-1.391-0.696v-1.391l-2.783 1.391 1.391-2.783h-1.391l-1.391-2.087-1.391 2.087h-1.391l1.391 2.783-2.783-1.391v1.391l-1.391 0.696 2.783 1.391-0.696 1.391h2.783v2.087h1.391v-2.087h2.783z"></path>
</symbol>
<symbol id="Kolumbien" viewBox="0 0 32 32">
<path fill="#ffda44" style="fill: var(--color6, #ffda44)" d="M0 16c0-8.836 7.163-16 16-16s16 7.163 16 16l-16 1.391-16-1.391z"></path>
<path fill="#d80027" style="fill: var(--color8, #d80027)" d="M2.141 24c2.767 4.782 7.937 8 13.859 8s11.092-3.218 13.859-8l-13.859-1.044-13.859 1.044z"></path>
<path fill="#0052b4" style="fill: var(--color7, #0052b4)" d="M29.859 24c1.361-2.353 2.141-5.086 2.141-8h-32c0 2.914 0.78 5.647 2.141 8h27.718z"></path>
</symbol>
<symbol id="Kroatien" viewBox="0 0 32 32">
<path fill="#f0f0f0" style="fill: var(--color4, #f0f0f0)" d="M32 16c0-1.957-0.352-3.832-0.995-5.565l-15.005-0.696-15.005 0.696c-0.643 1.733-0.995 3.608-0.995 5.565s0.352 3.832 0.995 5.565l15.005 0.696 15.005-0.696c0.643-1.733 0.995-3.608 0.995-5.565z"></path>
<path fill="#0052b4" style="fill: var(--color7, #0052b4)" d="M16 32c6.879 0 12.744-4.342 15.005-10.435h-30.010c2.261 6.093 8.125 10.435 15.005 10.435z"></path>
<path fill="#d80027" style="fill: var(--color8, #d80027)" d="M0.995 10.435h30.010c-2.261-6.093-8.125-10.435-15.005-10.435s-12.744 4.342-15.005 10.435z"></path>
<path fill="#338af3" style="fill: var(--color5, #338af3)" d="M20.174 11.13h-2.783l0.464-3.478 1.855-1.391 1.855 1.391v2.783z"></path>
<path fill="#338af3" style="fill: var(--color5, #338af3)" d="M11.826 11.13h2.783l-0.464-3.478-1.855-1.391-1.855 1.391v2.783z"></path>
<path fill="#0052b4" style="fill: var(--color7, #0052b4)" d="M17.855 11.13h-3.71v-3.478l1.855-1.391 1.855 1.391z"></path>
<path fill="#f0f0f0" style="fill: var(--color4, #f0f0f0)" d="M10.435 10.435v7.652c0 1.822 0.88 3.442 2.238 4.458l0.974-0.244 1.229 1.236c0.363 0.075 0.739 0.114 1.125 0.114 0.383 0 0.757-0.039 1.119-0.113l1.403-1.168 0.806 0.172c1.357-1.016 2.238-2.634 2.238-4.456v-7.652h-11.13z"></path>
<path fill="#d80027" style="fill: var(--color8, #d80027)" d="M10.435 10.435h2.226v2.226h-2.226v-2.226z"></path>
<path fill="#d80027" style="fill: var(--color8, #d80027)" d="M14.887 10.435h2.226v2.226h-2.226v-2.226z"></path>
<path fill="#d80027" style="fill: var(--color8, #d80027)" d="M19.339 10.435h2.226v2.226h-2.226v-2.226z"></path>
<path fill="#d80027" style="fill: var(--color8, #d80027)" d="M12.661 12.661h2.226v2.226h-2.226v-2.226z"></path>
<path fill="#d80027" style="fill: var(--color8, #d80027)" d="M17.113 12.661h2.226v2.226h-2.226v-2.226z"></path>
<path fill="#d80027" style="fill: var(--color8, #d80027)" d="M10.435 14.886h2.226v2.226h-2.226v-2.226z"></path>
<path fill="#d80027" style="fill: var(--color8, #d80027)" d="M12.661 17.112h2.226v2.226h-2.226v-2.226z"></path>
<path fill="#d80027" style="fill: var(--color8, #d80027)" d="M14.887 14.886h2.226v2.226h-2.226v-2.226z"></path>
<path fill="#d80027" style="fill: var(--color8, #d80027)" d="M19.339 14.886h2.226v2.226h-2.226v-2.226z"></path>
<path fill="#d80027" style="fill: var(--color8, #d80027)" d="M17.113 17.112h2.226v2.226h-2.226v-2.226z"></path>
<path fill="#d80027" style="fill: var(--color8, #d80027)" d="M14.887 19.338h2.226v2.226h-2.226v-2.226z"></path>
<path fill="#d80027" style="fill: var(--color8, #d80027)" d="M12.661 19.339h-2.082c0.191 0.828 0.566 1.585 1.081 2.226h1.001v-2.226z"></path>
<path fill="#d80027" style="fill: var(--color8, #d80027)" d="M19.339 21.565h1.001c0.515-0.641 0.89-1.399 1.081-2.226h-2.082v2.226z"></path>
<path fill="#d80027" style="fill: var(--color8, #d80027)" d="M12.661 21.565v0.971c0.647 0.487 1.404 0.837 2.226 1.004v-1.975h-2.226z"></path>
<path fill="#d80027" style="fill: var(--color8, #d80027)" d="M17.113 21.565v1.975c0.822-0.168 1.579-0.517 2.226-1.004v-0.971h-2.226z"></path>
</symbol>
<symbol id="Kuwait" viewBox="0 0 32 32">
<path fill="#f0f0f0" style="fill: var(--color4, #f0f0f0)" d="M31.005 21.565c0.643-1.733 0.995-3.608 0.995-5.565s-0.352-3.832-0.995-5.565l-15.005-1.391-15.005 1.391c-0.643 1.733-0.995 3.608-0.995 5.565s0.352 3.832 0.995 5.565l15.005 1.391 15.005-1.391z"></path>
<path fill="#d80027" style="fill: var(--color8, #d80027)" d="M16 32c6.879 0 12.744-4.342 15.005-10.435h-30.010c2.261 6.093 8.125 10.435 15.005 10.435z"></path>
<path fill="#6da544" style="fill: var(--color10, #6da544)" d="M16 0c-6.88 0-12.744 4.342-15.005 10.435h30.010c-2.261-6.093-8.125-10.435-15.005-10.435z"></path>
<path fill="#000" style="fill: var(--color9, #000)" d="M4.686 4.686c-6.248 6.248-6.248 16.379 0 22.628 1.631-1.631 3.223-3.223 5.749-5.748v-11.13l-5.748-5.749z"></path>
</symbol>
<symbol id="Lettland" viewBox="0 0 32 32">
<path fill="#fff" style="fill: var(--color13, #fff)" d="M32 16c0 8.837-7.163 16-16 16s-16-7.163-16-16c0-8.837 7.163-16 16-16s16 7.163 16 16z"></path>
<path fill="#9e3039" style="fill: var(--color17, #9e3039)" d="M16 0c-7.394 0-13.613 5.013-15.45 11.825h30.9c-1.837-6.813-8.056-11.825-15.45-11.825z"></path>
<path fill="#9e3039" style="fill: var(--color17, #9e3039)" d="M16 32c7.394 0 13.613-5.012 15.45-11.825h-30.9c1.837 6.813 8.056 11.825 15.45 11.825z"></path>
</symbol>
<symbol id="Luxemburg" viewBox="0 0 32 32">
<path fill="#f0f0f0" style="fill: var(--color4, #f0f0f0)" d="M32 16c0 8.837-7.163 16-16 16s-16-7.163-16-16c0-8.837 7.163-16 16-16s16 7.163 16 16z"></path>
<path fill="#d80027" style="fill: var(--color8, #d80027)" d="M16 0c-6.879 0-12.744 4.342-15.005 10.435h30.010c-2.261-6.093-8.125-10.435-15.005-10.435z"></path>
<path fill="#338af3" style="fill: var(--color5, #338af3)" d="M16 32c6.879 0 12.744-4.342 15.005-10.435h-30.010c2.261 6.093 8.125 10.435 15.005 10.435z"></path>
</symbol>
<symbol id="Malaysia" viewBox="0 0 32 32">
<path fill="#f0f0f0" style="fill: var(--color4, #f0f0f0)" d="M32 16c0 8.837-7.163 16-16 16s-16-7.163-16-16c0-8.837 7.163-16 16-16s16 7.163 16 16z"></path>
<path fill="#d80027" style="fill: var(--color8, #d80027)" d="M15.304 16h16.696c0-1.444-0.192-2.843-0.551-4.174h-16.144v4.174z"></path>
<path fill="#d80027" style="fill: var(--color8, #d80027)" d="M15.304 7.652h14.347c-0.979-1.598-2.232-3.011-3.692-4.174h-10.655v4.174z"></path>
<path fill="#d80027" style="fill: var(--color8, #d80027)" d="M16 32c3.766 0 7.227-1.302 9.96-3.478h-19.92c2.733 2.177 6.194 3.478 9.96 3.478z"></path>
<path fill="#d80027" style="fill: var(--color8, #d80027)" d="M2.348 24.348h27.303c0.786-1.283 1.396-2.686 1.797-4.174h-30.898c0.401 1.488 1.011 2.891 1.797 4.174z"></path>
<path fill="#0052b4" style="fill: var(--color7, #0052b4)" d="M16 16c0-8.836 0-9.878 0-16-8.836 0-16 7.163-16 16h16z"></path>
<path fill="#ffda44" style="fill: var(--color6, #ffda44)" d="M10.64 13.696c-2.185 0-3.957-1.771-3.957-3.957s1.771-3.957 3.957-3.957c0.681 0 1.322 0.172 1.882 0.476-0.878-0.859-2.079-1.389-3.404-1.389-2.689 0-4.87 2.18-4.87 4.87s2.18 4.87 4.87 4.87c1.325 0 2.526-0.53 3.404-1.389-0.56 0.303-1.201 0.475-1.882 0.475z"></path>
<path fill="#ffda44" style="fill: var(--color6, #ffda44)" d="M11.755 6.957l0.702 1.469 1.586-0.367-0.71 1.465 1.276 1.012-1.588 0.358 0.004 1.628-1.27-1.019-1.27 1.019 0.004-1.628-1.588-0.358 1.276-1.012-0.71-1.465 1.586 0.367z"></path>
</symbol>
<symbol id="Malta" viewBox="0 0 32 32">
<path fill="#f0f0f0" style="fill: var(--color4, #f0f0f0)" d="M32 16c0 8.837-7.163 16-16 16s-16-7.163-16-16c0-8.837 7.163-16 16-16s16 7.163 16 16z"></path>
<path fill="#d80027" style="fill: var(--color8, #d80027)" d="M16 0c8.837 0 16 7.163 16 16s-7.163 16-16 16z"></path>
<path fill="#acabb1" style="fill: var(--color18, #acabb1)" d="M11.13 6.261v-2.087h-2.087v2.087h-2.087v2.087h2.087v2.087h2.087v-2.087h2.087v-2.087z"></path>
</symbol>
<symbol id="Mexico" viewBox="0 0 32 32">
<path fill="#f0f0f0" style="fill: var(--color4, #f0f0f0)" d="M32 16c0 8.837-7.163 16-16 16s-16-7.163-16-16c0-8.837 7.163-16 16-16s16 7.163 16 16z"></path>
<path fill="#d80027" style="fill: var(--color8, #d80027)" d="M32 16c0-6.343-3.692-11.824-9.044-14.412v28.825c5.352-2.588 9.044-8.069 9.044-14.412z"></path>
<path fill="#6da544" style="fill: var(--color10, #6da544)" d="M0 16c0 6.343 3.692 11.824 9.043 14.412v-28.825c-5.352 2.588-9.043 8.069-9.043 14.412z"></path>
<path fill="#6da544" style="fill: var(--color10, #6da544)" d="M11.826 16c0 2.305 1.869 4.174 4.174 4.174s4.174-1.869 4.174-4.174v-1.391h-8.348v1.391z"></path>
<path fill="#ff9811" style="fill: var(--color16, #ff9811)" d="M21.565 13.217h-4.174c0-0.768-0.623-1.391-1.391-1.391s-1.391 0.623-1.391 1.391h-4.174c0 0.768 0.669 1.391 1.438 1.391h-0.046c0 0.768 0.623 1.391 1.391 1.391 0 0.768 0.623 1.391 1.391 1.391h2.783c0.768 0 1.391-0.623 1.391-1.391 0.768 0 1.391-0.623 1.391-1.391h-0.046c0.768 0 1.438-0.623 1.438-1.391z"></path>
</symbol>
<symbol id="Neuseeland" viewBox="0 0 32 32">
<path fill="#0052b4" style="fill: var(--color7, #0052b4)" d="M32 16c0 8.837-7.163 16-16 16s-16-7.163-16-16c0 0.004 16-15.998 16-16 8.837 0 16 7.163 16 16z"></path>
<path fill="#f0f0f0" style="fill: var(--color4, #f0f0f0)" d="M15.957 16h0.043c0-0.014 0-0.028 0-0.043-0.014 0.014-0.028 0.029-0.043 0.043z"></path>
<path fill="#f0f0f0" style="fill: var(--color4, #f0f0f0)" d="M16 8.348c0-2.815 0-4.66 0-8.348h-0.003c-8.835 0.002-15.997 7.164-15.997 16h8.348v-4.701l4.701 4.701h2.909c0.014-0.014 0.029-0.028 0.043-0.043 0-1.078 0-2.040 0-2.909l-4.701-4.701h4.701z"></path>
<path fill="#d80027" style="fill: var(--color8, #d80027)" d="M8.095 2.087c-2.502 1.425-4.583 3.505-6.008 6.008v7.905h4.174v-9.739h9.739c0-1.316 0-2.571 0-4.174h-7.905z"></path>
<path fill="#d80027" style="fill: var(--color8, #d80027)" d="M16 14.032l-5.685-5.685c0 0-1.968 0-1.968 0v0l7.652 7.652c0 0 0-1.357 0-1.968z"></path>
<path fill="#d80027" style="fill: var(--color8, #d80027)" d="M27.708 11.872l0.345 1.063h1.118l-0.904 0.657 0.345 1.063-0.904-0.657-0.904 0.657 0.345-1.063-0.904-0.657h1.118z"></path>
<path fill="#d80027" style="fill: var(--color8, #d80027)" d="M23.713 19.525l0.518 1.594h1.676l-1.356 0.985 0.518 1.594-1.356-0.985-1.356 0.985 0.518-1.594-1.356-0.985h1.676z"></path>
<path fill="#d80027" style="fill: var(--color8, #d80027)" d="M23.864 7.003l0.432 1.329h1.397l-1.13 0.821 0.432 1.329-1.13-0.821-1.13 0.821 0.432-1.329-1.13-0.821h1.397z"></path>
<path fill="#d80027" style="fill: var(--color8, #d80027)" d="M20.020 11.826l0.518 1.594h1.676l-1.356 0.985 0.518 1.594-1.356-0.985-1.356 0.985 0.518-1.594-1.356-0.985h1.676z"></path>
</symbol>
<symbol id="Niederlande" viewBox="0 0 32 32">
<path fill="#f0f0f0" style="fill: var(--color4, #f0f0f0)" d="M32 16c0 8.837-7.163 16-16 16s-16-7.163-16-16c0-8.837 7.163-16 16-16s16 7.163 16 16z"></path>
<path fill="#a2001d" style="fill: var(--color15, #a2001d)" d="M16 0c-6.879 0-12.744 4.342-15.005 10.435h30.010c-2.261-6.093-8.125-10.435-15.005-10.435z"></path>
<path fill="#0052b4" style="fill: var(--color7, #0052b4)" d="M16 32c6.879 0 12.744-4.342 15.005-10.435h-30.010c2.261 6.093 8.125 10.435 15.005 10.435z"></path>
</symbol>
<symbol id="Norwegen" viewBox="0 0 32 32">
<path fill="#f0f0f0" style="fill: var(--color4, #f0f0f0)" d="M32 16c0 8.837-7.163 16-16 16s-16-7.163-16-16c0-8.837 7.163-16 16-16s16 7.163 16 16z"></path>
<path fill="#d80027" style="fill: var(--color8, #d80027)" d="M0.551 20.174c0.926 3.435 2.966 6.412 5.71 8.52v-8.52h-5.71z"></path>
<path fill="#d80027" style="fill: var(--color8, #d80027)" d="M14.609 31.939c0.459 0.040 0.922 0.061 1.391 0.061 7.392 0 13.613-5.014 15.449-11.826h-16.84v11.765z"></path>
<path fill="#d80027" style="fill: var(--color8, #d80027)" d="M31.449 11.826c-1.836-6.812-8.056-11.826-15.449-11.826-0.469 0-0.933 0.021-1.391 0.061v11.765h16.84z"></path>
<path fill="#d80027" style="fill: var(--color8, #d80027)" d="M6.261 3.306c-2.744 2.108-4.784 5.085-5.71 8.52h5.71v-8.52z"></path>
<path fill="#0052b4" style="fill: var(--color7, #0052b4)" d="M31.865 13.913h-19.343v-13.533c-1.479 0.328-2.88 0.859-4.174 1.565v11.968h-8.212c-0.089 0.683-0.135 1.38-0.135 2.087s0.046 1.404 0.135 2.087h8.212v11.968c1.293 0.706 2.695 1.237 4.174 1.565v-13.533h19.343c0.089-0.683 0.135-1.38 0.135-2.087s-0.047-1.404-0.135-2.087z"></path>
</symbol>
<symbol id="Österreich" viewBox="0 0 32 32">
<path fill="#f0f0f0" style="fill: var(--color4, #f0f0f0)" d="M31.005 21.565c0.643-1.733 0.995-3.608 0.995-5.565s-0.352-3.832-0.995-5.565l-15.005-1.391-15.005 1.391c-0.643 1.733-0.995 3.608-0.995 5.565s0.352 3.832 0.995 5.565l15.005 1.391 15.005-1.391z"></path>
<path fill="#d80027" style="fill: var(--color8, #d80027)" d="M16 32c6.879 0 12.744-4.342 15.005-10.435h-30.010c2.261 6.093 8.125 10.435 15.005 10.435z"></path>
<path fill="#d80027" style="fill: var(--color8, #d80027)" d="M16 0c-6.88 0-12.744 4.342-15.005 10.435h30.010c-2.261-6.093-8.125-10.435-15.005-10.435z"></path>
</symbol>
<symbol id="Panama" viewBox="0 0 32 32">
<path fill="#f0f0f0" style="fill: var(--color4, #f0f0f0)" d="M32 16c0 8.837-7.163 16-16 16s-16-7.163-16-16c0-8.837 7.163-16 16-16s16 7.163 16 16z"></path>
<path fill="#0052b4" style="fill: var(--color7, #0052b4)" d="M0 16c0 8.837 7.163 16 16 16 0-6.085 0-16 0-16s-10.435 0-16 0z"></path>
<path fill="#d80027" style="fill: var(--color8, #d80027)" d="M16 0c8.837 0 16 7.163 16 16-6.085 0-16 0-16 0s0-10.435 0-16z"></path>
<path fill="#0052b4" style="fill: var(--color7, #0052b4)" d="M9.524 5.565l1.036 3.189h3.353l-2.712 1.971 1.036 3.189-2.712-1.971-2.712 1.971 1.036-3.189-2.712-1.971h3.353z"></path>
<path fill="#d80027" style="fill: var(--color8, #d80027)" d="M22.476 18.087l1.036 3.189h3.353l-2.712 1.971 1.036 3.189-2.712-1.971-2.712 1.971 1.036-3.189-2.712-1.971h3.353z"></path>
</symbol>
<symbol id="Peru" viewBox="0 0 32 32">
<path fill="#f0f0f0" style="fill: var(--color4, #f0f0f0)" d="M32 16c0 8.837-7.163 16-16 16s-16-7.163-16-16c0-8.837 7.163-16 16-16s16 7.163 16 16z"></path>
<path fill="#d80027" style="fill: var(--color8, #d80027)" d="M32 16c0-6.879-4.342-12.744-10.435-15.005v30.010c6.093-2.261 10.435-8.125 10.435-15.005z"></path>
<path fill="#d80027" style="fill: var(--color8, #d80027)" d="M0 16c0 6.88 4.342 12.744 10.435 15.005v-30.010c-6.093 2.261-10.435 8.125-10.435 15.005z"></path>
</symbol>
<symbol id="Philippinen" viewBox="0 0 32 32">
<path fill="#f0f0f0" style="fill: var(--color4, #f0f0f0)" d="M32 16c0 8.837-7.163 16-16 16s-16-7.163-16-16c0-8.837 7.163-16 16-16s16 7.163 16 16z"></path>
<path fill="#d80027" style="fill: var(--color8, #d80027)" d="M16 0v16l-11.314 11.314c2.895 2.895 6.895 4.686 11.314 4.686 8.837 0 16-7.163 16-16s-16-16-16-16z"></path>
<path fill="#0052b4" style="fill: var(--color7, #0052b4)" d="M16 0c-4.418 0-8.418 1.791-11.314 4.686 3.926 3.926 5.319 5.319 11.314 11.314h16c0-8.836-7.163-16-16-16z"></path>
<path fill="#ffda44" style="fill: var(--color6, #ffda44)" d="M10.956 16l-1.954-0.919 1.041-1.892-2.122 0.406-0.269-2.144-1.478 1.576-1.478-1.576-0.269 2.144-2.122-0.406 1.041 1.893-1.954 0.919 1.954 0.919-1.041 1.892 2.122-0.406 0.269 2.143 1.478-1.576 1.478 1.576 0.269-2.143 2.122 0.406-1.040-1.892z"></path>
<path fill="#ffda44" style="fill: var(--color6, #ffda44)" d="M4.267 6.261l0.65 0.909 1.065-0.337-0.664 0.899 0.65 0.909-1.060-0.353-0.664 0.899 0.008-1.117-1.060-0.353 1.066-0.337z"></path>
<path fill="#ffda44" style="fill: var(--color6, #ffda44)" d="M4.267 22.813l0.65 0.909 1.065-0.337-0.664 0.899 0.65 0.909-1.060-0.353-0.664 0.899 0.008-1.117-1.060-0.353 1.066-0.337z"></path>
<path fill="#ffda44" style="fill: var(--color6, #ffda44)" d="M13.542 14.537l-0.65 0.909-1.065-0.338 0.664 0.899-0.65 0.909 1.060-0.353 0.664 0.899-0.008-1.117 1.060-0.353-1.065-0.337z"></path>
</symbol>
<symbol id="Polen" viewBox="0 0 32 32">
<path fill="#f0f0f0" style="fill: var(--color4, #f0f0f0)" d="M32 16c0 8.837-7.163 16-16 16s-16-7.163-16-16c0-8.837 7.163-16 16-16s16 7.163 16 16z"></path>
<path fill="#d80027" style="fill: var(--color8, #d80027)" d="M32 16c0 8.837-7.163 16-16 16s-16-7.163-16-16z"></path>
</symbol>
<symbol id="Portugal" viewBox="0 0 32 32">
<path fill="#6da544" style="fill: var(--color10, #6da544)" d="M0 16c0 6.879 4.342 12.744 10.435 15.005l1.391-15.005-1.391-15.005c-6.093 2.261-10.435 8.125-10.435 15.005z"></path>
<path fill="#d80027" style="fill: var(--color8, #d80027)" d="M32 16c0-8.836-7.163-16-16-16-1.957 0-3.832 0.352-5.565 0.995v30.010c1.733 0.643 3.608 0.995 5.565 0.995 8.837 0 16-7.163 16-16z"></path>
<path fill="#ffda44" style="fill: var(--color6, #ffda44)" d="M16 16c0 3.074-2.492 5.565-5.565 5.565s-5.565-2.492-5.565-5.565c0-3.074 2.492-5.565 5.565-5.565s5.565 2.492 5.565 5.565z"></path>
<path fill="#d80027" style="fill: var(--color8, #d80027)" d="M7.304 13.217v3.478c0 1.729 1.402 3.13 3.13 3.13s3.13-1.401 3.13-3.13v-3.478h-6.261z"></path>
<path fill="#f0f0f0" style="fill: var(--color4, #f0f0f0)" d="M10.435 17.739c-0.575 0-1.043-0.468-1.043-1.044v-1.391h2.087v1.391c0 0.575-0.468 1.043-1.043 1.043z"></path>
</symbol>
<symbol id="Rumänien" viewBox="0 0 32 32">
<path fill="#ffda44" style="fill: var(--color6, #ffda44)" d="M21.565 0.995c-1.733-0.643-3.608-0.995-5.565-0.995s-3.832 0.352-5.565 0.995l-1.391 15.005 1.391 15.005c1.733 0.643 3.608 0.995 5.565 0.995s3.832-0.352 5.565-0.995l1.391-15.005-1.391-15.005z"></path>
<path fill="#d80027" style="fill: var(--color8, #d80027)" d="M32 16c0-6.879-4.342-12.744-10.435-15.005v30.010c6.093-2.261 10.435-8.125 10.435-15.005z"></path>
<path fill="#0052b4" style="fill: var(--color7, #0052b4)" d="M0 16c0 6.88 4.342 12.744 10.435 15.005l0-30.010c-6.093 2.261-10.435 8.125-10.435 15.005z"></path>
</symbol>
<symbol id="Saudi Arabien" viewBox="0 0 32 32">
<path fill="#6da544" style="fill: var(--color10, #6da544)" d="M32 16c0 8.837-7.163 16-16 16s-16-7.163-16-16c0-8.837 7.163-16 16-16s16 7.163 16 16z"></path>
<path fill="#f0f0f0" style="fill: var(--color4, #f0f0f0)" d="M9.043 19.13c0 1.153 0.934 2.087 2.087 2.087h6.261c0 0.96 0.779 1.739 1.739 1.739h2.087c0.96 0 1.739-0.779 1.739-1.739v-2.087h-13.913z"></path>
<path fill="#f0f0f0" style="fill: var(--color4, #f0f0f0)" d="M23.13 9.043v4.87c0 0.767-0.624 1.391-1.391 1.391v2.087c1.918 0 3.478-1.56 3.478-3.478v-4.87h-2.087z"></path>
<path fill="#f0f0f0" style="fill: var(--color4, #f0f0f0)" d="M8.174 13.913c0 0.767-0.624 1.391-1.391 1.391v2.087c1.918 0 3.478-1.56 3.478-3.478v-4.87h-2.087v4.87z"></path>
<path fill="#f0f0f0" style="fill: var(--color4, #f0f0f0)" d="M20 9.043h2.087v4.87h-2.087v-4.87z"></path>
<path fill="#f0f0f0" style="fill: var(--color4, #f0f0f0)" d="M16.87 11.826c0 0.192-0.156 0.348-0.348 0.348s-0.348-0.156-0.348-0.348v-2.783h-2.087v2.783c0 0.192-0.156 0.348-0.348 0.348s-0.348-0.156-0.348-0.348v-2.783h-2.087v2.783c0 1.343 1.092 2.435 2.435 2.435 0.517 0 0.997-0.162 1.391-0.438 0.395 0.276 0.874 0.438 1.391 0.438 0.104 0 0.206-0.007 0.307-0.020-0.148 0.609-0.697 1.064-1.351 1.064v2.087c1.918 0 3.478-1.56 3.478-3.478v-4.87h-2.087v2.783z"></path>
<path fill="#f0f0f0" style="fill: var(--color4, #f0f0f0)" d="M11.304 15.304h3.13v2.087h-3.13v-2.087z"></path>
</symbol>
<symbol id="Schweden" viewBox="0 0 32 32">
<path fill="#ffda44" style="fill: var(--color6, #ffda44)" d="M32 16c0 8.837-7.163 16-16 16s-16-7.163-16-16c0-8.837 7.163-16 16-16s16 7.163 16 16z"></path>
<path fill="#0052b4" style="fill: var(--color7, #0052b4)" d="M12.522 13.913h19.343c-1.023-7.85-7.735-13.913-15.865-13.913-1.195 0-2.358 0.132-3.478 0.38v13.533z"></path>
<path fill="#0052b4" style="fill: var(--color7, #0052b4)" d="M8.348 13.913v-11.968c-4.393 2.397-7.538 6.794-8.212 11.968h8.212z"></path>
<path fill="#0052b4" style="fill: var(--color7, #0052b4)" d="M8.348 18.087h-8.212c0.674 5.174 3.819 9.57 8.212 11.968z"></path>
<path fill="#0052b4" style="fill: var(--color7, #0052b4)" d="M12.522 18.087v13.533c1.12 0.248 2.284 0.38 3.478 0.38 8.129 0 14.842-6.063 15.865-13.913h-19.343z"></path>
</symbol>
<symbol id="Schweiz" viewBox="0 0 32 32">
<path fill="#d80027" style="fill: var(--color8, #d80027)" d="M32 16c0 8.837-7.163 16-16 16s-16-7.163-16-16c0-8.837 7.163-16 16-16s16 7.163 16 16z"></path>
<path fill="#f0f0f0" style="fill: var(--color4, #f0f0f0)" d="M24.348 13.217h-5.565v-5.565h-5.565v5.565h-5.565v5.565h5.565v5.565h5.565v-5.565h5.565z"></path>
</symbol>
<symbol id="Serbien" viewBox="0 0 32 32">
<path fill="#f0f0f0" style="fill: var(--color4, #f0f0f0)" d="M32 16c0 8.837-7.163 16-16 16s-16-7.163-16-16c0-8.837 7.163-16 16-16s16 7.163 16 16z"></path>
<path fill="#0052b4" style="fill: var(--color7, #0052b4)" d="M16 0c-8.836 0-16 7.163-16 16 0 1.957 0.352 3.832 0.995 5.565h30.010c0.643-1.733 0.995-3.608 0.995-5.565 0-8.836-7.163-16-16-16z"></path>
<path fill="#d80027" style="fill: var(--color8, #d80027)" d="M16 0c-6.879 0-12.744 4.342-15.005 10.435h30.010c-2.261-6.093-8.125-10.435-15.005-10.435z"></path>
<path fill="#d80027" style="fill: var(--color8, #d80027)" d="M4.137 9.043v7.982c0 4.54 5.931 5.931 5.931 5.931s5.931-1.391 5.931-5.931v-7.982h-11.863z"></path>
<path fill="#ffda44" style="fill: var(--color6, #ffda44)" d="M6.59 10.435h6.957v-2.783l-1.391 0.696-2.087-2.087-2.087 2.087-1.391-0.696z"></path>
<path fill="#ffda44" style="fill: var(--color6, #ffda44)" d="M14.609 18.136l-4.522-4.522-4.522 4.522 1.476 1.476 3.046-3.046 3.046 3.046z"></path>
<path fill="#f0f0f0" style="fill: var(--color4, #f0f0f0)" d="M14.609 13.913h-2.11c0.119-0.205 0.188-0.442 0.188-0.696 0-0.768-0.623-1.391-1.391-1.391-0.531 0-0.992 0.297-1.227 0.735-0.235-0.437-0.696-0.735-1.227-0.735-0.768 0-1.391 0.623-1.391 1.391 0 0.254 0.069 0.491 0.188 0.696h-2.073c0 0.768 0.669 1.391 1.438 1.391h-0.046c0 0.768 0.623 1.391 1.391 1.391 0 0.68 0.489 1.246 1.134 1.367l-1.096 2.475c0.525 0.214 1.1 0.332 1.701 0.332s1.176-0.119 1.701-0.332l-1.096-2.475c0.645-0.121 1.134-0.686 1.134-1.367 0.768 0 1.391-0.623 1.391-1.391h-0.046c0.768 0 1.438-0.623 1.438-1.391z"></path>
</symbol>
<symbol id="Singapur" viewBox="0 0 32 32">
<path fill="#f0f0f0" style="fill: var(--color4, #f0f0f0)" d="M32 16c0 8.837-7.163 16-16 16s-16-7.163-16-16c0-8.837 7.163-16 16-16s16 7.163 16 16z"></path>
<path fill="#d80027" style="fill: var(--color8, #d80027)" d="M0 16c0-8.837 7.163-16 16-16s16 7.163 16 16z"></path>
<path fill="#f0f0f0" style="fill: var(--color4, #f0f0f0)" d="M9.739 8.348c0-2.331 1.638-4.279 3.826-4.756-0.336-0.073-0.685-0.113-1.043-0.113-2.689 0-4.87 2.18-4.87 4.87s2.18 4.87 4.87 4.87c0.358 0 0.707-0.040 1.043-0.113-2.188-0.478-3.826-2.425-3.826-4.756z"></path>
<path fill="#f0f0f0" style="fill: var(--color4, #f0f0f0)" d="M16 3.826l0.345 1.063h1.118l-0.904 0.657 0.345 1.063-0.904-0.657-0.904 0.657 0.345-1.063-0.904-0.657h1.117z"></path>
<path fill="#f0f0f0" style="fill: var(--color4, #f0f0f0)" d="M13.289 5.913l0.345 1.063h1.118l-0.904 0.657 0.345 1.063-0.904-0.657-0.904 0.657 0.345-1.063-0.904-0.657h1.118z"></path>
<path fill="#f0f0f0" style="fill: var(--color4, #f0f0f0)" d="M18.711 5.913l0.345 1.063h1.117l-0.904 0.657 0.345 1.063-0.904-0.657-0.904 0.657 0.345-1.063-0.904-0.657h1.117z"></path>
<path fill="#f0f0f0" style="fill: var(--color4, #f0f0f0)" d="M17.668 9.043l0.345 1.063h1.117l-0.904 0.657 0.345 1.063-0.904-0.657-0.904 0.657 0.345-1.063-0.904-0.657h1.117z"></path>
<path fill="#f0f0f0" style="fill: var(--color4, #f0f0f0)" d="M14.332 9.043l0.345 1.063h1.118l-0.904 0.657 0.345 1.063-0.904-0.657-0.904 0.657 0.345-1.063-0.904-0.657h1.118z"></path>
</symbol>
<symbol id="Slowakei" viewBox="0 0 32 32">
<path fill="#f0f0f0" style="fill: var(--color4, #f0f0f0)" d="M32 16c0 8.837-7.163 16-16 16s-16-7.163-16-16c0-8.837 7.163-16 16-16s16 7.163 16 16z"></path>
<path fill="#0052b4" style="fill: var(--color7, #0052b4)" d="M16 32c8.837 0 16-7.163 16-16 0-1.957-0.352-3.832-0.995-5.565h-30.010c-0.643 1.733-0.995 3.608-0.995 5.565 0 8.837 7.163 16 16 16z"></path>
<path fill="#d80027" style="fill: var(--color8, #d80027)" d="M16 32c6.879 0 12.744-4.342 15.005-10.435h-30.010c2.261 6.093 8.125 10.435 15.005 10.435z"></path>
<path fill="#f0f0f0" style="fill: var(--color4, #f0f0f0)" d="M4.137 9.043v7.982c0 4.54 5.931 5.931 5.931 5.931s5.931-1.391 5.931-5.931v-7.982h-11.863z"></path>
<path fill="#d80027" style="fill: var(--color8, #d80027)" d="M5.529 9.043v7.982c0 0.533 0.118 1.036 0.353 1.508 2.327 0 5.805 0 8.374 0 0.235-0.472 0.353-0.975 0.353-1.508v-7.982h-9.080z"></path>
<path fill="#f0f0f0" style="fill: var(--color4, #f0f0f0)" d="M12.851 14.609h-2.087v-1.391h1.391v-1.391h-1.391v-1.391h-1.391v1.391h-1.391v1.391h1.391v1.391h-2.087v1.391h2.087v1.391h1.391v-1.391h2.087z"></path>
<path fill="#0052b4" style="fill: var(--color7, #0052b4)" d="M7.779 20.476c0.897 0.563 1.818 0.891 2.289 1.036 0.472-0.145 1.393-0.473 2.289-1.036 0.904-0.568 1.538-1.218 1.898-1.942-0.397-0.281-0.881-0.446-1.404-0.446-0.191 0-0.376 0.023-0.553 0.064-0.377-0.857-1.233-1.455-2.229-1.455s-1.852 0.599-2.229 1.455c-0.178-0.041-0.363-0.064-0.553-0.064-0.523 0-1.008 0.166-1.404 0.446 0.36 0.724 0.994 1.374 1.898 1.942z"></path>
</symbol>
<symbol id="Slowenien" viewBox="0 0 32 32">
<path fill="#f0f0f0" style="fill: var(--color4, #f0f0f0)" d="M32 16c0 8.837-7.163 16-16 16s-16-7.163-16-16c0-8.837 7.163-16 16-16s16 7.163 16 16z"></path>
<path fill="#0052b4" style="fill: var(--color7, #0052b4)" d="M31.005 10.435h-17.092v-4.174h-8.348v4.174h-4.57c-0.643 1.733-0.995 3.608-0.995 5.565s0.352 3.832 0.995 5.565l15.005 1.391 15.005-1.391c0.643-1.733 0.995-3.608 0.995-5.565s-0.352-3.832-0.995-5.565z"></path>
<path fill="#d80027" style="fill: var(--color8, #d80027)" d="M16 32c6.879 0 12.744-4.342 15.005-10.435h-30.010c2.261 6.093 8.125 10.435 15.005 10.435z"></path>
<path fill="#f0f0f0" style="fill: var(--color4, #f0f0f0)" d="M5.565 10.435v1.391c0 3.195 4.174 4.174 4.174 4.174s4.174-0.979 4.174-4.174v-1.391l-1.391 1.391-2.783-2.087-2.783 2.087-1.391-1.391z"></path>
</symbol>
<symbol id="Spanien" viewBox="0 0 32 32">
<path fill="#ffda44" style="fill: var(--color6, #ffda44)" d="M0 16c0 1.957 0.352 3.832 0.995 5.565l15.005 1.391 15.005-1.391c0.643-1.733 0.995-3.608 0.995-5.565s-0.352-3.832-0.995-5.565l-15.005-1.391-15.005 1.391c-0.643 1.733-0.995 3.608-0.995 5.565z"></path>
<path fill="#d80027" style="fill: var(--color8, #d80027)" d="M31.005 10.435c-2.261-6.093-8.125-10.435-15.005-10.435s-12.744 4.342-15.005 10.435h30.010z"></path>
<path fill="#d80027" style="fill: var(--color8, #d80027)" d="M0.995 21.565c2.261 6.093 8.125 10.435 15.005 10.435s12.744-4.342 15.005-10.435h-30.010z"></path>
</symbol>
<symbol id="Südafrika" viewBox="0 0 32 32">
<path fill="#f0f0f0" style="fill: var(--color4, #f0f0f0)" d="M32 16c0 8.837-7.163 16-16 16s-16-7.163-16-16c0-8.837 7.163-16 16-16s16 7.163 16 16z"></path>
<path fill="#000" style="fill: var(--color9, #000)" d="M4.686 27.314c-6.248-6.248-6.248-16.379 0-22.628-0 0.001 9.227 11.314 9.227 11.314l-9.227 11.314z"></path>
<path fill="#ffda44" style="fill: var(--color6, #ffda44)" d="M13.913 16l-11.791-7.968c-0.366 0.635-0.688 1.299-0.965 1.985l5.969 5.983-5.969 5.983c0.277 0.686 0.599 1.349 0.964 1.984l11.792-7.967z"></path>
<path fill="#6da544" style="fill: var(--color10, #6da544)" d="M31.865 13.913h-17.952l-9.226-9.227c-0.994 0.994-1.858 2.119-2.564 3.346l7.952 7.968-7.953 7.967c0.706 1.227 1.57 2.352 2.565 3.347l9.226-9.226h17.952c0.089-0.683 0.135-1.38 0.135-2.087s-0.047-1.404-0.135-2.087z"></path>
<path fill="#0052b4" style="fill: var(--color7, #0052b4)" d="M6.259 28.692c2.698 2.074 6.075 3.308 9.741 3.308 7.392 0 13.613-5.014 15.449-11.826h-16.672l-8.518 8.518z"></path>
<path fill="#d80027" style="fill: var(--color8, #d80027)" d="M31.449 11.826c-1.836-6.812-8.056-11.826-15.449-11.826-3.666 0-7.043 1.234-9.741 3.308l8.518 8.518h16.672z"></path>
</symbol>
<symbol id="Thailand" viewBox="0 0 32 32">
<path fill="#f0f0f0" style="fill: var(--color4, #f0f0f0)" d="M32 16c0 8.837-7.163 16-16 16s-16-7.163-16-16c0-8.837 7.163-16 16-16s16 7.163 16 16z"></path>
<path fill="#0052b4" style="fill: var(--color7, #0052b4)" d="M31.005 10.435h-30.010c-0.643 1.733-0.995 3.608-0.995 5.565s0.352 3.832 0.995 5.565h30.010c0.643-1.733 0.995-3.608 0.995-5.565s-0.352-3.832-0.995-5.565z"></path>
<path fill="#d80027" style="fill: var(--color8, #d80027)" d="M16 0c-4.849 0-9.195 2.158-12.129 5.565h24.258c-2.934-3.407-7.279-5.565-12.129-5.565z"></path>
<path fill="#d80027" style="fill: var(--color8, #d80027)" d="M28.129 26.435h-24.258c2.934 3.407 7.279 5.565 12.129 5.565s9.195-2.158 12.129-5.565z"></path>
</symbol>
<symbol id="Trinidad-und-Tobago" viewBox="0 0 32 32">
<path fill="#f0f0f0" style="fill: var(--color4, #f0f0f0)" d="M8.664 1.777c-1.432 0.739-2.777 1.708-3.978 2.909s-2.17 2.545-2.909 3.978l10.288 11.272 11.272 10.288c1.432-0.739 2.777-1.708 3.978-2.909s2.17-2.545 2.909-3.978l-10.288-11.272-11.272-10.288z"></path>
<path fill="#000" style="fill: var(--color9, #000)" d="M27.314 27.314c0.671-0.671 1.27-1.387 1.797-2.139l-22.287-22.287c-0.751 0.527-1.467 1.126-2.139 1.797s-1.27 1.387-1.797 2.139l22.287 22.287c0.751-0.527 1.467-1.125 2.139-1.797z"></path>
<path fill="#d80027" style="fill: var(--color8, #d80027)" d="M4.686 27.314c5.048 5.048 12.629 6.017 18.651 2.909l-21.56-21.56c-3.108 6.022-2.139 13.603 2.909 18.651z"></path>
<path fill="#d80027" style="fill: var(--color8, #d80027)" d="M27.314 4.686c-5.048-5.048-12.629-6.017-18.651-2.909l21.56 21.56c3.108-6.022 2.139-13.603-2.909-18.651z"></path>
</symbol>
<symbol id="Tschechien" viewBox="0 0 32 32">
<path fill="#f0f0f0" style="fill: var(--color4, #f0f0f0)" d="M32 16c0 8.837-7.163 16-16 16s-16-7.163-16-16c0-8.837 7.163-16 16-16s16 7.163 16 16z"></path>
<path fill="#d80027" style="fill: var(--color8, #d80027)" d="M14.609 16c0 0-9.913 11.316-9.922 11.314 2.895 2.895 6.895 4.686 11.314 4.686 8.837 0 16-7.163 16-16h-17.391z"></path>
<path fill="#0052b4" style="fill: var(--color7, #0052b4)" d="M4.686 4.686c-6.248 6.248-6.248 16.379 0 22.628 2.582-2.582 5.065-5.065 11.314-11.314l-11.314-11.314z"></path>
</symbol>
<symbol id="Türkei" viewBox="0 0 32 32">
<path fill="#d80027" style="fill: var(--color8, #d80027)" d="M32 16c0 8.837-7.163 16-16 16s-16-7.163-16-16c0-8.837 7.163-16 16-16s16 7.163 16 16z"></path>
<path fill="#f0f0f0" style="fill: var(--color4, #f0f0f0)" d="M15.345 13.074l1.313 1.809 2.126-0.689-1.315 1.808 1.313 1.809-2.125-0.692-1.315 1.808 0.001-2.235-2.125-0.692 2.126-0.689z"></path>
<path fill="#f0f0f0" style="fill: var(--color4, #f0f0f0)" d="M11.762 20.522c-2.497 0-4.522-2.024-4.522-4.522s2.025-4.522 4.522-4.522c0.779 0 1.511 0.197 2.151 0.543-1.003-0.981-2.376-1.587-3.89-1.587-3.074 0-5.565 2.492-5.565 5.565s2.492 5.565 5.565 5.565c1.514 0 2.887-0.606 3.89-1.587-0.64 0.347-1.372 0.544-2.151 0.544z"></path>
</symbol>
<symbol id="Ungarn" viewBox="0 0 32 32">
<path fill="#f0f0f0" style="fill: var(--color4, #f0f0f0)" d="M0.995 10.435c-0.643 1.733-0.995 3.608-0.995 5.565s0.352 3.832 0.995 5.565l15.005 1.391 15.005-1.391c0.643-1.733 0.995-3.608 0.995-5.565s-0.352-3.832-0.995-5.565l-15.005-1.391-15.005 1.391z"></path>
<path fill="#d80027" style="fill: var(--color8, #d80027)" d="M16 0c-6.879 0-12.744 4.342-15.005 10.435h30.010c-2.261-6.093-8.125-10.435-15.005-10.435z"></path>
<path fill="#6da544" style="fill: var(--color10, #6da544)" d="M16 32c6.88 0 12.744-4.342 15.005-10.435h-30.010c2.261 6.093 8.125 10.435 15.005 10.435z"></path>
</symbol>
<symbol id="Uruguay" viewBox="0 0 32 32">
<path fill="#f0f0f0" style="fill: var(--color4, #f0f0f0)" d="M32 16c0 8.837-7.163 16-16 16s-16-7.163-16-16c0-8.837 7.163-16 16-16s16 7.163 16 16z"></path>
<path fill="#338af3" style="fill: var(--color5, #338af3)" d="M6.040 28.522h19.92c1.46-1.163 2.712-2.576 3.692-4.174h-27.303c0.979 1.598 2.232 3.011 3.692 4.174z"></path>
<path fill="#338af3" style="fill: var(--color5, #338af3)" d="M16 0c0 1.391 0 3.478 0 3.478h9.96c-2.733-2.177-6.194-3.478-9.96-3.478z"></path>
<path fill="#338af3" style="fill: var(--color5, #338af3)" d="M16 11.826h15.449c-0.401-1.488-1.011-2.891-1.797-4.174h-13.652v4.174z"></path>
<path fill="#338af3" style="fill: var(--color5, #338af3)" d="M0 16c0 1.444 0.193 2.843 0.551 4.174h30.898c0.359-1.331 0.551-2.73 0.551-4.174h-32z"></path>
<path fill="#ffda44" style="fill: var(--color6, #ffda44)" d="M13.913 9.364l-1.954 0.919 1.041 1.893-2.122-0.406-0.269 2.143-1.478-1.576-1.478 1.576-0.269-2.143-2.122 0.406 1.040-1.892-1.954-0.919 1.954-0.919-1.041-1.893 2.122 0.406 0.269-2.143 1.478 1.577 1.478-1.577 0.269 2.143 2.122-0.406-1.041 1.893z"></path>
</symbol>
<symbol id="Vietnam" viewBox="0 0 32 32">
<path fill="#d80027" style="fill: var(--color8, #d80027)" d="M32 16c0 8.837-7.163 16-16 16s-16-7.163-16-16c0-8.837 7.163-16 16-16s16 7.163 16 16z"></path>
<path fill="#ffda44" style="fill: var(--color6, #ffda44)" d="M16 8.348l1.727 5.314h5.588l-4.521 3.284 1.727 5.314-4.521-3.284-4.521 3.284 1.727-5.314-4.521-3.284h5.588z"></path>
</symbol>
<symbol id="Zypern" viewBox="0 0 32 32">
<path fill="#fcfcfc" style="fill: var(--color19, #fcfcfc)" d="M32 16c0 8.837-7.163 16-16 16s-16-7.163-16-16c0-8.837 7.163-16 16-16s16 7.163 16 16z"></path>
<path fill="#6da544" style="fill: var(--color10, #6da544)" d="M25.044 13.913c-0.487 0-1.090 0-2.087 0 0 3.842-3.115 6.957-6.957 6.957s-6.957-3.114-6.957-6.957c-0.672 0-1.415 0-2.087 0 0 4.138 2.78 7.628 6.574 8.702-0.416 0.79-0.353 1.785 0.242 2.527 0.78-0.626 1.589-1.273 2.274-1.822 0.686 0.549 1.494 1.197 2.274 1.822 0.6-0.749 0.659-1.756 0.229-2.551 3.753-1.101 6.494-4.569 6.494-8.678z"></path>
<path fill="#ffda44" style="fill: var(--color6, #ffda44)" d="M10.435 13.217c0 0 0 3.478 3.478 3.478l0.696 0.696h1.391c0 0 0.696-2.087 2.087-2.087 0 0 0-1.391 1.391-1.391s2.087 0 2.087 0-0.696-2.783 2.783-4.87l-1.391-0.696c0 0-4.87 3.478-8.348 2.783v1.391h-1.391l-0.696-0.696-2.087 1.391z"></path>
</symbol>
</defs>
</svg>
