<svg xmlns="http://www.w3.org/2000/svg" xml:space="preserve" id="info" x="0" y="0" style="enable-background:new 0 0 45 45" version="1.1" viewBox="0 0 45 45"><style>.st0{fill:#092a5e}</style><path id="Pfad_9" d="M22.5 0C10.1 0 0 10.1 0 22.5S10.1 45 22.5 45 45 34.9 45 22.5 34.9 0 22.5 0zm0 41.9c-10.7 0-19.4-8.7-19.4-19.4S11.8 3.1 22.5 3.1s19.4 8.7 19.4 19.4c-.1 10.7-8.7 19.3-19.4 19.4z" class="st0"/><path id="Pfad_10" d="M22.6 16.7c-1 0-1.7.5-1.7 1.2v15.4c0 .6.7 1.2 1.7 1.2s1.7-.6 1.7-1.2V17.9c.1-.7-.7-1.2-1.7-1.2z" class="st0"/><path id="Pfad_11" d="M22.4 10.1c-.9.1-1.6 1-1.5 1.9.1.9 1 1.6 1.9 1.5.9-.1 1.5-.8 1.5-1.7 0-1-.9-1.7-1.9-1.7z" class="st0"/></svg>