<svg width="119" height="54" viewBox="0 0 119 54" fill="none" xmlns="http://www.w3.org/2000/svg">
<path d="M7.27207 22.8071L3.33907 23.1001C0.129067 23.3321 6.69873e-05 20.5551 6.69873e-05 19.0271C-0.00993301 15.9571 1.10007 14.8611 3.07207 14.8611H18.5441C20.0721 14.8611 21.2041 15.3751 21.6511 17.5681C22.1441 20.0231 21.9581 21.7341 19.2511 21.9271L14.3901 22.2821C17.9721 45.4341 38.8581 52.9821 50.2341 28.0341C52.1201 23.9111 52.7161 23.1571 54.7941 23.6801C57.5871 24.3931 57.9691 25.8801 56.6291 30.0241C51.8591 44.9591 41.6121 53.3671 31.5911 53.3671C20.9741 53.3671 10.6071 43.9321 7.27207 22.8071ZM97.9641 46.2301C97.04 45.9291 96.1929 45.4298 95.4821 44.7671C94.8359 44.1407 94.3469 43.3704 94.0551 42.5191C93.7452 41.6118 93.5914 40.6587 93.6001 39.7001V27.1001C93.5879 26.9067 93.6085 26.7126 93.6611 26.5261C93.7141 26.3973 93.8042 26.2873 93.9201 26.2101C94.5141 25.9449 95.1664 25.8374 95.8141 25.8981C96.4529 25.8341 97.0971 25.9422 97.6801 26.2111C97.7953 26.3267 97.8829 26.467 97.9364 26.6212C97.9899 26.7755 98.0079 26.9399 97.9891 27.1021V39.6391C97.9813 40.0999 98.0489 40.559 98.1891 40.9981C98.3182 41.3967 98.5391 41.7594 98.8341 42.0571C99.1498 42.3664 99.5332 42.5979 99.9541 42.7331C100.49 42.9053 101.051 42.9858 101.613 42.9711C102.397 43.0085 103.177 42.8329 103.869 42.4631C104.387 42.1852 104.782 41.723 104.975 41.1681C105.142 40.6775 105.228 40.1632 105.23 39.6451V27.1001C105.229 26.9043 105.263 26.71 105.33 26.5261C105.382 26.3974 105.472 26.2873 105.587 26.2101C106.183 25.9449 106.837 25.8374 107.487 25.8981C108.125 25.8341 108.769 25.9422 109.351 26.2111C109.466 26.3266 109.554 26.4668 109.607 26.6212C109.66 26.7756 109.678 26.94 109.658 27.1021V39.7001C109.668 40.6604 109.514 41.6153 109.203 42.5241C108.902 43.3709 108.406 44.1349 107.754 44.7541C107.045 45.4228 106.199 45.9286 105.274 46.2361L105.264 46.2301C102.887 46.9488 100.35 46.9488 97.9721 46.2301H97.9641ZM114.701 46.1401C114.589 46.0249 114.503 45.8865 114.45 45.7346C114.397 45.5828 114.378 45.4211 114.394 45.2611V27.1001C114.381 26.9103 114.403 26.7198 114.459 26.5381C114.514 26.4128 114.601 26.3044 114.712 26.2241C115.306 25.95 115.962 25.8409 116.612 25.9081C117.251 25.8375 117.898 25.9469 118.478 26.2241C118.589 26.3044 118.676 26.4128 118.731 26.5381C118.792 26.7193 118.819 26.9101 118.81 27.1011V45.2501C118.819 45.4384 118.792 45.6267 118.731 45.8051C118.674 45.9333 118.587 46.0463 118.478 46.1351C117.896 46.4164 117.246 46.526 116.604 46.4511C115.953 46.5252 115.294 46.4179 114.7 46.1411L114.701 46.1401ZM79.8641 46.1321C79.7418 46.0207 79.6479 45.8818 79.5904 45.7268C79.5328 45.5717 79.5131 45.4052 79.5331 45.2411V29.7581H74.6161C74.3146 29.7835 74.0116 29.7326 73.7351 29.6101C73.6167 29.541 73.5291 29.4294 73.4901 29.2981C73.4359 29.1142 73.4073 28.9237 73.4051 28.7321C73.4057 28.3096 73.4428 27.8881 73.5161 27.4721C73.5648 27.1332 73.6685 26.8046 73.8231 26.4991C73.8726 26.3975 73.9426 26.3072 74.0286 26.2339C74.1146 26.1606 74.2149 26.1058 74.3231 26.0731C74.5808 26.0016 74.8476 25.968 75.1151 25.9731H88.8591C89.053 25.9681 89.2471 25.9798 89.4391 26.0081C89.5473 26.026 89.6514 26.0637 89.7461 26.1191C89.8596 26.1928 89.9427 26.305 89.9801 26.4351C90.0266 26.6128 90.0471 26.7964 90.0411 26.9801C90.0315 27.3626 89.9944 27.7439 89.9301 28.1211C89.8847 28.5061 89.7812 28.882 89.6231 29.2361C89.5774 29.3341 89.5122 29.4219 89.4316 29.4941C89.351 29.5663 89.2566 29.6214 89.1541 29.6561C88.8938 29.7286 88.6242 29.7622 88.3541 29.7561H83.9431V45.2501C83.95 45.4381 83.924 45.626 83.8661 45.8051C83.8151 45.9343 83.7313 46.048 83.6231 46.1351V46.1411C83.0431 46.411 82.3996 46.5149 81.7641 46.4411C81.1148 46.5137 80.4581 46.4072 79.8651 46.1331L79.8641 46.1321ZM53.5631 5.88506C53.5428 5.11918 53.6762 4.35701 53.9553 3.64352C54.2344 2.93003 54.6536 2.27967 55.1882 1.73082C55.7227 1.18197 56.3618 0.74575 57.0677 0.447894C57.7735 0.150038 58.5319 -0.00341797 59.2981 -0.00341797C60.0642 -0.00341797 60.8226 0.150038 61.5285 0.447894C62.2343 0.74575 62.8734 1.18197 63.4079 1.73082C63.9425 2.27967 64.3617 2.93003 64.6408 3.64352C64.9199 4.35701 65.0533 5.11918 65.0331 5.88506C65.0533 6.65093 64.9199 7.4131 64.6408 8.12659C64.3617 8.84008 63.9425 9.49044 63.4079 10.0393C62.8734 10.5881 62.2343 11.0244 61.5285 11.3222C60.8226 11.6201 60.0642 11.7735 59.2981 11.7735C58.5319 11.7735 57.7735 11.6201 57.0677 11.3222C56.3618 11.0244 55.7227 10.5881 55.1882 10.0393C54.6536 9.49044 54.2344 8.84008 53.9553 8.12659C53.6762 7.4131 53.5428 6.65093 53.5631 5.88506Z" fill="white"/>
</svg>
