<svg xmlns="http://www.w3.org/2000/svg" width="71.355" height="31.25" viewBox="0 0 71.355 31.25">
  <g id="tuilogo-tile-white" transform="translate(-10.506 -10.387)">
    <path id="Path_256" data-name="Path 256" d="M324.358,150.9a.536.536,0,0,0,.152-.2.852.852,0,0,0,.048-.326V139.744a.888.888,0,0,0-.048-.331.463.463,0,0,0-.152-.191,2.084,2.084,0,0,0-1.12-.191,2.136,2.136,0,0,0-1.139.191.461.461,0,0,0-.152.191.883.883,0,0,0-.048.331v10.634a.638.638,0,0,0,.2.521,2.135,2.135,0,0,0,1.139.191A2.083,2.083,0,0,0,324.358,150.9Zm-7.933.061a4.051,4.051,0,0,0,1.5-.869,3.354,3.354,0,0,0,.86-1.316,4.852,4.852,0,0,0,.274-1.655v-7.376a.622.622,0,0,0-.191-.521,3.435,3.435,0,0,0-2.259,0,.412.412,0,0,0-.156.191.965.965,0,0,0-.043.331v7.342a2.808,2.808,0,0,1-.152.891,1.4,1.4,0,0,1-.665.756,2.671,2.671,0,0,1-1.355.3,3.135,3.135,0,0,1-.995-.139,1.729,1.729,0,0,1-.673-.4,1.542,1.542,0,0,1-.382-.617,2.471,2.471,0,0,1-.122-.8v-7.342a.623.623,0,0,0-.191-.521,3.435,3.435,0,0,0-2.259,0,.412.412,0,0,0-.156.191.963.963,0,0,0-.044.331v7.376a4.854,4.854,0,0,0,.274,1.655,3.355,3.355,0,0,0,.86,1.316,4.051,4.051,0,0,0,1.5.869A7.821,7.821,0,0,0,316.425,150.96Zm-13-.061a.493.493,0,0,0,.147-.2.926.926,0,0,0,.044-.326v-9.071h2.65a1.655,1.655,0,0,0,.478-.057.487.487,0,0,0,.287-.248,2.182,2.182,0,0,0,.187-.652,4.551,4.551,0,0,0,.065-.669,1.108,1.108,0,0,0-.035-.317.334.334,0,0,0-.139-.178.549.549,0,0,0-.191-.065,2.112,2.112,0,0,0-.347-.022h-8.254a1.661,1.661,0,0,0-.478.056.488.488,0,0,0-.287.248,1.874,1.874,0,0,0-.187.573,4.1,4.1,0,0,0-.065.739,1.139,1.139,0,0,0,.035.326.324.324,0,0,0,.147.178,1.1,1.1,0,0,0,.53.087h2.954v9.071a.608.608,0,0,0,.2.521,3.435,3.435,0,0,0,2.26,0Z" transform="translate(-242.698 -113.496)" fill="#d40e14"/>
    <path id="Path_257" data-name="Path 257" d="M59.06,103.954h9.285a1.676,1.676,0,0,1,1.867,1.581c.3,1.438.177,2.438-1.441,2.553l-2.915.208c2.145,13.558,14.69,17.977,21.521,3.375,1.131-2.417,1.5-2.857,2.739-2.549,1.679.416,1.908,1.28,1.109,3.716-5.906,18-25.754,19.805-29.648-4.234l-2.368.171c-1.927.138-2-1.488-2-2.392C57.2,104.595,57.868,103.954,59.06,103.954Z" transform="translate(-46.698 -84.861)" fill="#d40e14"/>
    <circle id="Ellipse_20" data-name="Ellipse 20" cx="3.446" cy="3.446" r="3.446" transform="translate(42.677 10.387)" fill="#d40e14"/>
  </g>
</svg>
