<svg width="14" height="14" fill="none" xmlns="http://www.w3.org/2000/svg"><g clip-path="url(#a)"><path d="M7 14A7 7 0 107 0a7 7 0 000 14z" fill="#F0F0F0"/><path d="M7 0a6.994 6.994 0 00-5.905 3.24l9.493 9.771A7 7 0 007 0z" fill="#FFDA44"/><path d="M14 7c0-1.816-.692-3.47-1.826-4.715v9.43A6.975 6.975 0 0014 7zM8.744 13.176h.733l.227-.698.227.697h.367c.226-.12.444-.253.654-.397l-9.73-9.73c-.16.234-.307.478-.438.731l.086.266h.734l-.593.43.227.698-.594-.43L.29 5a7 7 0 009.04 8.602l-.586-.426zm-7.183-6.48l.226-.698-.593-.43h.733l.226-.698.227.697h.734l-.593.43.227.698-.594-.43-.593.43zm1.51 1.521l.226-.697-.593-.43.733-.001.226-.698.227.698.734-.001-.593.431.227.698-.594-.431-.593.431zm1.51 1.522l.227-.697-.594-.431h.733l.226-.698.228.697h.733l-.593.431.227.697-.594-.43-.593.431zm2.103 1.09l-.593.432.227-.698-.594-.43h.733l.227-.698.227.697h.733l-.593.43.227.698-.594-.43zm.917 1.954l.227-.698-.594-.43.733-.001.227-.697.227.697h.733l-.593.43.227.698-.594-.43-.593.43z" fill="#0052B4"/></g><defs><clipPath id="a"><path fill="#fff" d="M0 0H14V14H0z"/></clipPath></defs></svg>