<svg width="14" height="14" fill="none" xmlns="http://www.w3.org/2000/svg"><g clip-path="url(#a)"><path d="M9.435.435A6.985 6.985 0 007 0c-.856 0-1.676.154-2.435.435L3.957 7l.608 6.565A6.984 6.984 0 007 14c.856 0 1.676-.154 2.435-.435L10.043 7 9.435.435z" fill="#FFDA44"/><path d="M14 7c0-3.01-1.9-5.576-4.565-6.565v13.13A7.003 7.003 0 0014 7z" fill="#D80027"/><path d="M0 7c0 3.01 1.9 5.576 4.565 6.565V.435A7.002 7.002 0 000 7z" fill="#000"/></g><defs><clipPath id="a"><path fill="#fff" d="M0 0H14V14H0z"/></clipPath></defs></svg>