<svg width="14" height="14" fill="none" xmlns="http://www.w3.org/2000/svg"><g clip-path="url(#a)"><path d="M14 7c0-.856-.154-1.676-.435-2.435L7 4.261l-6.565.304A6.985 6.985 0 000 7c0 .856.154 1.676.435 2.435L7 9.739l6.565-.304A6.984 6.984 0 0014 7z" fill="#F0F0F0"/><path d="M7 14c3.01 0 5.576-1.9 6.565-4.565H.435A7.002 7.002 0 007 14z" fill="#0052B4"/><path d="M.435 4.565h13.13a7.003 7.003 0 00-13.13 0z" fill="#D80027"/><path d="M8.826 4.87H7.61l.203-1.522.811-.609.812.609v1.217l-.609.305zM5.174 4.87H6.39l-.203-1.522-.811-.609-.812.609v1.217l.609.305z" fill="#338AF3"/><path d="M7.812 4.87H6.188V3.348L7 2.739l.812.609V4.87z" fill="#0052B4"/><path d="M4.565 4.565v3.348c0 .797.385 1.506.98 1.95l.425-.106.538.54a2.433 2.433 0 00.982.001l.613-.51.353.075a2.432 2.432 0 00.979-1.95V4.565h-4.87z" fill="#F0F0F0"/><path d="M5.54 4.565h-.975v.974h.974v-.974zM7.487 4.565h-.974v.974h.974v-.974zM9.435 4.565H8.46v.974h.974v-.974z" fill="#D80027"/><path d="M6.513 5.54h-.974v.973h.974v-.974zM8.46 5.54h-.973v.973h.974v-.974zM5.54 6.513h-.975v.974h.974v-.974zM6.513 7.487h-.974v.974h.974v-.974zM7.487 6.513h-.974v.974h.974v-.974zM9.435 6.513H8.46v.974h.974v-.974zM8.46 7.487h-.973v.974h.974v-.974zM7.487 8.46h-.974v.974h.974v-.973z" fill="#D80027"/><path d="M5.54 8.46h-.912c.084.363.248.694.473.975h.438V8.46zM8.46 9.435H8.9c.225-.281.39-.612.473-.974H8.46v.974zM5.54 9.435v.425c.282.213.613.366.973.439v-.864h-.974zM7.487 9.435v.864c.36-.073.69-.226.974-.44v-.424h-.974z" fill="#D80027"/></g><defs><clipPath id="a"><path fill="#fff" d="M0 0H14V14H0z"/></clipPath></defs></svg>