<svg width="14" height="14" fill="none" xmlns="http://www.w3.org/2000/svg"><g clip-path="url(#a)"><path d="M14 7c0-.856-.154-1.676-.435-2.435L7 4.261l-6.565.304A6.985 6.985 0 000 7c0 .856.154 1.676.435 2.435L7 9.739l6.565-.304A6.984 6.984 0 0014 7z" fill="#496E2D"/><path d="M7 14c3.01 0 5.576-1.9 6.565-4.565H.435A7.002 7.002 0 007 14z" fill="#D80027"/><path d="M.435 4.565h13.13a7.003 7.003 0 00-13.13 0z" fill="#F0F0F0"/></g><defs><clipPath id="a"><path fill="#fff" d="M0 0H14V14H0z"/></clipPath></defs></svg>