<svg width="14" height="14" fill="none" xmlns="http://www.w3.org/2000/svg"><g clip-path="url(#a)"><path d="M7 14A7 7 0 107 0a7 7 0 000 14z" fill="#F0F0F0"/><path d="M7 0C3.99 0 1.424 1.9.435 4.565h13.13A7.003 7.003 0 007 0z" fill="#D80027"/><path d="M7 14c3.01 0 5.576-1.9 6.565-4.565H.435A7.002 7.002 0 007 14z" fill="#000"/><path d="M9.435 6.24H7.609a.609.609 0 00-1.218 0H4.565c0 .335.293.608.63.608h-.021c0 .336.272.609.609.609 0 .336.272.608.608.608H7.61a.609.609 0 00.608-.608.609.609 0 00.61-.61h-.021c.336 0 .629-.272.629-.608z" fill="#FF9811"/></g><defs><clipPath id="a"><path fill="#fff" d="M0 0H14V14H0z"/></clipPath></defs></svg>