<svg width="12" height="12" fill="none" xmlns="http://www.w3.org/2000/svg"><path d="M6 12A6 6 0 106 0a6 6 0 000 12z" fill="#092A5E"/><path d="M5.892 9.392c-.183 0-.328-.01-.435-.032a.478.478 0 01-.226-.086c-.079-.065-.118-.172-.118-.322v-3.75c0-.214.04-.361.118-.44a.597.597 0 01.226-.113c.103-.035.204-.064.3-.086.301-.05.49-.075.564-.075.05 0 .099.006.145.016.05.011.09.027.118.049.058.05.086.175.086.376v4.023c0 .09-.009.157-.026.204a.31.31 0 01-.092.118c-.09.079-.31.118-.66.118zm0-5.532a.931.931 0 01-.634-.242.862.862 0 01-.188-.263.786.786 0 01.064-.763.806.806 0 01.355-.295.986.986 0 01.403-.097c.175 0 .333.045.472.134a.817.817 0 01.317.328.817.817 0 01.102.37.764.764 0 01-.156.468.844.844 0 01-.36.285c-.132.05-.257.075-.375.075z" fill="#fff"/></svg>