<svg width="14" height="14" fill="none" xmlns="http://www.w3.org/2000/svg"><g clip-path="url(#a)"><path d="M7 14A7 7 0 107 0a7 7 0 000 14z" fill="#D80027"/><path d="M11.137 5.745h-3.16L7 2.739l-.977 3.006h-3.16L5.42 7.602l-.977 3.006L7 8.75l2.557 1.858-.977-3.006 2.557-1.857zM6.135 7.37l.33-1.017h1.07l.33 1.017L7 7.998l-.865-.628zm1.202-1.625h-.674L7 4.709l.337 1.036zm1.045 1.248l-.208-.64h1.09l-.882.64zm-2.556-.64l-.208.64-.881-.64h1.089zM5.6 9.014l.337-1.036.544.396-.88.64zm1.917-.64l.544-.396.337 1.036-.881-.64z" fill="#FFDA44"/></g><defs><clipPath id="a"><path fill="#fff" d="M0 0H14V14H0z"/></clipPath></defs></svg>