<svg width="46" height="46" fill="none" xmlns="http://www.w3.org/2000/svg"><path d="M22.537.05c4.457 0 8.815 1.326 12.52 3.811a22.596 22.596 0 018.301 10.148 22.682 22.682 0 011.283 13.064 22.636 22.636 0 01-6.168 11.578 22.515 22.515 0 01-11.54 6.188 22.469 22.469 0 01-13.02-1.287 22.553 22.553 0 01-10.115-8.328A22.664 22.664 0 010 22.662 22.675 22.675 0 016.609 6.68 22.526 22.526 0 0122.537.05zm0 41.873c3.797 0 7.51-1.13 10.667-3.246a19.25 19.25 0 007.072-8.645 19.323 19.323 0 001.092-11.13 19.284 19.284 0 00-5.255-9.864 19.18 19.18 0 00-9.83-5.272 19.141 19.141 0 00-11.094 1.097 19.213 19.213 0 00-8.616 7.095A19.309 19.309 0 003.337 22.66a19.316 19.316 0 005.63 13.615 19.188 19.188 0 0013.57 5.648z" fill="#092A5E"/><path d="M22.537 34.805c-.443 0-.867-.177-1.18-.49a1.678 1.678 0 01-.489-1.185V18.474c0-.444.176-.87.489-1.184a1.666 1.666 0 012.723.543c.084.203.127.42.127.64V33.13a1.68 1.68 0 01-1.031 1.547c-.203.084-.42.128-.639.128zM22.537 14.286c-.443 0-.867-.176-1.18-.49a1.678 1.678 0 01-.489-1.184 1.87 1.87 0 01.47-1.268 1.858 1.858 0 011.199-.617 1.496 1.496 0 011.53.86c.088.19.136.397.14.606v.419a1.68 1.68 0 01-1.031 1.547c-.203.084-.42.127-.639.127z" fill="#092A5E"/></svg>