<svg width="14" height="14" fill="none" xmlns="http://www.w3.org/2000/svg"><mask id="a" style="mask-type:alpha" maskUnits="userSpaceOnUse" x="0" y="0" width="14" height="14"><circle cx="7" cy="7" r="7" fill="#D9D9D9"/></mask><g mask="url(#a)"><path d="M-4.667 0h22.4v14h-22.4V0z" fill="#74ACDF"/><path d="M-4.667 4.667h22.4v4.667h-22.4V4.667z" fill="#fff"/><path d="M6.445 7.037l.797 1.735s.013.034.035.024c.022-.009.009-.042.009-.042l-.664-1.79m-.02.675c-.009.264.153.409.132.645-.021.235.108.369.138.46.03.092-.032.147-.005.16.027.013.086-.06.067-.19-.02-.13-.119-.169-.095-.457.023-.288-.118-.355-.084-.617" fill="#F6B40E"/><path fill-rule="evenodd" clip-rule="evenodd" d="M7.3 8.749l-.664-1.791-.029.01.664 1.792a.048.048 0 01.003.013c0 .007-.001.008-.003.01-.001 0-.003 0-.008-.005a.046.046 0 01-.007-.011l-.49-1.068c0-.018.002-.037.005-.057l-.031-.004v.003l-.281-.61-.028.012.303.662a.656.656 0 00.044.239v.001c.028.085.056.171.045.311a.625.625 0 00.07.379.31.31 0 01.025.081c.01.063 0 .11-.014.14a.083.083 0 01-.022.03.023.023 0 01-.006.003.105.105 0 01.005-.018.184.184 0 00.006-.132.503.503 0 00-.038-.08l-.004-.006c-.015-.028-.032-.058-.047-.091a.535.535 0 01-.048-.277.694.694 0 00-.063-.318.804.804 0 01-.069-.328h-.03a.83.83 0 00.07.337v.001c.037.1.07.191.06.305a.566.566 0 00.052.292c.016.035.033.066.048.093l.004.007c.016.03.029.054.036.075a.154.154 0 01-.002.1.527.527 0 01-.01.034.037.037 0 000 .019.027.027 0 00.014.016c.015.007.03 0 .04-.008a.114.114 0 00.032-.04.275.275 0 00.017-.158.34.34 0 00-.04-.12.594.594 0 01-.054-.334.736.736 0 00-.047-.322v-.002a.776.776 0 01-.039-.154l.458.999.001.001a.088.088 0 00.011.018c.008.009.024.021.044.013.02-.009.023-.029.022-.04a.076.076 0 00-.005-.022z" fill="#85340A"/><path d="M6.438 7l.071 1.909s0 .035.024.035.024-.035.024-.035L6.63 7m-.276.617c-.11.24-.016.436-.125.646-.11.21-.042.382-.049.478-.007.097-.086.123-.066.146.02.022.102-.022.134-.15.032-.128-.044-.201.087-.459.132-.257.027-.373.16-.602" fill="#F6B40E"/><path fill-rule="evenodd" clip-rule="evenodd" d="M6.573 8.909l.072-1.908-.032-.002-.071 1.91a.062.062 0 01-.003.013c-.002.007-.004.007-.006.007-.001 0-.004 0-.006-.007a.045.045 0 01-.002-.013L6.48 7.733a.624.624 0 01.026-.05l-.027-.016a.475.475 0 00-.002.003L6.453 7l-.031.002.027.727a.655.655 0 00-.05.238v.001a.706.706 0 01-.079.304.625.625 0 00-.082.285l.001.062.001.03a.31.31 0 01-.008.085.245.245 0 01-.067.123.083.083 0 01-.031.02.023.023 0 01-.007 0 .104.104 0 01.008-.01l.004-.004a.184.184 0 00.056-.12.503.503 0 00-.005-.088l-.001-.008a1.23 1.23 0 01-.008-.102.535.535 0 01.06-.274c.057-.108.06-.213.065-.318a.804.804 0 01.061-.329L6.34 7.61a.83.83 0 00-.064.34.666.666 0 01-.061.306.566.566 0 00-.065.29c.002.037.006.072.009.103v.008c.005.034.007.06.006.083a.154.154 0 01-.04.092l-.008.01a.658.658 0 00-.015.017.037.037 0 00-.007.018c0 .007.002.014.007.02.011.012.028.012.04.009a.114.114 0 00.045-.026.275.275 0 00.076-.14.34.34 0 00.01-.093l-.002-.032a.594.594 0 01.078-.33c.067-.13.074-.226.081-.315v-.002a.776.776 0 01.023-.157l.042 1.098v.002a.08.08 0 00.004.02c.003.011.013.029.035.03.023 0 .032-.019.036-.03a.076.076 0 00.004-.022z" fill="#85340A"/><path d="M6.445 6.963L5.78 8.754s-.014.033.008.042c.022.01.036-.024.036-.024l.797-1.735M6.13 7.5c-.194.18-.182.397-.363.549-.182.151-.185.337-.228.423-.044.086-.127.08-.117.11.01.027.103.018.181-.088.079-.106.036-.203.256-.39s.168-.334.378-.496" fill="#F6B40E"/><path fill-rule="evenodd" clip-rule="evenodd" d="M5.84 8.779l.796-1.736-.028-.013-.797 1.736v.001a.057.057 0 01-.007.01c-.005.006-.007.006-.009.005-.001 0-.003-.002-.003-.01a.046.046 0 01.003-.012l.409-1.102a.62.62 0 01.043-.036l-.019-.025-.002.002.233-.63-.029-.011-.253.683a.655.655 0 00-.138.2c-.041.08-.082.161-.189.252a.625.625 0 00-.185.231l-.023.058-.01.028a.31.31 0 01-.04.076.245.245 0 01-.11.088.083.083 0 01-.036.006.023.023 0 01-.006-.002.107.107 0 01.011-.006c.002 0 .003-.002.005-.003l.012-.006a.185.185 0 00.086-.083.502.502 0 00.029-.084l.002-.007c.009-.03.018-.063.031-.097a.535.535 0 01.162-.23c.093-.079.137-.174.18-.27a.804.804 0 01.183-.28l-.02-.023a.83.83 0 00-.19.289v.001a.666.666 0 01-.173.259.566.566 0 00-.17.243c-.014.035-.024.07-.033.1l-.002.007a.477.477 0 01-.027.078.154.154 0 01-.072.07.626.626 0 01-.032.016.037.037 0 00-.013.014.027.027 0 000 .021c.005.016.02.022.033.024.015.002.032 0 .051-.007a.275.275 0 00.124-.1.34.34 0 00.044-.082l.011-.03.021-.055a.594.594 0 01.177-.22c.112-.095.155-.18.196-.261v-.002a.776.776 0 01.082-.136l-.382 1.03v.002a.074.074 0 00-.005.02c0 .012.002.032.022.04.02.01.036-.003.044-.012a.077.077 0 00.012-.019z" fill="#85340A"/><path d="M6.466 6.932l-1.3 1.4s-.025.026-.008.043c.017.017.043-.009.043-.009l1.4-1.298m-.631.24c-.248.093-.32.298-.546.369-.226.07-.3.241-.372.304-.074.063-.148.026-.15.056-.002.03.088.056.2-.011.114-.068.112-.174.387-.263.275-.088.283-.244.538-.313" fill="#F6B40E"/><path fill-rule="evenodd" clip-rule="evenodd" d="M5.211 8.378l1.4-1.299-.02-.023-1.401 1.3h-.001a.048.048 0 01-.01.007c-.007.003-.009.002-.01 0 0 0-.002-.002.001-.009a.046.046 0 01.008-.01l.799-.862a.624.624 0 01.054-.017l-.008-.03H6.02l.457-.492-.023-.021-.495.534a.656.656 0 00-.204.131l-.001.001a.706.706 0 01-.27.16.625.625 0 00-.303.188l-.02.022a.31.31 0 01-.066.054.244.244 0 01-.135.04.083.083 0 01-.036-.008.023.023 0 01-.005-.004.105.105 0 01.013-.002h.006l.013-.001c.03-.003.07-.01.11-.044a.503.503 0 00.06-.067l.005-.006c.02-.024.04-.05.066-.078a.535.535 0 01.237-.15.695.695 0 00.27-.18.804.804 0 01.276-.189l-.01-.03c-.127.048-.209.124-.286.195v.001a.666.666 0 01-.26.173.566.566 0 00-.25.16c-.026.027-.048.055-.067.079l-.005.006a.476.476 0 01-.056.062.153.153 0 01-.092.037.56.56 0 01-.036.003.037.037 0 00-.017.007.027.027 0 00-.01.02c0 .016.011.028.023.035.013.007.03.011.05.012.04.003.093-.009.152-.044a.34.34 0 00.072-.06l.022-.023a.594.594 0 01.288-.178.735.735 0 00.281-.166l.001-.001a.776.776 0 01.128-.095l-.747.806h-.001v.001a.08.08 0 00-.013.017c-.005.01-.01.03.005.046.016.016.035.01.046.005a.077.077 0 00.018-.013z" fill="#85340A"/><path d="M6.654 7.683c.013.254.156.366.128.597.062-.182-.087-.324-.079-.594m-.214-.665l.546 1.192-.458-1.229" fill="#85340A"/><path d="M6.383 7.678c-.085.239.005.397-.11.6.127-.145.044-.333.155-.58m.056-.696l.048 1.31.048-1.31" fill="#85340A"/><path d="M6.135 7.569c-.17.188-.148.369-.331.512.173-.085.167-.29.364-.476m.32-.621L6.03 8.212l.546-1.192" fill="#85340A"/><path d="M5.948 7.373c-.23.109-.278.285-.502.347.192-.013.266-.205.518-.3m.533-.453l-.893.96.96-.892" fill="#85340A"/><path d="M6.497 6.912l-1.736.796s-.033.014-.024.036c.009.022.042.009.042.009l1.79-.664m-.674-.02c-.264-.01-.41.153-.645.132-.236-.021-.37.108-.461.138-.092.03-.147-.032-.16-.005-.013.027.06.086.19.066.13-.019.17-.118.457-.094.288.023.355-.118.618-.084" fill="#F6B40E"/><path fill-rule="evenodd" clip-rule="evenodd" d="M4.785 7.767l1.79-.664-.01-.029-1.792.664a.043.043 0 01-.013.003c-.007 0-.008-.001-.009-.003 0-.001 0-.003.005-.008a.046.046 0 01.01-.007h.001l1.068-.49c.018 0 .037.002.057.005l.004-.031h-.004l.611-.281-.013-.029-.662.304a.655.655 0 00-.239.044c-.086.028-.172.056-.312.045a.625.625 0 00-.294.033c-.02.007-.04.016-.057.024-.01.005-.018.01-.027.013a.31.31 0 01-.082.025c-.063.01-.11 0-.14-.015a.083.083 0 01-.03-.021.023.023 0 01-.003-.006l.013.003.005.002a.185.185 0 00.132.006.502.502 0 00.08-.038l.007-.004c.027-.015.057-.032.09-.047a.535.535 0 01.277-.049c.122.011.22-.025.318-.062a.804.804 0 01.328-.069l.001-.031a.83.83 0 00-.338.07.666.666 0 01-.306.061.566.566 0 00-.292.052c-.035.015-.066.032-.093.048-.003 0-.005.002-.007.003a.477.477 0 01-.075.036.154.154 0 01-.1-.001.51.51 0 01-.012-.004l-.006-.002a.131.131 0 00-.016-.005.037.037 0 00-.018 0 .027.027 0 00-.017.015c-.007.015 0 .03.008.04a.114.114 0 00.04.031c.037.018.09.028.158.018a.34.34 0 00.09-.028l.03-.013a.594.594 0 01.334-.054.735.735 0 00.323-.046h.001a.776.776 0 01.154-.04l-.998.46h-.002a.074.074 0 00-.018.011c-.009.008-.021.024-.013.044.009.02.029.023.04.022a.077.077 0 00.021-.004h.001z" fill="#85340A"/><path d="M6.533 6.904l-1.908.072s-.036 0-.036.024.036.024.036.024l1.908.072m-.616-.276c-.24-.11-.437-.016-.647-.126-.21-.11-.382-.04-.478-.048-.096-.007-.123-.086-.145-.066-.023.02.022.102.15.134.127.032.2-.044.458.087.257.132.373.027.602.16" fill="#F6B40E"/><path fill-rule="evenodd" clip-rule="evenodd" d="M4.624 7.04l1.909.071v-.03l-1.908-.073h-.001a.061.061 0 01-.012-.002c-.007-.002-.008-.004-.008-.006s0-.004.008-.006a.046.046 0 01.013-.002l1.174-.044a.623.623 0 01.05.026l.016-.027-.003-.002.672-.025-.001-.031-.728.027a.656.656 0 00-.237-.051h-.002c-.089-.007-.179-.014-.304-.078a.625.625 0 00-.285-.082l-.061.001-.03.001A.31.31 0 014.8 6.7a.245.245 0 01-.123-.067.083.083 0 01-.02-.032.023.023 0 010-.006.104.104 0 01.01.008l.004.004a.185.185 0 00.12.056.503.503 0 00.096-.006c.031-.004.065-.008.102-.009a.535.535 0 01.274.061c.108.057.213.06.318.065a.804.804 0 01.33.06l.012-.027c-.123-.057-.234-.06-.339-.064h-.001a.666.666 0 01-.305-.061.566.566 0 00-.29-.065 1.256 1.256 0 00-.104.009h-.008a.476.476 0 01-.083.005.154.154 0 01-.091-.04l-.01-.008-.005-.004a.133.133 0 00-.013-.01.037.037 0 00-.017-.007.027.027 0 00-.02.007c-.013.01-.013.027-.01.04.004.015.013.03.027.045.026.03.072.06.139.076a.34.34 0 00.125.008c.02 0 .038-.002.059-.001a.594.594 0 01.27.079c.131.067.227.074.317.081h.001a.776.776 0 01.157.023l-1.098.042h-.002a.08.08 0 00-.02.003c-.011.004-.029.014-.029.036s.018.032.029.036a.077.077 0 00.02.004h.002z" fill="#85340A"/><path d="M6.57 6.912l-1.79-.664s-.034-.014-.043.008c-.01.022.024.036.024.036l1.736.797m-.464-.491c-.18-.194-.398-.182-.55-.364-.151-.181-.337-.184-.423-.228-.086-.043-.08-.126-.109-.116-.028.01-.019.103.087.181.106.079.203.036.39.256.188.22.335.168.496.378" fill="#F6B40E"/><path fill-rule="evenodd" clip-rule="evenodd" d="M4.755 6.306l1.735.797.013-.029-1.736-.796a.044.044 0 01-.011-.008c-.006-.004-.005-.007-.005-.008 0-.002.002-.003.01-.003a.046.046 0 01.011.003h.001l1.102.409a.618.618 0 01.037.043l.024-.019-.002-.002.63.233.011-.029-.682-.253a.655.655 0 00-.2-.138h-.001a.706.706 0 01-.252-.189.625.625 0 00-.289-.208l-.028-.01a.31.31 0 01-.076-.04.244.244 0 01-.088-.11.083.083 0 01-.006-.036l.002-.007a.103.103 0 01.009.017l.006.012a.185.185 0 00.083.085c.023.012.052.02.084.03l.007.002c.03.009.063.018.098.031a.535.535 0 01.23.161.695.695 0 00.269.182.804.804 0 01.28.182l.023-.021a.83.83 0 00-.289-.189h-.001a.666.666 0 01-.258-.174.566.566 0 00-.243-.17c-.036-.013-.07-.023-.1-.032l-.007-.002a.477.477 0 01-.079-.027.154.154 0 01-.07-.072.569.569 0 01-.016-.032.037.037 0 00-.013-.013.027.027 0 00-.022-.001c-.015.005-.022.02-.024.034a.114.114 0 00.008.05.275.275 0 00.099.125.34.34 0 00.083.044l.03.011a.594.594 0 01.274.198c.096.112.18.155.261.196h.002a.775.775 0 01.136.082l-1.03-.382h-.002a.075.075 0 00-.02-.005c-.012 0-.032.001-.04.022-.01.02.003.036.012.044a.077.077 0 00.02.012z" fill="#85340A"/><path d="M6.601 6.932l-1.4-1.298s-.026-.026-.043-.009c-.017.017.009.042.009.042l1.299 1.4m-.241-.63c-.092-.248-.298-.32-.368-.546-.071-.226-.242-.3-.305-.373-.062-.073-.026-.147-.055-.15-.03 0-.057.089.01.202.068.113.174.11.263.385.089.275.245.283.314.54" fill="#F6B40E"/><path fill-rule="evenodd" clip-rule="evenodd" d="M5.156 5.678l1.298 1.4.023-.02-1.299-1.401v-.001a.05.05 0 01-.008-.01c-.003-.007-.002-.009 0-.01 0-.001.002-.002.009 0a.046.046 0 01.01.008l.862.8a.62.62 0 01.017.054l.03-.008v-.003l.492.457.022-.023-.534-.495a.656.656 0 00-.132-.204V6.22c-.059-.068-.118-.137-.161-.27a.625.625 0 00-.188-.303l-.022-.02a.31.31 0 01-.054-.066.245.245 0 01-.04-.135c0-.017.005-.029.009-.036a.023.023 0 01.004-.005.105.105 0 01.002.018v.014c.003.03.01.07.045.11a.503.503 0 00.072.065c.024.02.051.04.078.066a.535.535 0 01.15.237c.037.116.108.193.18.27a.804.804 0 01.19.276l.028-.01c-.047-.127-.123-.21-.194-.286h-.001a.666.666 0 01-.173-.26.566.566 0 00-.159-.25 1.259 1.259 0 00-.08-.068l-.006-.004a.476.476 0 01-.062-.056.154.154 0 01-.036-.093l-.001-.012v-.007l-.003-.017a.037.037 0 00-.007-.016.027.027 0 00-.02-.01c-.016 0-.028.01-.034.023a.114.114 0 00-.013.05c-.002.04.009.093.044.152a.34.34 0 00.084.094l.042.04a.594.594 0 01.135.248c.045.14.108.212.166.28l.001.002c.034.04.067.078.095.127l-.805-.747H5.21a.085.085 0 00-.018-.013c-.01-.005-.03-.01-.046.005-.015.016-.01.035-.005.046a.076.076 0 00.012.017h.001v.001z" fill="#85340A"/><path d="M5.85 7.12c-.254.013-.366.157-.597.129.183.062.324-.087.594-.079m.665-.214l-1.192.546 1.23-.458" fill="#85340A"/><path d="M5.856 6.85c-.24-.085-.398.005-.6-.11.144.127.332.043.578.155m.697.056L5.22 7l1.31.048" fill="#85340A"/><path d="M5.965 6.602c-.189-.17-.37-.148-.513-.331.085.173.291.167.476.364m.622.319L5.32 6.497l1.192.546" fill="#85340A"/><path d="M6.16 6.415c-.108-.23-.284-.278-.347-.502.013.192.205.266.3.518m.453.533l-.96-.893.893.96" fill="#85340A"/><path d="M6.622 6.963l-.797-1.735s-.014-.034-.036-.024c-.022.009-.008.042-.008.042l.664 1.79m.019-.675c.01-.264-.153-.409-.132-.645.022-.235-.108-.369-.138-.46-.03-.092.033-.147.006-.16-.027-.013-.086.06-.067.19.02.13.118.169.095.457-.023.288.118.355.083.617" fill="#F6B40E"/><path fill-rule="evenodd" clip-rule="evenodd" d="M5.766 5.251l.664 1.791.03-.01-.665-1.792a.058.058 0 01-.003-.013c0-.007.002-.008.003-.01.002 0 .004 0 .009.005a.045.045 0 01.007.011l.49 1.068a.618.618 0 01-.005.057l.03.004.001-.003.28.61.029-.012-.304-.662a.656.656 0 00-.043-.239v-.001a.705.705 0 01-.046-.311.625.625 0 00-.057-.351l-.013-.028a.31.31 0 01-.025-.081c-.009-.063 0-.11.015-.14a.083.083 0 01.022-.03.023.023 0 01.006-.003.103.103 0 01-.004.012l-.002.006-.004.013a.184.184 0 00-.002.118.503.503 0 00.043.087c.015.028.031.058.046.091a.535.535 0 01.049.277.694.694 0 00.062.318.804.804 0 01.07.328h.03a.83.83 0 00-.07-.337v-.001a.666.666 0 01-.061-.305.566.566 0 00-.051-.292c-.016-.035-.033-.066-.048-.093a.477.477 0 01-.04-.082.154.154 0 01.002-.1.58.58 0 01.01-.034.037.037 0 000-.019.027.027 0 00-.015-.016c-.014-.007-.03 0-.04.008a.114.114 0 00-.031.04.275.275 0 00-.017.158.34.34 0 00.04.12l.024.053c.023.06.042.139.03.28a.736.736 0 00.046.323l.001.002c.016.05.032.097.039.154l-.459-.999V5.22a.088.088 0 00-.012-.018c-.007-.009-.023-.021-.044-.013-.02.009-.023.029-.022.04a.076.076 0 00.005.022z" fill="#85340A"/><path d="M6.63 7l-.073-1.909s0-.035-.024-.035-.024.035-.024.035L6.438 7m.276-.617c.11-.24.015-.436.125-.646.11-.21.041-.382.049-.478.007-.097.086-.123.066-.146-.02-.022-.102.022-.135.15-.032.128.045.201-.087.459-.131.257-.027.373-.159.602" fill="#F6B40E"/><path fill-rule="evenodd" clip-rule="evenodd" d="M6.494 5.091l-.072 1.908.031.002.072-1.91a.062.062 0 01.002-.013c.003-.007.005-.007.006-.007.002 0 .004 0 .007.007a.045.045 0 01.002.013l.044 1.175a.624.624 0 01-.026.05l.027.016.001-.003.026.672.03-.002-.027-.727a.655.655 0 00.051-.238v-.001a.705.705 0 01.078-.304.625.625 0 00.083-.285c0-.022 0-.042-.002-.062v-.03c-.001-.028 0-.055.008-.085a.245.245 0 01.067-.123.083.083 0 01.03-.02.023.023 0 01.008 0 .104.104 0 01-.008.01l-.004.004a.184.184 0 00-.056.12.503.503 0 00.005.088v.008c.004.031.008.065.01.102a.535.535 0 01-.062.274c-.056.108-.06.213-.064.318a.804.804 0 01-.061.329l.028.013a.83.83 0 00.064-.34.666.666 0 01.06-.306.566.566 0 00.065-.29c0-.037-.005-.072-.008-.103l-.001-.008a.477.477 0 01-.005-.083.154.154 0 01.04-.092l.008-.01a.658.658 0 00.015-.017.037.037 0 00.006-.018.027.027 0 00-.007-.02c-.01-.012-.027-.012-.04-.009a.114.114 0 00-.044.026.275.275 0 00-.077.14.34.34 0 00-.009.093l.001.032.002.059a.594.594 0 01-.08.27c-.066.131-.074.227-.08.316v.002a.776.776 0 01-.024.157L6.573 5.09v-.002a.08.08 0 00-.004-.02c-.004-.011-.013-.029-.036-.03-.022 0-.032.019-.035.03a.076.076 0 00-.004.02v.002z" fill="#85340A"/><path d="M6.622 7.037l.664-1.791s.014-.033-.008-.042c-.023-.01-.036.024-.036.024l-.797 1.735m.49-.464c.194-.18.182-.397.364-.549.182-.151.184-.337.228-.423.044-.086.127-.08.117-.11-.01-.027-.103-.018-.182.088-.078.106-.036.203-.256.39s-.167.334-.377.496" fill="#F6B40E"/><path fill-rule="evenodd" clip-rule="evenodd" d="M7.227 5.221l-.796 1.736.028.013.797-1.736v-.001a.049.049 0 01.007-.01c.005-.006.007-.006.009-.005.001 0 .003.002.002.01a.046.046 0 01-.003.012l-.408 1.102a.62.62 0 01-.044.036l.02.025.002-.002-.234.63.03.011.253-.683a.655.655 0 00.138-.2c.04-.08.081-.161.188-.252a.625.625 0 00.186-.231l.022-.058.01-.028a.31.31 0 01.04-.076.245.245 0 01.11-.088.083.083 0 01.036-.006c.004 0 .006.001.007.002a.107.107 0 01-.011.006l-.006.003-.012.006a.185.185 0 00-.085.083.502.502 0 00-.03.084c0 .002 0 .005-.002.007-.008.03-.018.063-.03.097a.535.535 0 01-.162.23c-.094.079-.137.174-.181.27a.804.804 0 01-.183.28l.022.023c.098-.092.145-.194.188-.289l.001-.001a.666.666 0 01.173-.259.566.566 0 00.17-.243c.014-.035.024-.07.032-.1l.002-.007a.477.477 0 01.028-.078.154.154 0 01.072-.07.626.626 0 01.031-.016.037.037 0 00.013-.014.027.027 0 00.001-.021c-.005-.016-.02-.022-.034-.024a.114.114 0 00-.05.007.275.275 0 00-.124.1.34.34 0 00-.044.082l-.012.03c-.006.018-.012.036-.02.055a.594.594 0 01-.178.22c-.111.095-.155.18-.195.261L7 6.146a.776.776 0 01-.082.136l.382-1.03V5.25l.001-.001a.08.08 0 00.004-.02c.001-.012 0-.032-.022-.04-.02-.01-.036.003-.043.012a.077.077 0 00-.012.018v.001z" fill="#85340A"/><path d="M6.601 7.068l1.299-1.4s.025-.026.008-.043c-.017-.017-.042.009-.042.009l-1.4 1.298m.63-.24c.248-.093.32-.298.546-.369.226-.07.3-.241.373-.304.073-.063.148-.026.15-.056.001-.03-.088-.056-.201.011-.113.068-.111.174-.386.263-.275.088-.283.244-.539.313" fill="#F6B40E"/><path fill-rule="evenodd" clip-rule="evenodd" d="M7.855 5.622l-1.4 1.299.021.023 1.4-1.3h.001a.048.048 0 01.01-.007c.007-.003.01-.002.01 0 .001 0 .003.002 0 .009a.046.046 0 01-.008.01l-.8.862a.624.624 0 01-.054.017l.008.03h.004l-.457.492.022.021.496-.534a.656.656 0 00.204-.131v-.001a.706.706 0 01.27-.16.625.625 0 00.324-.21.31.31 0 01.066-.054.244.244 0 01.134-.04c.017 0 .029.004.036.008a.023.023 0 01.006.004.105.105 0 01-.013.002h-.006l-.014.001a.184.184 0 00-.11.044.503.503 0 00-.06.067l-.004.006-.066.078a.535.535 0 01-.237.15.695.695 0 00-.27.18.804.804 0 01-.277.189l.011.03c.127-.048.208-.124.285-.195l.001-.001a.666.666 0 01.259-.173.566.566 0 00.25-.16c.027-.027.049-.055.068-.079l.005-.006a.476.476 0 01.055-.062.153.153 0 01.093-.037.56.56 0 01.036-.003.038.038 0 00.017-.007.027.027 0 00.01-.02c0-.016-.011-.028-.023-.035a.114.114 0 00-.05-.012.275.275 0 00-.152.044.34.34 0 00-.073.06l-.022.023a.594.594 0 01-.288.178.735.735 0 00-.28.166l-.002.001a.776.776 0 01-.127.095l.747-.806.001-.001a.075.075 0 00.012-.017c.005-.01.011-.03-.005-.046-.015-.016-.035-.01-.045-.005a.077.077 0 00-.018.013z" fill="#85340A"/><path d="M6.413 6.317c-.013-.254-.157-.366-.129-.597-.062.182.088.324.08.594m.214.665l-.546-1.192.457 1.229" fill="#85340A"/><path d="M6.683 6.322c.086-.239-.004-.397.11-.6-.127.145-.043.333-.154.58m-.057.696l-.048-1.31-.048 1.31" fill="#85340A"/><path d="M6.931 6.431c.17-.188.148-.369.332-.512-.173.085-.168.29-.365.476m-.319.621l.458-1.228L6.49 6.98" fill="#85340A"/><path d="M7.119 6.627c.229-.109.278-.285.502-.347-.193.013-.266.205-.519.3m-.532.453l.892-.96-.96.892" fill="#85340A"/><path d="M6.57 7.088l1.736-.796s.033-.014.024-.036c-.01-.022-.043-.009-.043-.009l-1.79.664m.675.02c.264.01.41-.153.645-.132.236.021.369-.108.46-.138.092-.03.147.032.16.005.013-.027-.06-.086-.19-.066-.13.019-.169.118-.456.094-.288-.023-.355.118-.618.084" fill="#F6B40E"/><path fill-rule="evenodd" clip-rule="evenodd" d="M8.282 6.233l-1.79.664.01.029 1.791-.664h.001a.047.047 0 01.012-.003c.008 0 .009.001.01.003 0 .001 0 .003-.005.008a.045.045 0 01-.01.007H8.3l-1.068.49a.621.621 0 01-.057-.005l-.004.031h.003l-.61.281.012.029.662-.304a.655.655 0 00.24-.044c.085-.028.171-.056.311-.045a.625.625 0 00.295-.033c.02-.007.039-.016.056-.024l.028-.013a.31.31 0 01.082-.025c.062-.01.11 0 .14.015a.083.083 0 01.03.021.023.023 0 01.003.006.105.105 0 01-.018-.005.185.185 0 00-.132-.006.503.503 0 00-.08.038l-.007.004c-.028.015-.057.032-.091.047a.535.535 0 01-.277.049c-.121-.011-.22.025-.318.062a.804.804 0 01-.327.069l-.002.031a.83.83 0 00.338-.07h.002a.666.666 0 01.305-.061.566.566 0 00.292-.052 1.792 1.792 0 00.1-.052.477.477 0 01.075-.035.154.154 0 01.1.001.51.51 0 01.011.004l.006.002a.131.131 0 00.017.005.037.037 0 00.018 0 .027.027 0 00.016-.015c.007-.015.001-.03-.007-.04a.114.114 0 00-.041-.031.275.275 0 00-.158-.018.34.34 0 00-.09.028l-.03.013a.594.594 0 01-.334.054.735.735 0 00-.322.046h-.002a.776.776 0 01-.153.04l.998-.46h.002a.074.074 0 00.017-.011c.01-.008.022-.024.013-.044-.008-.02-.028-.023-.04-.022a.077.077 0 00-.02.004h-.002z" fill="#85340A"/><path d="M6.533 7.096l1.909-.072s.036 0 .036-.024-.036-.024-.036-.024l-1.909-.072m.617.276c.24.11.436.016.646.126.21.11.382.04.479.048.096.007.123.086.145.066.022-.02-.022-.102-.15-.134-.128-.032-.201.044-.458-.087-.257-.132-.373-.027-.603-.16" fill="#F6B40E"/><path fill-rule="evenodd" clip-rule="evenodd" d="M8.442 6.96L6.534 6.89l-.001.03 1.909.073a.061.061 0 01.013.002c.007.002.007.004.007.006s0 .004-.007.006a.046.046 0 01-.013.002l-1.174.044a.623.623 0 01-.051-.026l-.016.027.003.002-.671.025v.031l.729-.027c.089.04.163.045.237.051H7.5c.09.007.18.014.305.078.13.067.215.081.284.082l.062-.001.03-.001a.31.31 0 01.085.008.245.245 0 01.124.067.083.083 0 01.019.032v.006a.103.103 0 01-.01-.008l-.004-.004a.185.185 0 00-.12-.056.503.503 0 00-.096.006c-.03.004-.065.008-.102.009a.535.535 0 01-.274-.061c-.108-.057-.213-.06-.317-.065h-.001a.804.804 0 01-.329-.06l-.012.027c.122.057.234.06.338.064h.002a.666.666 0 01.305.061.566.566 0 00.29.065c.038-.001.073-.005.104-.009h.008a.476.476 0 01.082-.005.154.154 0 01.092.04l.01.008.004.004a.133.133 0 00.014.01c.004.003.01.006.017.007a.027.027 0 00.02-.007c.012-.01.013-.027.009-.04a.114.114 0 00-.026-.045.275.275 0 00-.139-.076.34.34 0 00-.126-.008c-.019 0-.037.002-.058.001a.594.594 0 01-.271-.079c-.13-.067-.226-.074-.316-.081h-.002a.776.776 0 01-.157-.023l1.098-.042h.002a.08.08 0 00.02-.003c.012-.004.03-.014.03-.036s-.018-.032-.03-.036a.076.076 0 00-.02-.004h-.001z" fill="#85340A"/><path d="M6.497 7.088l1.79.664s.034.014.043-.008c.009-.022-.024-.036-.024-.036L6.57 6.911m.464.491c.18.194.397.182.549.364.152.181.338.184.424.228.086.043.08.126.108.116.029-.01.02-.102-.086-.181s-.204-.036-.39-.256c-.188-.22-.335-.168-.496-.378" fill="#F6B40E"/><path fill-rule="evenodd" clip-rule="evenodd" d="M8.312 7.694l-1.736-.797-.013.029 1.737.796a.044.044 0 01.011.008c.006.004.005.007.004.008 0 .002-.001.003-.009.003a.045.045 0 01-.012-.003l-1.102-.409a.618.618 0 01-.037-.043l-.025.019.002.002-.63-.233-.01.029.682.253c.067.071.133.105.2.138h.001c.08.041.16.082.251.189a.625.625 0 00.29.208l.028.01a.31.31 0 01.075.04c.051.038.078.079.089.11a.083.083 0 01.005.036.023.023 0 01-.001.007.103.103 0 01-.01-.017l-.005-.012a.185.185 0 00-.083-.085.504.504 0 00-.084-.03l-.008-.002c-.03-.009-.063-.018-.097-.031a.535.535 0 01-.23-.161.695.695 0 00-.269-.182.804.804 0 01-.28-.182l-.023.021a.83.83 0 00.288.189h.002a.666.666 0 01.258.174c.078.093.165.14.243.17.036.013.07.023.1.032l.007.002c.032.01.059.017.079.027.038.02.057.048.069.072a.569.569 0 01.017.032c.003.004.007.01.013.013a.027.027 0 00.022 0c.015-.004.021-.02.023-.033a.114.114 0 00-.007-.05.275.275 0 00-.1-.125.34.34 0 00-.112-.055L7.87 7.84a.594.594 0 01-.22-.177.735.735 0 00-.26-.196h-.002a.775.775 0 01-.136-.082l1.03.382h.002a.075.075 0 00.02.005c.012 0 .032-.001.04-.022.009-.02-.004-.036-.013-.044a.077.077 0 00-.019-.012z" fill="#85340A"/><path d="M6.466 7.068l1.4 1.298s.025.026.042.009-.008-.042-.008-.042L6.6 6.933m.24.63c.093.248.298.32.37.546.07.226.24.3.303.373.063.073.026.147.056.15.03 0 .057-.089-.01-.202-.068-.113-.175-.11-.263-.385-.09-.275-.245-.283-.314-.54" fill="#F6B40E"/><path fill-rule="evenodd" clip-rule="evenodd" d="M7.911 8.322l-1.299-1.4-.022.02 1.299 1.401v.001a.055.055 0 01.007.01c.004.007.002.009.001.01 0 .001-.003.002-.01-.001a.045.045 0 01-.01-.007l-.862-.8a.62.62 0 01-.017-.054l-.03.008.001.003-.493-.457-.021.023.534.495a.656.656 0 00.132.204v.001c.059.068.118.137.16.27a.625.625 0 00.188.303l.022.02c.02.02.039.04.055.066a.245.245 0 01.04.135.084.084 0 01-.009.036.023.023 0 01-.004.005.105.105 0 01-.002-.013v-.005l-.001-.014a.185.185 0 00-.044-.11.503.503 0 00-.072-.065c-.025-.02-.051-.04-.078-.066a.535.535 0 01-.151-.237c-.036-.116-.108-.193-.18-.27a.804.804 0 01-.189-.276l-.029.01c.047.127.123.21.195.286.073.078.14.15.173.26a.566.566 0 00.16.25c.027.026.055.048.08.068l.005.005c.027.02.048.038.062.055a.154.154 0 01.037.093v.012l.001.007.002.017a.037.037 0 00.008.016.027.027 0 00.02.01c.015 0 .027-.01.034-.023a.114.114 0 00.013-.05.275.275 0 00-.044-.152.34.34 0 00-.06-.072l-.024-.022-.042-.04a.594.594 0 01-.136-.248c-.045-.14-.107-.212-.166-.28v-.002a.776.776 0 01-.095-.127l.805.747a.086.086 0 01.005.004.077.077 0 00.014.009c.01.005.03.01.045-.005.016-.016.01-.035.005-.046a.076.076 0 00-.012-.017v-.001z" fill="#85340A"/><path d="M7.217 6.88c.253-.013.366-.157.597-.129-.183-.062-.325.087-.595.079m-.665.214l1.192-.546-1.228.458" fill="#85340A"/><path d="M7.211 7.15c.239.085.398-.005.6.11-.145-.127-.333-.043-.579-.155m-.696-.056L7.846 7l-1.31-.048" fill="#85340A"/><path d="M7.102 7.398c.188.17.37.148.513.331-.086-.173-.292-.167-.476-.364m-.622-.319l1.229.457-1.193-.546" fill="#85340A"/><path d="M6.906 7.585c.11.23.285.278.347.502-.012-.192-.205-.266-.3-.518M6.5 7.036l.96.893-.892-.96" fill="#85340A"/><path d="M6.533 7.778a.778.778 0 100-1.556.778.778 0 000 1.556z" fill="#F6B40E"/><path fill-rule="evenodd" clip-rule="evenodd" d="M6.533 6.243a.757.757 0 100 1.514.757.757 0 000-1.514zM5.734 7a.799.799 0 111.598 0 .799.799 0 01-1.598 0z" fill="#85340A"/><path d="M6.798 6.834a.154.154 0 00-.133.07c.06.054.192.06.281-.006a.205.205 0 00-.148-.064zm0 .012c.051-.001.1.023.106.046-.06.066-.155.06-.215.013a.126.126 0 01.109-.06z" fill="#843511"/><path d="M6.809 6.797c-.078 0-.096.018-.132.048-.036.03-.054.024-.06.03-.006.006 0 .023.012.017.012-.006.036-.017.072-.047s.072-.03.108-.03c.107 0 .167.09.179.083.012-.006-.06-.101-.18-.101z" fill="#85340A"/><path d="M7.024 6.833c-.138-.12-.311-.138-.407-.048a.235.235 0 00-.045.1c-.012.068.01.141.063.217a.045.045 0 00-.024.012.426.426 0 01-.049-.273.387.387 0 01.02-.068c.13-.108.31-.12.442.06z" fill="#85340A"/><path d="M6.797 6.946a.054.054 0 100-.108.054.054 0 000 .108z" fill="#85340A"/><path d="M6.952 6.928c-.102.078-.203.072-.263.036s-.06-.048-.048-.048c.012 0 .024.012.072.036.048.024.12.024.24-.024zM6.414 7.108a.054.054 0 10.055.084c.02.015.049.017.064.017h.007a.114.114 0 00.065-.017c.01.014.026.022.044.022a.054.054 0 00.01-.106.036.036 0 01.021.047.036.036 0 01-.069-.012.09.09 0 01-.074.049.09.09 0 01-.075-.049.036.036 0 01-.05.032.036.036 0 01-.021-.033c0-.016.009-.03.023-.034zm.059.159c-.06 0-.084.054-.138.09.03-.012.054-.036.096-.06.042-.023.077.006.101.006h.001c.024 0 .06-.03.102-.006.042.024.066.048.096.06-.054-.036-.078-.09-.138-.09a.16.16 0 00-.06.018.16.16 0 00-.06-.018z" fill="#85340A"/><path d="M6.453 7.338a.41.41 0 00-.1.019c.108-.024.131.012.18.012.048 0 .072-.036.18-.012-.12-.036-.144-.012-.18-.012-.023 0-.04-.009-.08-.007z" fill="#85340A"/><path d="M6.358 7.356l-.022.001c.125.012.065.084.196.084h.001c.132 0 .072-.072.198-.084-.132-.012-.09.066-.198.066-.102 0-.07-.068-.175-.067zm.283.194a.108.108 0 00-.215 0 .11.11 0 01.215 0zM6.05 6.833c.137-.12.31-.138.407-.048a.235.235 0 01.044.1c.012.068-.01.141-.062.217.006 0 .018.006.024.012a.426.426 0 00.048-.273.387.387 0 00-.018-.068c-.132-.108-.312-.12-.443.06z" fill="#85340A"/><path d="M6.265 6.797c.078 0 .096.018.132.048.036.03.054.024.06.03.005.006 0 .023-.012.017-.012-.006-.036-.017-.072-.047s-.072-.03-.108-.03c-.108 0-.167.09-.18.083-.011-.006.06-.101.18-.101z" fill="#85340A"/><path d="M6.261 6.834a.154.154 0 00-.133.07c.06.054.192.06.281-.006a.205.205 0 00-.148-.064zm0 .012c.051-.001.1.023.106.046-.06.066-.155.06-.215.013a.126.126 0 01.109-.06z" fill="#843511"/><path d="M6.268 6.946a.054.054 0 100-.108.054.054 0 000 .108z" fill="#85340A"/><path d="M6.121 6.928c.102.078.204.072.264.036.06-.036.06-.048.048-.048-.012 0-.024.012-.072.036-.048.024-.12.024-.24-.024z" fill="#85340A"/></g></svg>