<svg width="14" height="14" fill="none" xmlns="http://www.w3.org/2000/svg"><g clip-path="url(#a)"><path d="M13.565 9.435A6.984 6.984 0 0014 7c0-.856-.154-1.676-.435-2.435L7 3.957l-6.565.608A6.985 6.985 0 000 7c0 .856.154 1.676.435 2.435L7 10.043l6.565-.608z" fill="#F0F0F0"/><path d="M7 14c3.01 0 5.576-1.9 6.565-4.565H.435A7.002 7.002 0 007 14zM7 0C3.99 0 1.424 1.9.435 4.565h13.13A7.002 7.002 0 007 0z" fill="#D80027"/></g><defs><clipPath id="a"><path fill="#fff" d="M0 0H14V14H0z"/></clipPath></defs></svg>