<svg width="14" height="14" fill="none" xmlns="http://www.w3.org/2000/svg"><g clip-path="url(#a)"><path d="M7 14A7 7 0 107 0a7 7 0 000 14z" fill="#F0F0F0"/><path d="M.241 8.826a7.006 7.006 0 002.498 3.728V8.826H.241zM6.391 13.973a7.003 7.003 0 007.368-5.147H6.39v5.147zM13.759 5.174A7.003 7.003 0 006.39.027v5.147h7.368zM2.74 1.446A7.006 7.006 0 00.24 5.174H2.74V1.446z" fill="#0052B4"/><path d="M13.94 6.087H5.479V.167A6.952 6.952 0 003.652.85v5.236H.06a7.06 7.06 0 000 1.826h3.593v5.236a6.95 6.95 0 001.826.685v-5.92h8.463a7.054 7.054 0 000-1.827z" fill="#D80027"/></g><defs><clipPath id="a"><path fill="#fff" d="M0 0H14V14H0z"/></clipPath></defs></svg>