<svg width="14" height="14" fill="none" xmlns="http://www.w3.org/2000/svg"><mask id="a" style="mask-type:alpha" maskUnits="userSpaceOnUse" x="0" y="0" width="14" height="14"><path d="M14 7A7 7 0 110 7a7 7 0 0114 0z" fill="#D9D9D9"/></mask><g mask="url(#a)"><path d="M-3.72-.85h21.218V14H-3.72V-.85z" fill="#009B3A"/><path d="M-1.916 6.575l8.805 5.622 8.805-5.622L6.89.953l-8.805 5.622z" fill="#FEDF00"/><path d="M6.889 10.288a3.713 3.713 0 100-7.426 3.713 3.713 0 000 7.426z" fill="#002776"/><mask id="b" style="mask-type:luminance" maskUnits="userSpaceOnUse" x="3" y="2" width="8" height="9"><path d="M6.889 10.288a3.713 3.713 0 100-7.426 3.713 3.713 0 000 7.426z" fill="#fff"/></mask><g mask="url(#b)"><path d="M-4.25 14.001a9.016 9.016 0 0118.035 0h-.53a8.486 8.486 0 10-16.975 0h-.53z" fill="#fff"/></g><path fill-rule="evenodd" clip-rule="evenodd" d="M3.722 5.49a.152.152 0 00.105-.065.187.187 0 00.031-.13.187.187 0 00-.061-.119.152.152 0 00-.118-.037.152.152 0 00-.105.065.187.187 0 00-.031.13c.005.046.027.089.061.118.034.03.076.043.118.038zm-.008-.065a.087.087 0 00.062-.04.123.123 0 00.017-.082.123.123 0 00-.036-.075.087.087 0 00-.07-.024.087.087 0 00-.062.04.123.123 0 00-.017.082c.003.029.017.056.037.074.02.019.044.028.07.025zM4.01 5.458l.066-.005-.01-.13.142-.01a.111.111 0 00-.016-.222l-.201.014.02.353zm.052-.201l.136-.01a.045.045 0 10-.006-.09l-.136.009.006.09z" fill="#009B3A"/><path d="M4.31 5.437c-.003-.05-.011-.162-.087-.156l-.095.006c.11-.007.118.104.122.154" fill="#009B3A"/><path fill-rule="evenodd" clip-rule="evenodd" d="M4.458 5.43l.167-.003a.152.152 0 00.149-.154v-.05a.152.152 0 00-.155-.15l-.167.003.006.354zm.065-.067l.096-.002a.096.096 0 00.094-.097v-.03a.096.096 0 00-.098-.095l-.096.002.004.222z" fill="#009B3A"/><path d="M4.907 5.425l.318.012.003-.066-.258-.01.003-.09.202.007.003-.06-.202-.008.002-.07.242.008.003-.065-.303-.011-.013.353zM5.356 5.445l.06.005.022-.241.049.247.055.005.092-.235-.021.241.06.006.03-.353-.087-.007-.092.235-.05-.248-.087-.007-.031.352zM6.089 5.527l.261.045.01-.06-.201-.034.013-.08.165.029.01-.06-.164-.028.01-.055.194.033.01-.06-.254-.043-.054.313z" fill="#009B3A"/><path fill-rule="evenodd" clip-rule="evenodd" d="M6.76 5.66l.064.016.033-.127.137.035a.111.111 0 00.055-.215l-.195-.05-.094.34zm.113-.175l.132.034a.045.045 0 00.023-.088l-.132-.034-.023.088zM7.194 5.775l.063.02.04-.125.134.042a.111.111 0 00.067-.212l-.193-.06-.111.335zm.122-.168l.13.04a.045.045 0 10.027-.086l-.13-.04-.027.086z" fill="#009B3A"/><path d="M7.48 5.865c.016-.048.05-.154-.023-.177l-.092-.029c.106.034.073.14.058.188" fill="#009B3A"/><path fill-rule="evenodd" clip-rule="evenodd" d="M7.77 5.97c.04.014.084.01.124-.01a.187.187 0 00.087-.1.187.187 0 000-.134.152.152 0 00-.087-.088.151.151 0 00-.123.009.187.187 0 00-.088.1.187.187 0 000 .134.152.152 0 00.087.088zm.023-.062c.023.008.05.006.074-.008a.123.123 0 00.053-.064.123.123 0 00.002-.083.087.087 0 00-.05-.054.087.087 0 00-.074.008.123.123 0 00-.053.064.123.123 0 00-.002.083c.009.026.027.045.05.054z" fill="#009B3A"/><mask id="c" style="mask-type:luminance" maskUnits="userSpaceOnUse" x="8" y="5" width="1" height="2"><path d="M8.04 6.074l.142-.325.291.127-.14.324-.292-.126zm.241-.155l-.024.056.146.063.024-.055-.146-.064z" fill="#fff"/></mask><g mask="url(#c)"><path fill-rule="evenodd" clip-rule="evenodd" d="M8.187 6.137a.151.151 0 00.123-.003.187.187 0 00.093-.096.187.187 0 00.007-.133.151.151 0 00-.082-.092.152.152 0 00-.124.002.187.187 0 00-.093.096.187.187 0 00-.007.134.151.151 0 00.083.092zm.026-.06c.022.01.049.008.073-.004a.123.123 0 00.057-.06.123.123 0 00.006-.084.087.087 0 00-.048-.056.087.087 0 00-.073.003.123.123 0 00-.057.062.123.123 0 00-.006.083.087.087 0 00.048.056z" fill="#009B3A"/></g><path d="M8.28 5.985l.123.053-.02.047-.123-.054.02-.046z" fill="#009B3A"/><path d="M8.357 6.018l.046.02-.07.163-.047-.02.07-.163z" fill="#009B3A"/><path fill-rule="evenodd" clip-rule="evenodd" d="M8.451 6.256l.059.03.058-.118.127.063a.111.111 0 10.1-.2l-.182-.09-.162.315zm.147-.147l.122.06a.045.045 0 10.04-.08l-.122-.061-.04.08z" fill="#009B3A"/><path d="M8.72 6.39c.023-.045.072-.145.004-.179l-.086-.042c.1.05.05.149.028.194M8.851 6.46l.277.156.033-.057-.225-.127.045-.08.176.1.03-.053-.176-.1.035-.06.211.119.032-.057-.263-.15-.175.308zM9.367 6.632c-.019.03 0 .063.043.09.043.028.072.027.084.008.039-.061-.185-.15-.116-.256.06-.09.161-.02.2.005.038.024.1.087.051.16l-.064-.041c.02-.032-.002-.063-.037-.085-.033-.02-.06-.03-.08 0-.032.05.187.143.12.249-.05.077-.136.043-.193.007-.05-.031-.123-.105-.075-.18l.067.043zM9.747 6.883c-.02.03-.003.063.038.093.04.029.07.03.083.011.042-.059-.177-.159-.102-.26.064-.089.162-.013.199.014.037.026.095.093.043.163l-.063-.045c.022-.03.002-.063-.031-.086-.032-.023-.058-.034-.08-.004-.035.048.179.152.106.254-.053.075-.138.037-.193-.003-.047-.034-.117-.111-.065-.183l.065.046z" fill="#009B3A"/><path fill-rule="evenodd" clip-rule="evenodd" d="M10.105 7.29a.151.151 0 00.12.03.187.187 0 00.115-.07.188.188 0 00.041-.126.152.152 0 00-.055-.11.152.152 0 00-.12-.03.187.187 0 00-.115.069.187.187 0 00-.041.127.151.151 0 00.055.11zm.041-.051c.02.015.046.02.072.016a.123.123 0 00.07-.045.123.123 0 00.028-.079.087.087 0 00-.031-.066.087.087 0 00-.072-.016.122.122 0 00-.07.045.122.122 0 00-.028.078c0 .027.012.051.031.067z" fill="#009B3A"/><path d="M3.858 5.749l-.05.151.076.025" fill="#fff"/><path d="M3.858 5.749l.049.151-.076.025" fill="#fff"/><path d="M4.01 5.859h-.16v.08" fill="#fff"/><path d="M4.01 5.859l-.13.093-.046-.064" fill="#fff"/><path d="M3.706 5.86l.13.093.046-.065" fill="#fff"/><path d="M3.706 5.86h.16v.079" fill="#fff"/><path d="M3.951 6.037l-.049-.152-.075.025" fill="#fff"/><path d="M3.951 6.037l-.128-.094.046-.064" fill="#fff"/><path d="M3.764 6.037l.129-.094-.047-.064" fill="#fff"/><path d="M3.764 6.037l.05-.152.075.025M4.186 7.31l-.049.15.076.026" fill="#fff"/><path d="M4.186 7.31l.05.15-.076.026" fill="#fff"/><path d="M4.338 7.42h-.16v.08" fill="#fff"/><path d="M4.338 7.42l-.13.093-.046-.064" fill="#fff"/><path d="M4.035 7.42l.129.093.046-.064" fill="#fff"/><path d="M4.035 7.42h.159v.08" fill="#fff"/><path d="M4.28 7.598l-.05-.152-.075.025" fill="#fff"/><path d="M4.28 7.598l-.129-.094.047-.064" fill="#fff"/><path d="M4.093 7.598l.128-.094-.046-.064" fill="#fff"/><path d="M4.093 7.598l.049-.152.075.025M3.732 7.67l-.041.126.063.02" fill="#fff"/><path d="M3.732 7.67l.04.126-.063.02" fill="#fff"/><path d="M3.858 7.761h-.133v.067" fill="#fff"/><path d="M3.858 7.761l-.108.078-.039-.053" fill="#fff"/><path d="M3.605 7.762l.108.077.039-.053" fill="#fff"/><path d="M3.605 7.762h.133v.066" fill="#fff"/><path d="M3.81 7.91l-.041-.126-.064.02" fill="#fff"/><path d="M3.81 7.91l-.108-.078.04-.054" fill="#fff"/><path d="M3.654 7.91l.107-.078-.04-.054" fill="#fff"/><path d="M3.654 7.91l.04-.126.064.02M4.55 7.166l-.024.072.036.012" fill="#fff"/><path d="M4.55 7.166l.023.072-.036.012" fill="#fff"/><path d="M4.622 7.218h-.076v.038" fill="#fff"/><path d="M4.622 7.218l-.061.045-.023-.03" fill="#fff"/><path d="M4.478 7.218l.061.045.022-.03" fill="#fff"/><path d="M4.478 7.218h.076v.038" fill="#fff"/><path d="M4.594 7.303l-.023-.072-.036.011" fill="#fff"/><path d="M4.594 7.303l-.06-.045.021-.03" fill="#fff"/><path d="M4.506 7.301l.06-.044-.021-.031" fill="#fff"/><path d="M4.506 7.301l.023-.072.036.012M4.96 7.705l-.042.127.063.02" fill="#fff"/><path d="M4.96 7.705l.04.127-.063.02" fill="#fff"/><path d="M5.085 7.797h-.132v.066" fill="#fff"/><path d="M5.085 7.797l-.107.078-.04-.054" fill="#fff"/><path d="M4.833 7.797l.107.078.04-.054" fill="#fff"/><path d="M4.833 7.797h.133v.066" fill="#fff"/><path d="M5.037 7.945l-.041-.126-.063.02" fill="#fff"/><path d="M5.037 7.945l-.107-.078.039-.054" fill="#fff"/><path d="M4.881 7.945l.107-.078-.039-.054" fill="#fff"/><path d="M4.881 7.945l.041-.126.063.02M4.848 8.1l-.033.101.05.017" fill="#fff"/><path d="M4.848 8.1l.033.101-.05.017" fill="#fff"/><path d="M4.949 8.174h-.106v.053" fill="#fff"/><path d="M4.949 8.174l-.086.062-.031-.043" fill="#fff"/><path d="M4.747 8.174l.086.062.031-.043" fill="#fff"/><path d="M4.747 8.174h.106v.053" fill="#fff"/><path d="M4.91 8.292l-.032-.1-.05.015" fill="#fff"/><path d="M4.91 8.292l-.085-.062.03-.043" fill="#fff"/><path d="M4.786 8.292l.085-.062-.03-.043" fill="#fff"/><path d="M4.786 8.292l.032-.1.05.015M8.04 5.264l-.049.151.076.025" fill="#fff"/><path d="M8.04 5.264l.05.151-.076.025" fill="#fff"/><path d="M8.192 5.374h-.16v.08" fill="#fff"/><path d="M8.192 5.374l-.129.094-.046-.064" fill="#fff"/><path d="M7.89 5.374l.128.094.047-.065" fill="#fff"/><path d="M7.89 5.374h.158v.08" fill="#fff"/><path d="M8.134 5.552l-.049-.15-.076.024" fill="#fff"/><path d="M8.134 5.552l-.129-.093.047-.064" fill="#fff"/><path d="M7.947 5.552l.129-.093-.047-.065" fill="#fff"/><path d="M7.947 5.552l.05-.151.075.024M9.49 7.719l-.049.151.076.025" fill="#fff"/><path d="M9.49 7.719l.05.151-.076.025" fill="#fff"/><path d="M9.642 7.83h-.16v.079" fill="#fff"/><path d="M9.642 7.83l-.129.093-.047-.065" fill="#fff"/><path d="M9.34 7.829l.128.094.047-.065" fill="#fff"/><path d="M9.34 7.829h.158v.08" fill="#fff"/><path d="M9.584 8.007l-.05-.151-.075.025" fill="#fff"/><path d="M9.584 8.007l-.129-.093.047-.065" fill="#fff"/><path d="M9.397 8.007l.129-.094-.047-.064" fill="#fff"/><path d="M9.397 8.007l.05-.151.075.024M10.006 7.807l-.033.101.05.017" fill="#fff"/><path d="M10.006 7.807l.033.101-.05.017" fill="#fff"/><path d="M10.107 7.88H10v.054" fill="#fff"/><path d="M10.107 7.88l-.086.063L9.99 7.9" fill="#fff"/><path d="M9.905 7.88l.086.063.03-.043" fill="#fff"/><path d="M9.905 7.88h.106v.054" fill="#fff"/><path d="M10.068 8l-.033-.101-.05.016" fill="#fff"/><path d="M10.068 8l-.086-.063.032-.043" fill="#fff"/><path d="M9.943 8l.086-.063-.03-.043" fill="#fff"/><path d="M9.943 8l.033-.101.05.016M9.642 8.074l-.04.126.062.02" fill="#fff"/><path d="M9.642 8.074l.041.126-.063.02" fill="#fff"/><path d="M9.768 8.166h-.132v.066" fill="#fff"/><path d="M9.768 8.166l-.107.078-.039-.054" fill="#fff"/><path d="M9.516 8.166l.107.078.04-.054" fill="#fff"/><path d="M9.516 8.166h.133v.066" fill="#fff"/><path d="M9.72 8.314l-.04-.126-.064.02" fill="#fff"/><path d="M9.72 8.314l-.107-.078.039-.054" fill="#fff"/><path d="M9.564 8.314l.107-.078-.038-.054" fill="#fff"/><path d="M9.564 8.314l.041-.126.063.02M8.748 8.851l-.04.127.062.02" fill="#fff"/><path d="M8.748 8.851l.041.127-.063.02" fill="#fff"/><path d="M8.874 8.943h-.133v.067" fill="#fff"/><path d="M8.874 8.943l-.107.078-.04-.053" fill="#fff"/><path d="M8.622 8.943l.107.078.04-.054" fill="#fff"/><path d="M8.622 8.943h.132v.066" fill="#fff"/><path d="M8.826 9.091l-.041-.126-.063.02" fill="#fff"/><path d="M8.826 9.091l-.107-.078.039-.053" fill="#fff"/><path d="M8.67 9.091l.107-.077-.039-.054" fill="#fff"/><path d="M8.67 9.091l.041-.126.063.02M8.743 9.252l-.033.101.05.017" fill="#fff"/><path d="M8.743 9.252l.033.101-.05.017" fill="#fff"/><path d="M8.844 9.325h-.106v.053" fill="#fff"/><path d="M8.844 9.325l-.086.062-.031-.042" fill="#fff"/><path d="M8.642 9.325l.086.062.031-.043" fill="#fff"/><path d="M8.642 9.325h.106v.053" fill="#fff"/><path d="M8.805 9.444l-.033-.101-.05.016" fill="#fff"/><path d="M8.805 9.444L8.72 9.38l.032-.042" fill="#fff"/><path d="M8.68 9.444l.086-.063-.03-.042" fill="#fff"/><path d="M8.68 9.444l.033-.101.05.016M9.117 8.586l-.033.1.05.017" fill="#fff"/><path d="M9.117 8.586l.032.1-.05.017" fill="#fff"/><path d="M9.218 8.659h-.106v.053" fill="#fff"/><path d="M9.218 8.659l-.086.062-.031-.043" fill="#fff"/><path d="M9.016 8.659l.086.062.03-.043" fill="#fff"/><path d="M9.016 8.659h.106v.053" fill="#fff"/><path d="M9.18 8.778l-.034-.101-.05.016" fill="#fff"/><path d="M9.18 8.778l-.087-.063.031-.043" fill="#fff"/><path d="M9.054 8.78l.086-.063-.031-.043" fill="#fff"/><path d="M9.054 8.78l.033-.101.05.016M9.415 8.372l-.041.126.063.02" fill="#fff"/><path d="M9.415 8.372l.04.126-.062.02" fill="#fff"/><path d="M9.54 8.463h-.132v.067" fill="#fff"/><path d="M9.54 8.463l-.106.078-.04-.053" fill="#fff"/><path d="M9.289 8.463l.107.078.039-.053" fill="#fff"/><path d="M9.289 8.463h.132v.067" fill="#fff"/><path d="M9.493 8.612l-.041-.127-.063.02" fill="#fff"/><path d="M9.493 8.612l-.108-.078.04-.054" fill="#fff"/><path d="M9.337 8.612l.107-.078-.039-.054" fill="#fff"/><path d="M9.337 8.612l.04-.126.064.02M8.733 8.514l-.033.101.05.017" fill="#fff"/><path d="M8.733 8.514l.033.101-.05.017" fill="#fff"/><path d="M8.834 8.586h-.106v.053" fill="#fff"/><path d="M8.834 8.586l-.086.062-.031-.043" fill="#fff"/><path d="M8.632 8.588l.086.062.03-.043" fill="#fff"/><path d="M8.632 8.588h.106v.053" fill="#fff"/><path d="M8.795 8.706l-.033-.1-.05.016" fill="#fff"/><path d="M8.795 8.706l-.086-.062.031-.043" fill="#fff"/><path d="M8.67 8.706l.086-.062-.03-.043" fill="#fff"/><path d="M8.67 8.706l.033-.1.05.016M5.474 6.594l-.04.126.063.02" fill="#fff"/><path d="M5.474 6.594l.041.126-.063.02" fill="#fff"/><path d="M5.6 6.684h-.132v.066" fill="#fff"/><path d="M5.6 6.684l-.107.077-.039-.053" fill="#fff"/><path d="M5.348 6.685l.108.078.039-.053" fill="#fff"/><path d="M5.348 6.685h.133v.067" fill="#fff"/><path d="M5.552 6.834l-.04-.127-.064.02" fill="#fff"/><path d="M5.552 6.834l-.107-.078.04-.054" fill="#fff"/><path d="M5.396 6.834l.108-.078-.04-.054" fill="#fff"/><path d="M5.396 6.834l.041-.127.064.02M7.9 6.282l-.034.101.05.017" fill="#fff"/><path d="M7.9 6.282l.032.101-.05.017" fill="#fff"/><path d="M8 6.356h-.106v.053" fill="#fff"/><path d="M8 6.356l-.086.062-.03-.043" fill="#fff"/><path d="M7.798 6.355l.086.063.031-.043" fill="#fff"/><path d="M7.798 6.355h.106v.054" fill="#fff"/><path d="M7.962 6.474l-.033-.1-.05.016" fill="#fff"/><path d="M7.962 6.474l-.086-.062.03-.043" fill="#fff"/><path d="M7.837 6.474l.086-.062-.032-.043" fill="#fff"/><path d="M7.837 6.474l.033-.101.05.016M6.889 8.083l-.05.15.076.026" fill="#fff"/><path d="M6.889 8.083l.05.15-.077.026" fill="#fff"/><path d="M7.04 8.193h-.159v.08" fill="#fff"/><path d="M7.04 8.193l-.129.093-.046-.064" fill="#fff"/><path d="M6.737 8.193l.13.093.046-.064" fill="#fff"/><path d="M6.737 8.193h.16v.08" fill="#fff"/><path d="M6.982 8.37l-.049-.15-.075.024" fill="#fff"/><path d="M6.982 8.37l-.128-.093.046-.064" fill="#fff"/><path d="M6.795 8.37l.129-.093-.047-.065" fill="#fff"/><path d="M6.795 8.37l.05-.151.075.025M7.318 7.372l-.04.126.062.02" fill="#fff"/><path d="M7.318 7.372l.041.126-.063.02" fill="#fff"/><path d="M7.444 7.463h-.132v.067" fill="#fff"/><path d="M7.444 7.463l-.107.078-.039-.053" fill="#fff"/><path d="M7.192 7.463l.107.078.04-.053" fill="#fff"/><path d="M7.192 7.463h.133v.067" fill="#fff"/><path d="M7.396 7.612l-.04-.127-.064.02" fill="#fff"/><path d="M7.396 7.612l-.107-.078.039-.054" fill="#fff"/><path d="M7.24 7.612l.108-.078-.04-.054" fill="#fff"/><path d="M7.24 7.612l.041-.126.063.02M6.889 7.038l-.041.126.063.02" fill="#fff"/><path d="M6.889 7.038l.04.126-.062.02" fill="#fff"/><path d="M7.015 7.13h-.133v.066" fill="#fff"/><path d="M7.015 7.13l-.107.078-.04-.054" fill="#fff"/><path d="M6.763 7.13l.107.078.039-.054" fill="#fff"/><path d="M6.763 7.13h.132v.066" fill="#fff"/><path d="M6.967 7.278l-.041-.126-.063.02" fill="#fff"/><path d="M6.967 7.278l-.107-.077.039-.054" fill="#fff"/><path d="M6.81 7.278l.108-.078-.039-.053" fill="#fff"/><path d="M6.81 7.278l.042-.126.063.02M6.515 7.399l-.033.1.05.017" fill="#fff"/><path d="M6.515 7.399l.033.1-.05.017" fill="#fff"/><path d="M6.616 7.472H6.51v.053" fill="#fff"/><path d="M6.616 7.472l-.086.062-.031-.043" fill="#fff"/><path d="M6.414 7.472l.086.062.031-.043" fill="#fff"/><path d="M6.414 7.472h.106v.053" fill="#fff"/><path d="M6.577 7.59l-.032-.1-.05.016" fill="#fff"/><path d="M6.577 7.59l-.085-.062.03-.043" fill="#fff"/><path d="M6.453 7.59l.085-.062-.03-.043" fill="#fff"/><path d="M6.453 7.59l.032-.1.05.016M6.702 7.686l-.023.072.036.012" fill="#fff"/><path d="M6.702 7.686l.023.072-.036.012" fill="#fff"/><path d="M6.774 7.738h-.076v.038" fill="#fff"/><path d="M6.774 7.738l-.061.045-.022-.031" fill="#fff"/><path d="M6.63 7.738l.061.044.022-.03" fill="#fff"/><path d="M6.63 7.738h.076v.038" fill="#fff"/><path d="M6.747 7.825l-.024-.072-.036.011" fill="#fff"/><path d="M6.747 7.825l-.062-.045.023-.03" fill="#fff"/><path d="M6.657 7.823l.062-.044-.023-.031" fill="#fff"/><path d="M6.657 7.823l.024-.072.036.012M8 8.943l-.04.126.062.02" fill="#fff"/><path d="M8 8.943l.041.126-.063.02" fill="#fff"/><path d="M8.126 9.034h-.132v.067" fill="#fff"/><path d="M8.126 9.034l-.107.078-.039-.053" fill="#fff"/><path d="M7.874 9.034l.107.078.04-.053" fill="#fff"/><path d="M7.874 9.034h.133v.067" fill="#fff"/><path d="M8.078 9.183l-.04-.126-.064.02" fill="#fff"/><path d="M8.078 9.183l-.107-.078.039-.054" fill="#fff"/><path d="M7.922 9.183l.108-.078-.04-.054" fill="#fff"/><path d="M7.922 9.183l.041-.126.063.02M8.319 8.64l-.033.102.05.016" fill="#fff"/><path d="M8.319 8.64l.032.102-.05.016" fill="#fff"/><path d="M8.42 8.714h-.107v.053" fill="#fff"/><path d="M8.42 8.714l-.086.063-.032-.043" fill="#fff"/><path d="M8.218 8.714l.085.063.032-.043" fill="#fff"/><path d="M8.218 8.714h.106v.053" fill="#fff"/><path d="M8.38 8.833l-.032-.1-.05.016" fill="#fff"/><path d="M8.38 8.833l-.085-.062.031-.043" fill="#fff"/><path d="M8.256 8.833l.086-.062-.031-.043" fill="#fff"/><path d="M8.256 8.833l.033-.1.05.016M7.707 8.55l-.033.1.05.017" fill="#fff"/><path d="M7.707 8.55l.033.1-.05.017" fill="#fff"/><path d="M7.808 8.623h-.106v.053" fill="#fff"/><path d="M7.808 8.623l-.086.062-.03-.043" fill="#fff"/><path d="M7.606 8.623l.086.063.031-.043" fill="#fff"/><path d="M7.606 8.623h.106v.054" fill="#fff"/><path d="M7.77 8.742l-.033-.101-.05.016" fill="#fff"/><path d="M7.77 8.742l-.086-.063.03-.043" fill="#fff"/><path d="M7.645 8.742l.086-.063-.032-.043" fill="#fff"/><path d="M7.645 8.742l.033-.101.05.016M5.399 8.386l-.05.152.076.024" fill="#fff"/><path d="M5.399 8.386l.049.152-.076.024" fill="#fff"/><path d="M5.55 8.496h-.16v.08" fill="#fff"/><path d="M5.55 8.496l-.129.094-.047-.065" fill="#fff"/><path d="M5.247 8.496l.13.094.046-.065" fill="#fff"/><path d="M5.247 8.496h.16v.08" fill="#fff"/><path d="M5.492 8.674l-.05-.151-.075.024" fill="#fff"/><path d="M5.492 8.674l-.129-.093.047-.065" fill="#fff"/><path d="M5.305 8.674l.129-.094-.047-.064" fill="#fff"/><path d="M5.305 8.674l.05-.151.075.024M6.889 9.427l-.017.05.026.008" fill="#fff"/><path d="M6.889 9.427l.016.05-.025.008" fill="#fff"/><path d="M6.94 9.463h-.054v.027" fill="#fff"/><path d="M6.94 9.463l-.044.031-.015-.021" fill="#fff"/><path d="M6.838 9.463l.043.031.016-.021" fill="#fff"/><path d="M6.838 9.463h.053v.026" fill="#fff"/><path d="M6.92 9.522l-.016-.05-.026.008" fill="#fff"/><path d="M6.92 9.522l-.043-.031.016-.021" fill="#fff"/><path d="M6.858 9.522l.043-.03-.016-.022" fill="#fff"/><path d="M6.858 9.522l.016-.05.025.008" fill="#fff"/></g></svg>