<svg width="14" height="14" fill="none" xmlns="http://www.w3.org/2000/svg"><g clip-path="url(#a)"><path d="M7 14A7 7 0 107 0a7 7 0 000 14z" fill="#F0F0F0"/><path d="M11.262 1.447A6.969 6.969 0 007 0C5.396 0 3.919.54 2.738 1.447L7 5.709l4.262-4.262zM1.447 2.738A6.969 6.969 0 000 7c0 1.604.54 3.081 1.447 4.262L5.709 7 1.447 2.738zM2.738 12.553A6.969 6.969 0 007 14a6.97 6.97 0 004.262-1.447L7 8.291l-4.262 4.262zM12.553 11.262A6.969 6.969 0 0014 7c0-1.604-.54-3.081-1.447-4.262L8.29 7l4.262 4.262z" fill="#0052B4"/></g><defs><clipPath id="a"><path fill="#fff" d="M0 0H14V14H0z"/></clipPath></defs></svg>