<svg width="14" height="14" fill="none" xmlns="http://www.w3.org/2000/svg"><mask id="a" style="mask-type:luminance" maskUnits="userSpaceOnUse" x="0" y="0" width="14" height="14"><path d="M7 14A7 7 0 107 0a7 7 0 000 14z" fill="#fff"/></mask><g mask="url(#a)"><path d="M17.814-.352H4.886v14.354h12.928V-.352z" fill="red"/><path d="M4.887-.352h-8.603v14.354h8.603V-.352z" fill="#060"/><path d="M2.799 7.076a7.57 7.57 0 01-1.091-.236 1.596 1.596 0 01-.392-.174l-.021.094c.47.213.97.35 1.484.402l.02-.086z" fill="#FF0"/><path d="M2.778 7.172a4.818 4.818 0 01-1.49-.403.012.012 0 01-.005-.012l.021-.094a.01.01 0 01.007-.008.013.013 0 01.01 0c.123.075.255.133.393.173.356.105.72.184 1.088.235.003 0 .006.002.008.004V7.076l-.02.085a.01.01 0 01-.007.01.01.01 0 01-.005.001zm-1.47-.418c.463.208.957.341 1.463.396l.015-.064a7.657 7.657 0 01-1.081-.235 1.92 1.92 0 01-.381-.167l-.017.07z" fill="#000"/><path d="M2.799 7.38a6.28 6.28 0 01-1.091-.24 2.292 2.292 0 01-.392-.16l-.021.093c.47.207.972.34 1.484.392l.02-.084z" fill="#FF0"/><path d="M2.78 7.476a4.969 4.969 0 01-1.49-.392.011.011 0 01-.006-.013l.02-.093a.009.009 0 01.007-.007.012.012 0 01.005-.001h.005c.126.065.257.117.392.158.355.112.72.192 1.088.24l.005.002.003.002.001.005-.001.004-.02.085a.012.012 0 01-.01.01zm-1.472-.41c.465.203.959.333 1.463.387l.014-.063a6.317 6.317 0 01-1.08-.241 2.878 2.878 0 01-.38-.157l-.017.074z" fill="#000"/><path d="M2.783 7.16l.014.226a6.739 6.739 0 01-.822-.157c-.298-.088-.652-.217-.652-.217l.147-.184c.423.162.864.274 1.313.332z" fill="#FF0"/><path d="M2.797 7.397a6.83 6.83 0 01-.824-.156 15.725 15.725 0 01-.657-.22.01.01 0 01-.002-.005.01.01 0 010-.01l.147-.183a.01.01 0 01.012 0 5.719 5.719 0 001.317.332.01.01 0 01.003.007l.014.227a.01.01 0 010 .008.013.013 0 01-.01 0zM1.34 7.005c.07.025.377.134.639.213.265.07.535.122.807.157l-.012-.205a5.711 5.711 0 01-1.3-.326l-.134.161z" fill="#000"/><path d="M2.447 6.257c-.3-.2-.854-.627-.877-.845a.912.912 0 00.235-.251c.06-.124.013-.235.032-.261.018-.026.038-.157.524-.007.486.151.47.179.47.179v1.212l-.384-.027z" fill="#FF0"/><path d="M2.833 6.294l-.385-.025h-.005c-.314-.213-.863-.628-.883-.854V5.41l.004-.005a.91.91 0 00.229-.248.358.358 0 00.028-.198.11.11 0 01.005-.064l.004-.007c.023-.044.079-.147.534 0 .167.042.328.103.48.183V6.296a.014.014 0 01-.011-.002zm-.382-.047l.37.025V5.076a2.166 2.166 0 00-.466-.171c-.44-.138-.489-.044-.507-.007a.053.053 0 01-.006.009.122.122 0 000 .05c.01.072 0 .144-.03.21a.887.887 0 01-.23.25c.03.215.557.62.869.83z" fill="#000"/><path d="M1.9 5.73c.09.082.81.637.918.69v-.88l-.853-.26-.064.45z" fill="#FF0"/><path d="M2.818 6.432h-.005c-.113-.057-.834-.614-.92-.694a.012.012 0 010-.009l.064-.45a.01.01 0 01.005-.007.014.014 0 01.01 0l.853.26a.012.012 0 01.008.011v.88a.013.013 0 01-.005.01.009.009 0 01-.01-.001zm-.906-.706c.097.088.747.589.895.677V5.55l-.833-.255-.062.432z" fill="#000"/><path d="M1.736 8.554c.096.05.166-.035.16.278.87.327 1.791.496 2.72.498l-.979-.493A7.5 7.5 0 012.23 8.6c-.075-.039-.29-.308-.493-.047z" fill="#FF0"/><path d="M4.616 9.34a7.875 7.875 0 01-2.724-.499.01.01 0 01-.005-.01c0-.228-.03-.235-.089-.247a.262.262 0 01-.066-.02.012.012 0 01-.006-.007.01.01 0 010-.009.27.27 0 01.179-.115h.023a.436.436 0 01.254.126.397.397 0 00.051.038c.453.122.917.2 1.385.236H3.64l.978.492a.011.011 0 01.006.013.012.012 0 01-.008.003zm-2.708-.514c.851.313 1.75.48 2.656.49l-.93-.47h-.013a7.537 7.537 0 01-1.395-.235.392.392 0 01-.055-.041.417.417 0 00-.24-.12c-.007-.002-.014-.002-.02 0a.24.24 0 00-.158.096c.016.007.033.011.05.015.07.017.109.036.109.262l-.004.003z" fill="#000"/><path d="M2.284 8.692c.472.146.96.23 1.454.25l.453.25c-.59-.012-1.177-.1-1.745-.264l-.162-.236z" fill="#FF0"/><path d="M4.078 9.218a8.716 8.716 0 01-1.636-.28.01.01 0 01-.005-.003l-.162-.236a.01.01 0 010-.013.011.011 0 01.006-.001 5.433 5.433 0 001.457.251h.004l.453.25A.01.01 0 014.2 9.2a.012.012 0 01-.004.004.269.269 0 01-.118.014zm-1.625-.299a8.72 8.72 0 001.628.278.36.36 0 00.086-.007l-.43-.236c-.483-.021-.96-.1-1.424-.235l.14.2z" fill="#000"/><path d="M4.896 3.669V3.28a3.552 3.552 0 100 7.106v-.388a3.165 3.165 0 010-6.33z" fill="#FF0"/><path d="M4.906 10.398h-.01a3.563 3.563 0 010-7.127h.01v.41h-.01a3.154 3.154 0 000 6.308h.01v.409zM4.885 3.29a3.542 3.542 0 000 7.085v-.366a3.176 3.176 0 010-6.353V3.29z" fill="#000"/><path d="M1.645 6.834a3.251 3.251 0 003.252 3.252v.215a3.466 3.466 0 010-6.933v.216a3.251 3.251 0 00-3.252 3.25z" fill="#FF0"/><path d="M4.907 10.312h-.011a3.477 3.477 0 010-6.955h.01v.235h-.01a3.24 3.24 0 100 6.481h.01v.239zm-.021-6.934a3.456 3.456 0 100 6.912v-.193a3.261 3.261 0 110-6.524v-.195z" fill="#000"/><path d="M1.986 4.81c.273-.124.562-.21.858-.256v.358a2.367 2.367 0 00-.485.127l-.373-.229z" fill="#FF0"/><path d="M2.36 5.05h-.006l-.373-.23a.01.01 0 01-.005-.009.01.01 0 01.006-.01 3.255 3.255 0 01.871-.256.011.011 0 010 .008v.357a.011.011 0 01-.009.011 2.177 2.177 0 00-.48.126l-.004.004zm-.352-.235l.352.216c.153-.058.313-.1.475-.124v-.336a3.293 3.293 0 00-.827.24v.004z" fill="#000"/><path d="M2.146 4.816a2.96 2.96 0 01.65-.171v.202c-.128.013-.255.04-.378.079l-.272-.11z" fill="#FF0"/><path d="M2.419 4.934l-.273-.106a.011.011 0 01-.007-.01.012.012 0 01.006-.01 2.908 2.908 0 01.662-.172V4.847a.01.01 0 01-.01.011 1.842 1.842 0 00-.376.074l-.002.002zm-.244-.119l.244.096c.12-.037.243-.061.368-.072v-.182a3.11 3.11 0 00-.613.158z" fill="#000"/><path d="M1.927 4.82c-.032.051-.261.49-.277.529.408.033.801.165 1.146.385v-.668s-.618-.332-.87-.246z" fill="#FF0"/><path d="M2.795 5.743H2.79a2.51 2.51 0 00-1.144-.384.009.009 0 01-.004-.004.01.01 0 010-.01c.015-.036.244-.477.278-.53a.011.011 0 01.005-.004c.253-.087.852.236.877.246a.012.012 0 01.005.01v.668a.013.013 0 01-.004.009h-.008zm-1.13-.406c.397.04.78.168 1.119.377v-.643c-.063-.033-.616-.314-.85-.242-.036.06-.228.426-.268.508z" fill="#000"/><path d="M2.796 5.015c-.122-.078-.78-.302-.9-.223 0 0-.055.086-.061.105.078-.073.318-.093.951.2l.01-.082z" fill="#FF0"/><path d="M2.786 5.111a.005.005 0 01-.004 0c-.672-.314-.877-.26-.941-.202a.011.011 0 01-.013 0 .01.01 0 01-.004-.013c.019-.037.04-.073.062-.107.124-.083.784.143.912.222a.01.01 0 01.005.01l-.01.083a.01.01 0 01-.005.008h-.002zm-.79-.268c.275.028.541.11.784.241l.007-.06a1.94 1.94 0 00-.881-.221l-.04.064a.303.303 0 01.13-.024z" fill="#000"/><path d="M2.83 5.708c-.12-.079-1.023-.494-1.204-.385a.853.853 0 00-.055.09c.21-.09.62.085 1.255.378l.005-.083z" fill="#FF0"/><path d="M2.824 5.8H2.82c-.618-.285-1.038-.465-1.245-.378a.01.01 0 01-.01-.002.011.011 0 01-.004-.01.707.707 0 01.055-.093c.19-.113 1.098.314 1.217.385a.01.01 0 01.005.01l-.006.083a.01.01 0 01-.005.009L2.824 5.8zm-1.122-.423c.391.067.767.202 1.112.397l.005-.061c-.157-.094-1.015-.478-1.187-.383a.742.742 0 00-.04.062.37.37 0 01.108-.014l.002-.001z" fill="#000"/><path d="M1.351 6.649a.903.903 0 00-.019.314c.444-.277.95-.44 1.471-.476V6.17s-1.242.18-1.452.479z" fill="#FF0"/><path d="M1.332 6.975h-.004a.01.01 0 01-.006-.01.941.941 0 01.021-.321c.21-.3 1.412-.477 1.46-.484a.013.013 0 01.01 0v.326a.01.01 0 01-.006.01 3.215 3.215 0 00-1.47.471l-.005.008zm.029-.32a.807.807 0 00-.018.29c.439-.27.936-.432 1.45-.47v-.297c-.13.022-1.24.197-1.433.471v.006z" fill="#000"/><path d="M1.295 6.76v-.11c.447-.29.959-.467 1.49-.512v.087s-1.27.175-1.49.535z" fill="#FF0"/><path d="M1.295 6.77a.01.01 0 01-.008-.01v-.116a3.318 3.318 0 011.495-.517.01.01 0 01.007.011v.088a.011.011 0 01-.009.01c-.013 0-1.264.18-1.479.53a.01.01 0 01-.006.004zm.01-.117v.072c.256-.328 1.345-.493 1.467-.511v-.065a3.19 3.19 0 00-1.463.504h-.003z" fill="#000"/><path d="M1.295 7.072v-.11c.447-.29.958-.465 1.49-.51v.086s-1.27.175-1.49.534z" fill="#FF0"/><path d="M1.295 7.083a.011.011 0 01-.008-.01v-.117a3.327 3.327 0 011.495-.516.01.01 0 01.007.011v.087a.01.01 0 01-.009.011c-.013 0-1.264.18-1.48.53l-.002.002-.003.002zm.01-.117v.073c.256-.328 1.345-.494 1.467-.512v-.064a3.192 3.192 0 00-1.463.503h-.003z" fill="#000"/><path d="M1.742 8.497c.035.082.081.16.137.229.373-.208.78-.35 1.203-.417 0 0 .01-.277-.148-.286-.158-.008-1.217.305-1.192.474z" fill="#FF0"/><path d="M1.879 8.736a.011.011 0 01-.009-.004.995.995 0 01-.138-.235.079.079 0 01.026-.065 3.082 3.082 0 011.17-.421h.007c.167.009.157.285.157.298a.01.01 0 01-.003.007.01.01 0 01-.003.002 3.686 3.686 0 00-1.207.418zm-.125-.24c.033.077.076.15.129.216.37-.206.772-.345 1.19-.413 0-.048-.007-.259-.138-.266h-.007c-.408.061-.8.202-1.153.414a.06.06 0 00-.021.048z" fill="#000"/><path d="M2.953 7.993c-.342.053-1.262.313-1.26.492l.043.07c.351-.283.781-.45 1.231-.48l-.014-.082z" fill="#FF0"/><path d="M1.736 8.565a.012.012 0 01-.01-.004l-.042-.07v-.006c0-.196.952-.453 1.27-.502a.011.011 0 01.012.008l.015.079a.008.008 0 010 .007.01.01 0 01-.007.004 2.196 2.196 0 00-1.223.471.011.011 0 01-.008.009l-.007.004zm-.032-.083l.03.048c.356-.264.779-.424 1.22-.464l-.01-.06c-.377.064-1.233.314-1.24.476z" fill="#000"/><path d="M3.094 8.273c-.37.053-1.243.306-1.24.49l.042.07c.021-.127.47-.357 1.22-.471l-.022-.089z" fill="#FF0"/><path d="M1.897 8.843a.013.013 0 01-.01-.005l-.042-.07v-.005c0-.195.888-.45 1.25-.5a.011.011 0 01.012.007l.021.086a.012.012 0 010 .008.01.01 0 01-.007.005c-.76.118-1.191.345-1.21.465a.01.01 0 01-.008.008h-.006zm-.031-.083l.029.046c.343-.28.767-.44 1.209-.456l-.016-.065c-.41.06-1.216.312-1.222.475z" fill="#000"/><path d="M6.428 8.626c.15.078 1.137.554 1.288.445l.04-.425c.098-.003.196-.017.29-.044.02-.027.163-.127-.323-.353a6.586 6.586 0 00-.986-.356l-.309.733z" fill="#FF0"/><path d="M7.645 9.099a4.783 4.783 0 01-1.221-.462.011.011 0 01-.005-.013l.308-.733a.011.011 0 01.013-.006c.338.092.668.212.987.357.224.104.346.196.362.276a.095.095 0 01-.03.087l-.006.006a.878.878 0 01-.288.047l-.04.416a.013.013 0 01-.004.008.13.13 0 01-.076.017zm-1.203-.477c.236.125 1.117.53 1.264.444l.04-.42c0-.002.001-.005.003-.006a.012.012 0 01.007-.004c.095-.001.19-.014.281-.039l.007-.008a.078.078 0 00.025-.069c-.01-.049-.079-.133-.35-.26a6.637 6.637 0 00-.976-.352l-.3.714z" fill="#000"/><path d="M6.476 8.56c.167.088.338.168.513.24.184.025.37.038.555.04l.213-.452s-.941-.677-.945-.658c-.004.02-.336.83-.336.83z" fill="#FF0"/><path d="M7.544 8.849a4.023 4.023 0 01-.559-.043 3.17 3.17 0 00-.09-.039 3.792 3.792 0 01-.424-.2.01.01 0 01-.005-.006 115.293 115.293 0 00.338-.839.01.01 0 01.005-.003c.328.204.646.424.952.66a.01.01 0 010 .013l-.212.453a.014.014 0 01-.005.004zM6.49 8.552c.134.073.273.138.414.195.044.02.079.032.09.04.18.026.362.039.544.039l.205-.437c-.342-.248-.851-.61-.925-.648-.035.09-.293.725-.328.811z" fill="#000"/><path d="M7.423 8.996a9.007 9.007 0 01-2.251.335l.956-.476c.483-.037.962-.121 1.43-.25.075-.043.184.28-.135.39z" fill="#FF0"/><path d="M5.171 9.341a.012.012 0 01-.01-.008l-.002-.004.001-.003.002-.003.004-.002.956-.476h.019a7.828 7.828 0 001.434-.257.04.04 0 01.023.007.186.186 0 01.05.169.296.296 0 01-.22.235 9.117 9.117 0 01-2.255.336l-.002.006zm.96-.475l-.907.45c.743-.019 1.48-.13 2.196-.33a.274.274 0 00.207-.221.17.17 0 00-.041-.148.021.021 0 00-.022 0c-.464.129-.94.213-1.42.252l-.014-.003z" fill="#000"/><path d="M7.495 8.713a11.62 11.62 0 01-1.474.24l-.521.275a9.217 9.217 0 001.854-.296l.14-.22z" fill="#FF0"/><path d="M5.538 9.24H5.5a.01.01 0 01-.004-.02l.522-.274a.009.009 0 01.007 0h.022a12.659 12.659 0 001.45-.244.01.01 0 01.007.002.011.011 0 010 .013l-.141.218-.005.005a9.551 9.551 0 01-1.819.3zm.486-.275l-.483.254a9.53 9.53 0 001.804-.296l.123-.19c-.471.103-.948.182-1.427.235l-.017-.003z" fill="#000"/><path d="M6.989 7.077c.369-.052.734-.13 1.09-.236.139-.04.27-.098.393-.174l.022.093c-.47.214-.971.35-1.485.403l-.02-.086z" fill="#FF0"/><path d="M7.009 7.172a.012.012 0 01-.011-.008l-.02-.085a.012.012 0 010-.009l.004-.003a1.624 1.624 0 001.49-.41.01.01 0 01.005.002.013.013 0 01.007.007l.022.094a.011.011 0 01-.006.012 4.82 4.82 0 01-1.49.404l-.001-.004zm-.007-.086l.015.064c.505-.055.999-.188 1.463-.396l-.017-.07a1.89 1.89 0 01-.38.166 7.734 7.734 0 01-1.08.236z" fill="#000"/><path d="M6.989 7.382c.37-.048.735-.128 1.09-.241.136-.041.268-.095.393-.16l.022.093a4.91 4.91 0 01-1.485.392l-.02-.084z" fill="#FF0"/><path d="M7.007 7.477a.012.012 0 01-.01-.009l-.02-.085a.01.01 0 010-.008.01.01 0 01.007-.004c.37-.048.733-.129 1.088-.242a2.357 2.357 0 00.397-.158.01.01 0 01.01.003.011.011 0 01.002.005l.022.093a.01.01 0 01-.006.013c-.473.207-.976.34-1.49.392zm-.006-.087l.014.064a4.996 4.996 0 001.463-.388l-.016-.07c-.123.061-.25.114-.38.156-.353.11-.714.19-1.08.238H7z" fill="#000"/><path d="M7.004 7.16l-.014.226a6.74 6.74 0 00.822-.156c.298-.089.652-.218.652-.218l-.147-.184a5.704 5.704 0 01-1.313.332z" fill="#FF0"/><path d="M6.99 7.398h-.007a.013.013 0 010-.01l.014-.226c0-.002.001-.005.003-.007a.011.011 0 01.006-.003 5.766 5.766 0 001.317-.332.01.01 0 01.006.003l.148.184a.012.012 0 010 .01.01.01 0 01-.007.006s-.359.13-.653.218c-.271.069-.546.121-.824.157H6.99zm.024-.229l-.012.205c.272-.035.541-.088.807-.157.26-.078.569-.187.638-.212l-.133-.166a5.681 5.681 0 01-1.3.33z" fill="#000"/><path d="M6.987 5.592c.394-.063.78-.168 1.15-.314l-.084-.096s-.15-.145-.095-.161c.054-.017.032-.072-.131-.107-.164-.035-.074.09-.284.157a3.47 3.47 0 01-.558.134l.002.387z" fill="#FF0"/><path d="M6.99 5.602h-.007v-.4a.011.011 0 01.01-.011c.188-.029.373-.073.554-.133a.246.246 0 00.152-.11c.026-.039.046-.07.139-.049.104.023.165.056.166.091 0 .008 0 .028-.035.037h-.004c-.004.02.05.088.105.14l.085.096a.01.01 0 010 .01.009.009 0 01-.006.007 5.53 5.53 0 01-1.155.318l-.004.004zm.008-.392v.367a5.64 5.64 0 001.122-.31l-.079-.083c-.02-.019-.12-.118-.11-.157a.024.024 0 01.02-.019c.012 0 .02-.01.02-.015 0-.005-.033-.045-.15-.071-.078-.016-.09 0-.116.04a.269.269 0 01-.163.118c-.177.058-.36.103-.544.133V5.21z" fill="#000"/><path d="M7.017 5.507c.242-.037.48-.092.714-.164l-.11-.2c-.195.065-.396.112-.6.14l-.004.224z" fill="#FF0"/><path d="M7.017 5.518a.011.011 0 01-.01-.012v-.224c0-.003 0-.006.002-.008a3.422 3.422 0 00.612-.142.01.01 0 01.006.005l.11.2a.012.012 0 010 .008.01.01 0 01-.006.006c-.234.073-.472.13-.714.167zm.014-.224v.202c.232-.037.461-.09.687-.157l-.1-.18a3.49 3.49 0 01-.587.135z" fill="#000"/><path d="M4.891 3.669V3.28a3.552 3.552 0 110 7.106v-.388a3.165 3.165 0 000-6.33z" fill="#FF0"/><path d="M4.891 10.398h-.01v-.41h.01a3.155 3.155 0 000-6.31h-.01V3.27h.01a3.563 3.563 0 010 7.128zm.011-.392v.366a3.542 3.542 0 000-7.085v.367a3.176 3.176 0 010 6.352z" fill="#000"/><path d="M8.143 6.834a3.251 3.251 0 01-3.252 3.252v.215a3.466 3.466 0 000-6.933v.216a3.251 3.251 0 013.252 3.25z" fill="#FF0"/><path d="M4.891 10.311h-.01v-.235h.01a3.24 3.24 0 000-6.48h-.01V3.36h.01a3.477 3.477 0 010 6.955v-.004zm.011-.214v.193a3.456 3.456 0 000-6.912v.194a3.262 3.262 0 010 6.525z" fill="#000"/><path d="M8.436 6.65a.91.91 0 01.019.314 3.204 3.204 0 00-1.471-.476V6.17s1.243.18 1.452.479z" fill="#FF0"/><path d="M8.455 6.976h-.006a3.215 3.215 0 00-1.47-.472.01.01 0 01-.006-.01v-.326a.013.013 0 01.008 0c.051.007 1.25.183 1.46.484a.956.956 0 01.02.326.013.013 0 01-.004.005l-.002-.007zm-1.461-.497c.514.04 1.011.2 1.45.47a.823.823 0 00-.017-.289c-.194-.277-1.304-.453-1.433-.47v.289z" fill="#000"/><path d="M8.496 6.76v-.11a3.246 3.246 0 00-1.49-.512v.087s1.265.176 1.49.535z" fill="#FF0"/><path d="M8.492 6.77a.013.013 0 01-.01-.004c-.215-.35-1.466-.529-1.478-.53a.011.011 0 01-.01-.011v-.087a.013.013 0 010-.009L7 6.128l.004.001c.53.05 1.042.227 1.49.516v.116a.01.01 0 01-.008.01h.007zm-1.476-.555c.122.018 1.21.183 1.466.512v-.072a3.19 3.19 0 00-1.465-.504l-.001.064z" fill="#000"/><path d="M8.496 7.073v-.11a3.247 3.247 0 00-1.49-.511v.087s1.265.175 1.49.534z" fill="#FF0"/><path d="M8.492 7.083l-.005-.001a.012.012 0 01-.004-.004c-.216-.35-1.467-.529-1.48-.53a.012.012 0 01-.009-.01V6.45a.013.013 0 010-.009L7 6.441l.004.001c.53.05 1.042.227 1.49.516v.116a.01.01 0 01-.008.01l.007-.001zm-1.476-.555c.122.018 1.21.182 1.466.51v-.071a3.19 3.19 0 00-1.465-.503l-.001.064z" fill="#000"/><path d="M8.07 8.49s-.291.44-.313.47a4.851 4.851 0 00-.967-.863l.137-.677c.455.268.845.633 1.143 1.07z" fill="#FF0"/><path d="M7.754 8.974h-.008a4.841 4.841 0 00-.968-.868.012.012 0 01-.002-.007l.138-.677a.011.011 0 01.005-.008.013.013 0 01.005-.001h.005a3.62 3.62 0 011.152 1.08.01.01 0 010 .005l-.314.47a.016.016 0 01-.013.006zm-.955-.883c.355.24.676.528.953.855.049-.07.28-.418.306-.46a3.639 3.639 0 00-1.127-1.05l-.132.655z" fill="#000"/><path d="M6.79 8.155c.115.079 1.044.747.921.916 0 0 .066-.054.073-.092.023-.119-.38-.485-.957-.907l-.036.083z" fill="#FF0"/><path d="M7.712 9.082h-.007a.012.012 0 01-.003-.008c0-.003.001-.005.003-.007a.055.055 0 00.008-.046c-.037-.212-.784-.756-.926-.855a.01.01 0 010-.012l.037-.083a.012.012 0 01.007-.005.01.01 0 01.01 0c.235.17.995.742.961.917-.008.04-.07.092-.078.099h-.012zm-.907-.93c.086.06.887.627.927.862v.021a.157.157 0 00.04-.059c.02-.106-.349-.454-.94-.888l-.027.063z" fill="#000"/><path d="M6.947 7.488c.114.078 1.232.93 1.108 1.098a.334.334 0 00.063-.1c.023-.12-.559-.66-1.136-1.081l-.035.083z" fill="#FF0"/><path d="M8.055 8.601a.01.01 0 01-.007 0 .012.012 0 010-.014.05.05 0 00.007-.04c-.04-.228-.968-.946-1.112-1.044a.01.01 0 010-.013l.037-.082a.012.012 0 01.007-.006.01.01 0 01.01 0c.558.408 1.164.962 1.14 1.092a.334.334 0 01-.067.106.016.016 0 01-.015.001zM6.957 7.488c.124.088 1.071.81 1.113 1.054v.008a.19.19 0 00.034-.062c.02-.107-.533-.63-1.121-1.061l-.026.06z" fill="#000"/><path d="M7.016 4.61v.274c.363.059.716.164 1.052.314a1.76 1.76 0 00-.202-.32c-.26-.15-.551-.241-.85-.267z" fill="#FF0"/><path d="M8.067 5.209h-.005a4.213 4.213 0 00-1.049-.314.01.01 0 01-.008-.01V4.61a.011.011 0 010-.008h.008c.301.026.593.118.855.27a1.72 1.72 0 01.209.33l-.002.006h-.008zm-1.041-.334c.349.056.69.155 1.014.294a1.352 1.352 0 00-.18-.282 2.06 2.06 0 00-.833-.266l-.001.254z" fill="#000"/><path d="M6.996 4.93c.396.065.78.182 1.146.347a.28.28 0 00-.068-.118 5.055 5.055 0 00-1.089-.308l.011.079z" fill="#FF0"/><path d="M8.14 5.284h-.004a4.688 4.688 0 00-1.148-.349.011.011 0 01-.003-.006l-.011-.078a.01.01 0 010-.01.01.01 0 01.009 0c.374.062.74.165 1.09.308a.29.29 0 01.072.122.01.01 0 01-.005.011s.004.002 0 .002zm-1.135-.367c.384.065.76.177 1.117.334a.277.277 0 00-.056-.087 5.131 5.131 0 00-1.069-.302l.008.055z" fill="#000"/><path d="M6.996 4.645c.352.045.69.163.992.348a.329.329 0 00-.084-.135 2.697 2.697 0 00-.919-.29l.011.077z" fill="#FF0"/><path d="M7.988 5h-.006a2.494 2.494 0 00-.993-.348.011.011 0 01-.003-.006l-.011-.079a.01.01 0 010-.008h.007c.324.04.637.138.924.292a.333.333 0 01.091.145l-.001.007c-.003 0-.006-.001-.008-.003zm-.983-.367c.338.044.663.155.958.325a.24.24 0 00-.065-.094 2.728 2.728 0 00-.9-.287l.007.056z" fill="#000"/><path d="M5.04 9.234h-.282V10.4h.283V9.234z" fill="#FF0"/><path d="M5.04 10.41h-.283a.01.01 0 01-.008-.003.01.01 0 01-.003-.008V9.234a.011.011 0 01.011-.011h.283a.011.011 0 01.011.011V10.4a.01.01 0 01-.003.008.01.01 0 01-.008.003zm-.272-.022h.261V9.245h-.261v1.143z" fill="#000"/><path d="M4.79 9.275h-.083v1.165h.082V9.275z" fill="#FF0"/><path d="M4.79 10.45h-.083a.011.011 0 01-.007-.002.011.011 0 01-.003-.008V9.275a.01.01 0 01.01-.011h.083a.01.01 0 01.01.01v1.166a.01.01 0 01-.002.007.011.011 0 01-.003.003H4.79zm-.072-.02h.062V9.287h-.062v1.143z" fill="#000"/><path d="M5.09 9.275h-.082v1.165h.081V9.275z" fill="#FF0"/><path d="M5.09 10.45h-.082A.011.011 0 015 10.449a.011.011 0 01-.003-.008V9.275a.01.01 0 01.011-.011H5.095l.003.003.002.004.001.004v1.169l-.003.003-.003.003H5.09zm-.072-.02h.061V9.287h-.06v1.143z" fill="#000"/><path d="M4.75 4.424h.282V3.259H4.75v1.165z" fill="#FF0"/><path d="M5.032 4.435h-.284a.011.011 0 01-.01-.011V3.259a.01.01 0 01.01-.01h.284a.011.011 0 01.01.01v1.166a.011.011 0 01-.01.01zm-.272-.021h.261V3.27h-.26v1.144z" fill="#000"/><path d="M5 4.382h.083V3.218H5v1.164z" fill="#FF0"/><path d="M5.082 4.393H5a.011.011 0 01-.01-.01V3.217a.011.011 0 01.01-.01h.082c.003 0 .006 0 .008.003a.011.011 0 01.003.007v1.166a.011.011 0 01-.01.01zm-.07-.02h.06V3.228h-.06v1.143z" fill="#000"/><path d="M4.701 4.382h.082V3.218h-.082v1.164z" fill="#FF0"/><path d="M4.783 4.393H4.7a.01.01 0 01-.011-.01V3.217a.011.011 0 01.01-.01h.083a.011.011 0 01.01.01v1.166a.011.011 0 01-.01.01zm-.072-.02h.06V3.228h-.06v1.143z" fill="#000"/><path d="M4.902 9.355A2.125 2.125 0 012.777 7.23V4.387a.013.013 0 01.013-.013h4.227a.013.013 0 01.007.008l.001.005V7.23a2.126 2.126 0 01-2.123 2.125z" fill="#fff"/><path d="M4.902 9.363A2.135 2.135 0 012.77 7.23V4.387a.021.021 0 01.021-.021h4.224a.021.021 0 01.021.021V7.23a2.136 2.136 0 01-2.134 2.133zM2.792 4.38h-.003l-.002.002a.006.006 0 00-.002.004V7.23a2.117 2.117 0 004.235 0V4.387a.006.006 0 00-.004-.006H2.791z" fill="#000"/><path d="M4.902 9.26a2.045 2.045 0 01-2.045-2.047V4.478a.012.012 0 01.004-.01.012.012 0 01.01-.003h4.064a.013.013 0 01.013.013v2.735a2.044 2.044 0 01-2.046 2.048z" fill="red"/><path d="M4.902 9.269A2.054 2.054 0 012.85 7.217V4.482a.02.02 0 01.02-.02h4.064a.02.02 0 01.02.02v2.735A2.054 2.054 0 014.903 9.27zM2.87 4.476h-.002a.006.006 0 00-.003.004V7.217a2.039 2.039 0 004.077 0V4.482c0-.001 0-.003-.002-.004a.006.006 0 00-.003-.002H2.87z" fill="#000"/><path d="M4.902 8.46a1.222 1.222 0 01-1.223-1.222V5.297h2.446v1.94a1.223 1.223 0 01-1.223 1.224z" fill="#fff"/><path d="M4.902 8.468a1.231 1.231 0 01-1.23-1.23V5.29h2.46v1.948a1.232 1.232 0 01-1.23 1.23zM3.687 5.304v1.933a1.217 1.217 0 001.215 1.216 1.217 1.217 0 001.216-1.216V5.304H3.687z" fill="#000"/><path d="M4.902 6.261a.267.267 0 01-.267-.266v-.401h.534v.4a.268.268 0 01-.267.267z" fill="#039"/><path d="M4.802 5.734a.053.053 0 11-.107 0 .053.053 0 01.107 0zM5.1 5.734a.053.053 0 11-.106 0 .053.053 0 01.107 0zM4.802 6.03a.053.053 0 11-.053-.053.054.054 0 01.053.053zM5.1 6.03a.053.053 0 11-.106 0 .053.053 0 01.107 0zM4.951 5.882a.053.053 0 11-.107 0 .053.053 0 01.107 0z" fill="#fff"/><path d="M4.902 7.192a.267.267 0 01-.267-.266v-.401h.534v.4a.268.268 0 01-.267.267z" fill="#039"/><path d="M4.802 6.664a.053.053 0 11-.107 0 .053.053 0 01.107 0zM5.1 6.664a.053.053 0 11-.106 0 .053.053 0 01.107 0zM4.802 6.96a.053.053 0 11-.053-.052.054.054 0 01.053.053zM5.1 6.96a.053.053 0 11-.106.001.053.053 0 01.107 0zM4.951 6.813a.053.053 0 11-.107 0 .053.053 0 01.107 0z" fill="#fff"/><path d="M5.647 7.192a.267.267 0 01-.267-.266v-.401h.534v.4a.267.267 0 01-.267.267z" fill="#039"/><path d="M5.547 6.664a.053.053 0 11-.107 0 .053.053 0 01.107 0zM5.846 6.664a.053.053 0 11-.107 0 .053.053 0 01.107 0zM5.547 6.96a.053.053 0 01-.106.011.053.053 0 11.106-.01zM5.794 7.014a.053.053 0 100-.106.053.053 0 000 .106zM5.696 6.813a.053.053 0 11-.053-.054.052.052 0 01.053.054z" fill="#fff"/><path d="M4.157 7.192a.267.267 0 01-.267-.266v-.401h.534v.4a.268.268 0 01-.267.267z" fill="#039"/><path d="M4.057 6.664a.053.053 0 11-.107 0 .053.053 0 01.107 0zM4.356 6.664a.053.053 0 11-.107 0 .053.053 0 01.107 0zM4.005 7.014a.053.053 0 100-.106.053.053 0 000 .106zM4.356 6.96a.053.053 0 11-.054-.052.054.054 0 01.054.053zM4.206 6.813a.053.053 0 11-.107 0 .053.053 0 01.107 0z" fill="#fff"/><path d="M4.902 8.123a.267.267 0 01-.267-.266v-.401h.534v.4a.268.268 0 01-.267.267z" fill="#039"/><path d="M4.802 7.596a.053.053 0 01-.09.037.053.053 0 11.09-.037zM5.1 7.596a.053.053 0 01-.09.037.053.053 0 11.09-.037zM4.802 7.892a.054.054 0 01-.09.038.053.053 0 01.037-.091.054.054 0 01.053.053zM5.1 7.892a.053.053 0 01-.063.052.053.053 0 11.064-.052zM4.951 7.744a.054.054 0 01-.064.052.054.054 0 01-.019-.097.053.053 0 01.083.045z" fill="#fff"/><path d="M5.17 4.952h-.55l-.021.235h.588l-.018-.235z" fill="#FF0"/><path d="M5.197 5.198h-.603V5.19l.021-.245h.56v.006l.022.247zm-.588-.014h.573l-.02-.224h-.534l-.019.224z" fill="#000"/><path d="M5.05 5.178h-.308V5.17a.164.164 0 11.307 0v.008zm-.294-.015h.278a.148.148 0 10-.278 0z" fill="#000"/><path d="M4.99 5.18H4.8V5.17c0-.103.061-.157.094-.157s.094.054.094.157v.008zm-.175-.015h.157c0-.09-.056-.137-.078-.137s-.076.048-.08.137h.001z" fill="#000"/><path d="M4.78 4.72h-.148v.129h.147v-.13z" fill="#FF0"/><path d="M4.786 4.856h-.161v-.144h.161v.144zm-.147-.014h.133v-.115h-.133v.115z" fill="#000"/><path d="M4.706 4.756a.013.013 0 00-.01.003.013.013 0 00-.004.01v.045h.026v-.045a.013.013 0 00-.012-.013z" fill="#000"/><path d="M4.803 4.632v.079a.02.02 0 01-.02.02h-.157a.02.02 0 01-.02-.02v-.079h.042v.039h.036v-.039h.04v.039h.037v-.039h.042z" fill="#FF0"/><path d="M4.784 4.738h-.157a.027.027 0 01-.026-.026v-.087h.054v.038h.022v-.038h.055v.038h.022v-.038h.054v.087a.027.027 0 01-.024.026zm-.168-.098v.072a.013.013 0 00.013.013h.157a.012.012 0 00.009-.003.012.012 0 00.003-.01V4.64h-.026v.038h-.05V4.64h-.027v.038h-.05V4.64h-.029z" fill="#000"/><path d="M5.158 4.72h-.147v.129h.147v-.13z" fill="#FF0"/><path d="M5.165 4.856h-.161v-.144h.161v.144zm-.147-.014h.132v-.115h-.132v.115z" fill="#000"/><path d="M5.084 4.756H5.08a.013.013 0 00-.008.013v.045h.027v-.045a.013.013 0 00-.014-.013z" fill="#000"/><path d="M5.182 4.632v.079a.02.02 0 01-.02.02h-.157a.02.02 0 01-.02-.02v-.079h.041v.039h.04v-.039h.041v.039h.036v-.039h.039z" fill="#FF0"/><path d="M5.163 4.738h-.157a.027.027 0 01-.027-.026v-.087h.055v.038h.025v-.038h.055v.038h.021v-.038h.055v.087a.026.026 0 01-.027.026zm-.168-.098v.072a.012.012 0 00.013.013h.156a.012.012 0 00.01-.003.012.012 0 00.003-.01V4.64h-.026v.038h-.05V4.64h-.027v.038h-.05V4.64h-.029z" fill="#000"/><path d="M4.965 4.608h-.14l-.003.24h.147l-.004-.24z" fill="#FF0"/><path d="M4.976 4.855h-.161v-.007l.003-.247h.153v.007l.005.247zm-.147-.014h.131l-.003-.225h-.124l-.004.225z" fill="#000"/><path d="M4.895 4.679a.013.013 0 00-.013.013v.058h.027v-.058a.013.013 0 00-.014-.013z" fill="#000"/><path d="M4.993 4.522V4.6a.02.02 0 01-.02.02h-.157a.019.019 0 01-.014-.006.02.02 0 01-.004-.006.02.02 0 01-.001-.008v-.078h.04v.037h.036v-.037h.041v.037h.036v-.037h.043z" fill="#FF0"/><path d="M4.974 4.629h-.157a.027.027 0 01-.027-.027v-.086h.055v.038h.021v-.038h.055v.038h.021v-.038h.055v.086a.027.027 0 01-.023.027zm-.168-.1v.073a.013.013 0 00.013.012h.156a.012.012 0 00.012-.007V4.53h-.025v.038h-.05V4.53h-.027v.038h-.05V4.53h-.029z" fill="#000"/><path d="M5.197 5.231h-.604a.029.029 0 01-.02-.049.03.03 0 01.02-.008h.604a.03.03 0 01.026.017.029.029 0 01-.015.038.03.03 0 01-.011.002z" fill="#FF0"/><path d="M5.197 5.239h-.604a.036.036 0 01-.04-.036.036.036 0 01.025-.034.036.036 0 01.015 0h.604a.036.036 0 01.038.02.036.036 0 01-.009.042.036.036 0 01-.029.008zm-.604-.057a.021.021 0 00-.014.006.02.02 0 00-.007.015.022.022 0 00.021.021h.604a.02.02 0 00.021-.021.022.022 0 00-.02-.02h-.605z" fill="#000"/><path d="M5.166 4.953h-.542a.026.026 0 01-.026-.026c0-.007.003-.013.008-.018a.026.026 0 01.018-.008h.542c.007 0 .013.003.018.008a.026.026 0 010 .036.026.026 0 01-.018.008z" fill="#FF0"/><path d="M5.166 4.96h-.542a.034.034 0 010-.068h.542a.034.034 0 010 .068zm-.542-.054a.02.02 0 00-.016.02.02.02 0 00.016.018h.542c.005 0 .01-.002.013-.005a.019.019 0 00.006-.014.02.02 0 00-.005-.014.02.02 0 00-.014-.007h-.542v.002z" fill="#000"/><path d="M5.184 4.906h-.58a.026.026 0 110-.053h.58c.007 0 .014.002.019.007a.026.026 0 01-.019.046z" fill="#FF0"/><path d="M5.185 4.913h-.58a.033.033 0 01-.024-.057.034.034 0 01.024-.01h.58a.034.034 0 01.033.033.033.033 0 01-.033.034zm-.58-.054a.02.02 0 00-.016.004.02.02 0 00.008.034.02.02 0 00.008 0h.58a.02.02 0 00.021-.027.02.02 0 00-.013-.01.02.02 0 00-.008-.001h-.58z" fill="#000"/><path d="M6.286 8.5L5.9 8.114l-.184.157.417.416.153-.187z" fill="#FF0"/><path d="M6.131 8.694l-.426-.427.005-.005.19-.157.004.005.392.392-.004.005-.16.187zm-.405-.426l.405.405.145-.174-.377-.376-.173.145z" fill="#000"/><path d="M6.041 8.575l-.217-.218.005-.005a.164.164 0 11.217.218l-.005.005zm-.197-.218l.197.198a.15.15 0 10-.197-.198z" fill="#000"/><path d="M5.997 8.534L5.864 8.4l.005-.005c.073-.072.157-.068.178-.044a.068.068 0 01.015.048.185.185 0 01-.06.13l-.005.005zM5.884 8.4l.113.113c.031-.03.05-.07.051-.114a.056.056 0 00-.011-.038c-.016-.017-.087-.023-.152.037v.002z" fill="#000"/><path d="M6.174 8.06l-.104-.104-.09.091.103.103.09-.09z" fill="#FF0"/><path d="M6.083 8.162l-.115-.115.005-.004.097-.097.115.115-.005.004-.097.097zm-.094-.115l.094.094.078-.078-.094-.094-.078.078z" fill="#000"/><path d="M6.096 8.034a.013.013 0 00-.019 0l-.032.032.019.019.032-.032a.013.013 0 000-.019z" fill="#000"/><path d="M6.252 8.016l-.056.056a.019.019 0 01-.027 0l-.11-.11a.02.02 0 010-.028l.056-.055.029.029-.028.027.026.025.027-.027.029.029-.027.027.025.026.028-.027.028.028z" fill="#FF0"/><path d="M6.182 8.084a.028.028 0 01-.018-.007l-.11-.11a.026.026 0 010-.038l.061-.061.038.038-.027.028.015.015.027-.028.04.04-.028.027.016.016.027-.028.04.039-.062.06a.034.034 0 01-.019.01zm-.067-.197l-.051.051a.012.012 0 000 .018l.11.11a.013.013 0 00.017 0l.051-.051-.019-.02-.027.028-.036-.036.027-.027-.019-.02-.027.028-.035-.036.027-.027-.018-.018z" fill="#000"/><path d="M6.44 8.326l-.102-.103-.091.09.103.104.09-.09z" fill="#FF0"/><path d="M6.35 8.43l-.114-.114.005-.006.097-.097.113.115-.004.005-.097.096zm-.094-.114l.094.094.079-.079-.094-.094-.079.079z" fill="#000"/><path d="M6.363 8.301a.014.014 0 00-.01-.004.014.014 0 00-.008.004l-.032.032.018.019.032-.032a.012.012 0 00.004-.01.013.013 0 00-.004-.009z" fill="#000"/><path d="M6.52 8.283l-.055.057a.019.019 0 01-.028 0l-.11-.11a.02.02 0 010-.027l.056-.056.03.029-.028.027.025.025.027-.027.03.028-.028.028.026.026.027-.028.028.028z" fill="#FF0"/><path d="M6.45 8.352a.027.027 0 01-.019-.008l-.11-.11a.025.025 0 01-.008-.019.025.025 0 01.008-.019l.061-.06.039.038-.028.028.015.015.028-.028.039.04-.028.027.016.016.028-.028.038.039-.061.06a.032.032 0 01-.018.009zm-.068-.196l-.05.05a.01.01 0 000 .01.012.012 0 000 .008l.11.11a.012.012 0 00.016 0l.051-.051-.018-.02-.028.028-.036-.036.028-.027-.02-.02-.027.028-.035-.035.027-.027-.018-.018z" fill="#000"/><path d="M6.383 8.112l-.098-.097-.172.166.103.103.167-.172z" fill="#FF0"/><path d="M6.216 8.295l-.005-.004-.109-.11.005-.004.177-.172.005.005.103.103-.005.004-.17.178zm-.093-.113l.093.093.157-.162-.088-.089-.162.158z" fill="#000"/><path d="M6.285 8.113a.013.013 0 00-.01-.003.013.013 0 00-.01.003l-.04.04.02.02.04-.041a.013.013 0 00.004-.01l-.001-.004a.013.013 0 00-.003-.005z" fill="#000"/><path d="M6.463 8.072l-.056.055a.019.019 0 01-.027 0l-.11-.11a.02.02 0 010-.027l.056-.056.029.03-.028.027.025.025.028-.027.029.029-.028.027.026.026.028-.027.028.028z" fill="#FF0"/><path d="M6.393 8.14a.027.027 0 01-.018-.008l-.11-.11a.026.026 0 01-.006-.03.027.027 0 01.006-.008l.06-.061.04.038-.028.028.015.015.027-.028.039.04-.028.027.016.015.027-.028.039.04-.061.06a.024.024 0 01-.018.01zm-.067-.197l-.051.051a.012.012 0 000 .017l.11.11a.012.012 0 00.017 0l.051-.05-.019-.02-.027.028-.036-.036.027-.028-.019-.018-.027.027-.036-.036.027-.028-.017-.017z" fill="#000"/><path d="M6.107 8.719l-.427-.427a.029.029 0 01.032-.047.028.028 0 01.01.006l.426.428a.028.028 0 01.006.031.028.028 0 01-.006.01.03.03 0 01-.041-.001z" fill="#FF0"/><path d="M6.127 8.734a.034.034 0 01-.025-.011l-.426-.428a.036.036 0 01.05-.05l.427.427c.007.007.011.016.011.026a.034.034 0 01-.01.025.035.035 0 01-.027.01zm-.426-.485a.02.02 0 00-.015.006.022.022 0 000 .03l.427.428a.021.021 0 00.036-.015.02.02 0 00-.006-.014l-.427-.427A.019.019 0 005.7 8.25v-.001z" fill="#000"/><path d="M6.282 8.501L5.9 8.118a.026.026 0 01-.006-.029.026.026 0 01.006-.008.026.026 0 01.036 0l.384.384a.026.026 0 010 .036.025.025 0 01-.037 0z" fill="#FF0"/><path d="M6.301 8.514a.034.034 0 01-.024-.01l-.383-.384a.032.032 0 01-.01-.023c0-.009.004-.017.01-.024a.034.034 0 01.047 0l.384.384a.033.033 0 010 .046.03.03 0 01-.024.011zm-.382-.435l-.007.001a.016.016 0 00-.005.004.017.017 0 00-.005.013l.001.007.004.005.384.384a.019.019 0 10.026-.027l-.383-.383a.023.023 0 00-.015-.004z" fill="#000"/><path d="M6.329 8.479l-.41-.41a.027.027 0 010-.037.027.027 0 01.039 0l.41.409a.027.027 0 010 .038.027.027 0 01-.04 0z" fill="#FF0"/><path d="M6.347 8.494a.034.034 0 01-.024-.01l-.41-.408a.034.034 0 01-.01-.024c0-.009.004-.018.01-.024a.034.034 0 01.024-.01c.009 0 .018.003.024.01l.41.41c.006.006.01.014.01.024a.032.032 0 01-.01.023.03.03 0 01-.024.01zm-.41-.462a.02.02 0 00-.017.011.019.019 0 000 .015.02.02 0 00.004.007l.41.41a.02.02 0 00.032-.007.019.019 0 00-.004-.021l-.41-.41a.023.023 0 00-.014-.006z" fill="#000"/><path d="M3.503 8.5l.386-.386.184.157-.417.416-.153-.187z" fill="#FF0"/><path d="M3.657 8.695l-.005-.006-.157-.189.393-.392.004.004.19.157-.005.005-.42.42zM3.513 8.5l.145.173.404-.405-.173-.145-.376.377z" fill="#000"/><path d="M3.746 8.575l-.004-.005a.25.25 0 01-.079-.157.144.144 0 01.029-.11.21.21 0 01.265.048l.005.005-.005.004-.21.215zm.038-.286a.118.118 0 00-.078.025.132.132 0 00-.024.099c.006.053.03.103.068.141l.196-.198a.235.235 0 00-.162-.067z" fill="#000"/><path d="M3.79 8.534l-.004-.005a.185.185 0 01-.06-.13.07.07 0 01.014-.048c.024-.023.105-.028.178.045l.005.005-.005.005-.128.128zm0-.183a.041.041 0 00-.038.01.041.041 0 00-.012.04c.002.043.02.083.051.113l.113-.113a.171.171 0 00-.114-.05z" fill="#000"/><path d="M3.706 8.15l.103-.103-.09-.09-.104.103.09.09z" fill="#FF0"/><path d="M3.706 8.162l-.102-.102.004-.005.11-.109.101.102-.004.005-.11.109zm-.079-.102l.079.078.094-.094-.079-.078-.094.094z" fill="#000"/><path d="M3.692 8.034a.013.013 0 01.019 0l.032.032-.019.019-.032-.032a.013.013 0 010-.019z" fill="#000"/><path d="M3.535 8.016l.056.056a.019.019 0 00.021.004.019.019 0 00.007-.004l.11-.11a.02.02 0 000-.028l-.056-.055-.03.029.028.027-.025.025-.027-.027-.03.029.028.027-.026.026-.027-.027-.029.028z" fill="#FF0"/><path d="M3.605 8.084a.027.027 0 01-.02-.007l-.06-.062.038-.038.027.027.016-.015-.027-.028.039-.039.027.028.015-.015-.027-.028.038-.038.061.06a.027.027 0 010 .039l-.11.11a.028.028 0 01-.017.006zm-.06-.069l.05.051a.012.012 0 00.005.003l.005.001h.004a.012.012 0 00.004-.004l.11-.11v-.008a.012.012 0 000-.009l-.051-.05-.019.018.028.028-.036.036-.027-.028-.019.02.027.026-.036.037-.027-.028-.018.017z" fill="#000"/><path d="M3.438 8.419l.104-.103-.091-.091-.103.103.09.091z" fill="#FF0"/><path d="M3.438 8.43l-.102-.102.004-.004.11-.11.101.103-.004.004-.11.11zm-.079-.102l.079.079.094-.094-.079-.079-.094.094z" fill="#000"/><path d="M3.424 8.301a.014.014 0 01.01-.004c.003 0 .006.002.009.004l.032.032-.019.019-.032-.032a.012.012 0 010-.019z" fill="#000"/><path d="M3.268 8.283l.056.057a.019.019 0 00.027 0l.11-.11a.02.02 0 000-.027l-.056-.056-.029.029.028.027-.025.025-.028-.027-.029.028.028.028-.026.026-.028-.028-.028.028z" fill="#FF0"/><path d="M3.336 8.352a.027.027 0 01-.018-.008l-.062-.061.039-.039.027.028.016-.016-.028-.027.04-.04.027.027.015-.015-.027-.027.038-.039.061.061a.026.026 0 010 .037l-.11.11a.027.027 0 01-.018.009zm-.06-.07l.052.052a.012.012 0 00.013.002.012.012 0 00.004-.002l.11-.11a.013.013 0 000-.009.013.013 0 000-.008l-.051-.051-.019.018.027.027-.035.035-.027-.027-.02.019.028.027-.036.036-.027-.027-.018.019z" fill="#000"/><path d="M3.404 8.112l.098-.097.172.166-.103.103-.167-.172z" fill="#FF0"/><path d="M3.57 8.295l-.176-.182.107-.108.183.177-.005.004-.109.11zm-.157-.182l.157.162.093-.093-.162-.157-.088.088z" fill="#000"/><path d="M3.502 8.113a.013.013 0 01.01-.003c.003 0 .007.001.01.003l.04.04-.02.02-.04-.04a.013.013 0 01-.004-.01l.001-.005.003-.005z" fill="#000"/><path d="M3.324 8.072l.055.055a.019.019 0 00.028 0l.11-.11a.02.02 0 000-.027l-.056-.056-.029.03.027.027-.025.025-.027-.027-.03.029.028.027-.026.026-.027-.027-.028.028z" fill="#FF0"/><path d="M3.392 8.14a.027.027 0 01-.019-.008l-.061-.061.038-.038.028.027.016-.015-.028-.027.04-.04.027.028.015-.015-.028-.027.039-.039.06.061a.027.027 0 010 .038l-.109.11a.032.032 0 01-.018.006zm-.06-.07l.051.051a.012.012 0 00.018 0l.11-.11a.012.012 0 00.003-.013.012.012 0 00-.004-.004l-.05-.05-.02.018.028.027-.035.037-.028-.028-.018.019.027.027-.036.036-.028-.027-.018.017z" fill="#000"/><path d="M3.68 8.719l.428-.427a.029.029 0 00-.032-.047.028.028 0 00-.009.006l-.426.428a.028.028 0 00-.007.031.028.028 0 00.007.01.03.03 0 00.04-.001z" fill="#FF0"/><path d="M3.661 8.734a.036.036 0 01-.026-.011.037.037 0 01-.01-.025.035.035 0 01.01-.026l.428-.428a.037.037 0 01.059.012.035.035 0 01-.008.04l-.427.427a.036.036 0 01-.026.01zm.427-.485a.02.02 0 00-.015.006l-.427.427a.021.021 0 00-.005.023.02.02 0 00.005.007.02.02 0 00.015.006l.009-.001a.021.021 0 00.007-.005l.426-.427a.022.022 0 000-.03.025.025 0 00-.016-.005v-.001z" fill="#000"/><path d="M3.506 8.502l.383-.384a.026.026 0 00-.018-.045.026.026 0 00-.019.008l-.383.384a.026.026 0 00-.006.028.026.026 0 00.006.009.024.024 0 00.028.006.024.024 0 00.009-.006z" fill="#FF0"/><path d="M3.487 8.514a.035.035 0 01-.025-.058l.383-.383a.034.034 0 01.047 0 .034.034 0 01.01.024.034.034 0 01-.01.023l-.382.384a.03.03 0 01-.023.01zm.382-.435a.018.018 0 00-.013.005l-.383.382a.02.02 0 00-.005.021.02.02 0 00.011.011.02.02 0 00.022-.004l.383-.384a.018.018 0 00.006-.012.016.016 0 00-.006-.013.017.017 0 00-.02-.006h.005z" fill="#000"/><path d="M3.46 8.478l.409-.41a.027.027 0 00-.02-.045.027.027 0 00-.018.008l-.41.41a.027.027 0 000 .037.027.027 0 00.038 0z" fill="#FF0"/><path d="M3.44 8.494a.032.032 0 01-.024-.01.034.034 0 01-.01-.024c0-.01.004-.018.01-.024l.41-.41a.034.034 0 11.048.048l-.41.41a.037.037 0 01-.024.01zm.41-.463a.02.02 0 00-.013.005l-.41.41a.019.019 0 00-.005.021.02.02 0 00.019.012.02.02 0 00.014-.006l.41-.41a.02.02 0 00.005-.012.02.02 0 00-.006-.014.02.02 0 00-.014-.006z" fill="#000"/><path d="M3.53 4.952h-.55l-.02.235h.587l-.018-.235z" fill="#FF0"/><path d="M3.558 5.198h-.604V5.19l.022-.245h.559v.006l.023.247zm-.588-.014h.573l-.02-.224h-.534l-.019.224z" fill="#000"/><path d="M3.41 5.178h-.308V5.17a.164.164 0 11.307 0v.008zm-.293-.015h.278a.148.148 0 10-.278 0z" fill="#000"/><path d="M3.35 5.18h-.188V5.17c0-.103.06-.157.094-.157.033 0 .094.054.094.157v.008zm-.173-.015h.156c0-.09-.056-.137-.078-.137s-.076.048-.08.137h.002z" fill="#000"/><path d="M3.14 4.72h-.148v.13h.148v-.13z" fill="#FF0"/><path d="M3.147 4.856h-.162v-.144h.162v.144zm-.148-.014h.133v-.115h-.133v.115z" fill="#000"/><path d="M3.066 4.756H3.06a.013.013 0 00-.009.013v.045h.027v-.045a.013.013 0 00-.013-.013z" fill="#000"/><path d="M3.163 4.632v.079a.02.02 0 01-.02.02h-.156a.02.02 0 01-.02-.02v-.079h.04v.039h.037v-.039h.04v.039h.037v-.039h.042z" fill="#FF0"/><path d="M3.144 4.738h-.157a.027.027 0 01-.026-.026v-.087h.055v.038h.02v-.038h.056v.038h.02v-.038h.056v.087a.027.027 0 01-.024.026zm-.168-.098v.072a.012.012 0 00.013.013h.157a.012.012 0 00.012-.008V4.64h-.025v.038h-.05V4.64h-.027v.038h-.05V4.64h-.03z" fill="#000"/><path d="M3.518 4.72h-.147v.129h.147v-.13z" fill="#FF0"/><path d="M3.525 4.856h-.161v-.144h.161v.144zm-.147-.014h.132v-.115h-.132v.115z" fill="#000"/><path d="M3.444 4.756a.013.013 0 00-.013.013v.045h.027v-.045a.013.013 0 00-.004-.01.013.013 0 00-.01-.003z" fill="#000"/><path d="M3.542 4.632v.079a.02.02 0 01-.02.02h-.157a.02.02 0 01-.02-.02v-.079h.041v.039h.036v-.039h.041v.039H3.5v-.039h.043z" fill="#FF0"/><path d="M3.522 4.738h-.157a.027.027 0 01-.026-.026v-.087h.055v.038h.02v-.038h.056v.038h.022v-.038h.054v.087a.025.025 0 01-.006.018.025.025 0 01-.018.008zm-.168-.098v.072a.013.013 0 00.013.013h.157a.012.012 0 00.009-.003.012.012 0 00.003-.01V4.64H3.51v.038h-.05V4.64h-.026v.038h-.05V4.64h-.03z" fill="#000"/><path d="M3.324 4.608h-.138l-.004.24h.147l-.005-.24z" fill="#FF0"/><path d="M3.336 4.855h-.161v-.007l.005-.247h.152v.007l.004.247zm-.146-.014h.131l-.004-.225h-.124l-.003.225z" fill="#000"/><path d="M3.255 4.679a.013.013 0 00-.013.013v.058h.027v-.058a.013.013 0 00-.014-.013z" fill="#000"/><path d="M3.353 4.522V4.6a.02.02 0 01-.02.02h-.157a.02.02 0 01-.017-.02v-.078h.04v.037h.037v-.037h.04v.037h.037v-.037h.04z" fill="#FF0"/><path d="M3.333 4.629h-.157a.027.027 0 01-.026-.027v-.086h.055v.038h.022v-.038h.054v.038h.022v-.038h.054v.086a.027.027 0 01-.024.027zm-.168-.1v.073l.001.005.003.004a.012.012 0 00.009.003h.157a.012.012 0 00.012-.007V4.53h-.026v.038h-.05V4.53h-.026v.038h-.05V4.53h-.03z" fill="#000"/><path d="M3.557 5.231h-.604a.03.03 0 01-.03-.029c0-.007.004-.015.01-.02a.03.03 0 01.02-.008h.604a.03.03 0 01.02.008.029.029 0 010 .04.03.03 0 01-.02.01z" fill="#FF0"/><path d="M3.557 5.239h-.604a.036.036 0 01-.038-.02.036.036 0 01.023-.05.036.036 0 01.015 0h.604a.036.036 0 01.03.034.036.036 0 01-.03.035zm-.604-.057a.021.021 0 00-.015.006.021.021 0 00-.006.015.022.022 0 00.02.021h.605a.02.02 0 00.021-.021.022.022 0 00-.021-.021h-.604z" fill="#000"/><path d="M3.526 4.953h-.542a.026.026 0 01-.026-.026c0-.007.003-.013.008-.018a.026.026 0 01.018-.008h.542a.026.026 0 01.026.026.026.026 0 01-.026.026z" fill="#FF0"/><path d="M3.526 4.96h-.542a.034.034 0 010-.068h.542a.034.034 0 010 .068zm-.542-.054a.02.02 0 00-.015.02.02.02 0 00.015.018h.542c.005 0 .01-.002.013-.005a.019.019 0 00.006-.014.02.02 0 00-.011-.019.02.02 0 00-.008-.002h-.542v.002z" fill="#000"/><path d="M3.544 4.906h-.58a.027.027 0 01-.026-.027.026.026 0 01.027-.026h.58c.006 0 .013.003.018.008a.026.026 0 01-.019.045z" fill="#FF0"/><path d="M3.544 4.913h-.579a.033.033 0 110-.067h.579a.034.034 0 01.034.033.033.033 0 01-.034.034zm-.579-.054a.02.02 0 00-.021.01.02.02 0 00.005.024.02.02 0 00.016.004h.579a.02.02 0 00.022-.027.02.02 0 00-.013-.01.02.02 0 00-.009-.001h-.579z" fill="#000"/><path d="M6.804 4.952h-.55l-.02.235h.588l-.018-.235z" fill="#FF0"/><path d="M6.833 5.198h-.605V5.19l.022-.245h.559v.006l.024.247zm-.589-.014h.573l-.02-.224h-.534l-.019.224z" fill="#000"/><path d="M6.683 5.178h-.307V5.17a.164.164 0 11.307 0v.008zm-.293-.015h.279a.148.148 0 10-.279 0z" fill="#000"/><path d="M6.624 5.18h-.188V5.17c0-.103.06-.157.094-.157.033 0 .094.054.094.157v.008zm-.174-.015h.157c0-.09-.057-.137-.079-.137s-.075.048-.078.137z" fill="#000"/><path d="M6.414 4.72h-.148v.13h.148v-.13z" fill="#FF0"/><path d="M6.42 4.856h-.16v-.144h.16v.144zm-.147-.014h.133v-.115h-.133v.115z" fill="#000"/><path d="M6.34 4.756a.013.013 0 00-.013.013v.045h.026v-.045a.012.012 0 00-.013-.013z" fill="#000"/><path d="M6.437 4.632v.079a.02.02 0 01-.02.02h-.156a.02.02 0 01-.02-.02v-.079h.04v.039h.037v-.039h.04v.039H6.4v-.039h.037z" fill="#FF0"/><path d="M6.418 4.738h-.156a.027.027 0 01-.027-.026v-.087h.055v.038h.022v-.038h.055v.038h.026v-.038h.055v.087a.027.027 0 01-.03.026zm-.167-.098v.072a.013.013 0 00.012.013h.157a.012.012 0 00.012-.008V4.64h-.025v.038h-.05V4.64H6.33v.038h-.05V4.64h-.03z" fill="#000"/><path d="M6.792 4.72h-.147v.129h.147v-.13z" fill="#FF0"/><path d="M6.8 4.856h-.162v-.144h.161v.144zm-.148-.014h.133v-.115h-.133v.115z" fill="#000"/><path d="M6.718 4.756a.013.013 0 00-.013.013v.045h.026v-.045a.012.012 0 00-.013-.013z" fill="#000"/><path d="M6.816 4.632v.079a.02.02 0 01-.02.02H6.64a.02.02 0 01-.02-.02v-.079h.042v.039h.036v-.039h.04v.039h.036v-.039h.043z" fill="#FF0"/><path d="M6.796 4.738H6.64a.027.027 0 01-.026-.026v-.087h.055v.038h.02v-.038h.056v.038h.022v-.038h.055v.087a.027.027 0 01-.025.026zm-.168-.098v.072a.013.013 0 00.012.013h.157a.012.012 0 00.012-.008V4.64h-.025v.038h-.05V4.64h-.027v.038h-.05V4.64h-.029z" fill="#000"/><path d="M6.599 4.608h-.14l-.003.24h.147l-.004-.24z" fill="#FF0"/><path d="M6.61 4.855H6.45l.004-.254h.152v.007l.005.247zm-.147-.014h.131l-.003-.225h-.124l-.004.225z" fill="#000"/><path d="M6.529 4.679a.013.013 0 00-.013.013v.057h.026v-.057a.013.013 0 00-.004-.01.012.012 0 00-.01-.003z" fill="#000"/><path d="M6.627 4.522V4.6a.02.02 0 01-.02.02H6.45a.02.02 0 01-.02-.02v-.078h.042v.037h.036v-.037h.04v.037h.037v-.037h.042z" fill="#FF0"/><path d="M6.608 4.629h-.157a.027.027 0 01-.026-.027v-.086h.055v.038h.02v-.038h.056v.038h.022v-.038h.054v.086a.027.027 0 01-.024.027zm-.168-.1v.073a.012.012 0 00.004.009.012.012 0 00.009.003h.157a.012.012 0 00.012-.007V4.53h-.026v.038h-.05V4.53h-.027v.038h-.05V4.53H6.44z" fill="#000"/><path d="M6.83 5.231h-.603a.029.029 0 01-.029-.029c0-.007.003-.015.009-.02a.03.03 0 01.02-.008h.604a.03.03 0 01.02.008.029.029 0 010 .04.03.03 0 01-.02.01z" fill="#FF0"/><path d="M6.83 5.239h-.603a.036.036 0 01-.038-.02.036.036 0 01.023-.05.036.036 0 01.015 0h.604a.036.036 0 01.029.007.036.036 0 01.009.042.036.036 0 01-.038.02zm-.603-.057a.021.021 0 00-.015.006.021.021 0 00-.006.015.022.022 0 00.021.021h.604a.022.022 0 00.022-.021.022.022 0 00-.022-.02h-.604z" fill="#000"/><path d="M6.8 4.953h-.542a.026.026 0 01-.026-.026c0-.007.003-.013.008-.018a.026.026 0 01.018-.008H6.8c.007 0 .014.003.019.008a.025.025 0 010 .036.026.026 0 01-.019.008z" fill="#FF0"/><path d="M6.8 4.96h-.542a.034.034 0 010-.068H6.8a.033.033 0 01.033.033.033.033 0 01-.02.032.034.034 0 01-.013.003zm-.542-.054a.02.02 0 00-.015.02.02.02 0 00.015.018H6.8c.005 0 .01-.002.014-.005a.019.019 0 00.005-.014.02.02 0 00-.005-.014.02.02 0 00-.014-.007h-.542v.002z" fill="#000"/><path d="M6.818 4.906h-.58a.026.026 0 110-.053h.58c.007 0 .014.003.02.008a.026.026 0 01-.02.045z" fill="#FF0"/><path d="M6.818 4.913h-.58a.034.034 0 01-.023-.01.033.033 0 010-.048.034.034 0 01.024-.01h.58a.034.034 0 01.033.034.034.034 0 01-.034.033zm-.58-.054a.02.02 0 00-.02.01.02.02 0 00.004.024.02.02 0 00.017.004h.58a.02.02 0 00.016-.034.02.02 0 00-.017-.004h-.58z" fill="#000"/><path d="M3.53 6.618h-.55l-.02.236h.587l-.018-.236z" fill="#FF0"/><path d="M3.558 6.865h-.604v-.008l.022-.246h.559v.007l.023.247zM2.97 6.85h.573l-.02-.225h-.534l-.019.225z" fill="#000"/><path d="M3.41 6.844h-.308v-.007a.164.164 0 11.307 0v.007zm-.293-.013h.278a.148.148 0 10-.278 0z" fill="#000"/><path d="M3.35 6.847h-.188v-.008c0-.104.06-.157.094-.157.033 0 .094.054.094.157v.008zm-.173-.015h.156c0-.089-.056-.136-.078-.136s-.076.046-.08.136h.002z" fill="#000"/><path d="M3.14 6.386h-.148v.13h.148v-.13z" fill="#FF0"/><path d="M3.147 6.523h-.162v-.144h.162v.144zm-.148-.014h.133v-.115h-.133v.115z" fill="#000"/><path d="M3.066 6.423a.013.013 0 00-.014.013v.045h.027v-.045a.013.013 0 00-.013-.013z" fill="#000"/><path d="M3.163 6.299v.078a.02.02 0 01-.02.02h-.156a.02.02 0 01-.02-.02V6.3h.04v.038h.037V6.3h.04v.038h.037V6.3h.042z" fill="#FF0"/><path d="M3.144 6.406h-.157a.027.027 0 01-.026-.027v-.087h.055v.038h.02v-.038h.056v.038h.02v-.038h.056v.087a.027.027 0 01-.024.027zm-.168-.1v.073a.013.013 0 00.013.013h.157a.012.012 0 00.012-.008v-.077h-.025v.037h-.05v-.037h-.027v.037h-.05v-.037h-.03z" fill="#000"/><path d="M3.518 6.386h-.147v.13h.147v-.13z" fill="#FF0"/><path d="M3.525 6.523h-.161v-.144h.161v.144zm-.147-.014h.132v-.115h-.132v.115z" fill="#000"/><path d="M3.444 6.423a.013.013 0 00-.013.013v.045h.027v-.045a.013.013 0 00-.014-.013z" fill="#000"/><path d="M3.542 6.299v.078a.02.02 0 01-.02.02h-.157a.02.02 0 01-.02-.02V6.3h.041v.038h.036V6.3h.041v.038H3.5V6.3h.043z" fill="#FF0"/><path d="M3.522 6.406h-.157a.027.027 0 01-.026-.027v-.087h.055v.038h.02v-.038h.056v.038h.022v-.038h.054v.087a.025.025 0 01-.006.018.025.025 0 01-.018.009zm-.168-.1v.073a.013.013 0 00.013.013h.157a.012.012 0 00.012-.008v-.077H3.51v.037h-.05v-.037h-.026v.037h-.05v-.037h-.03z" fill="#000"/><path d="M3.324 6.275h-.138l-.004.24h.147l-.005-.24z" fill="#FF0"/><path d="M3.336 6.522h-.161v-.007l.005-.247h.152v.007l.004.247zm-.146-.014h.131l-.004-.226h-.124l-.003.226z" fill="#000"/><path d="M3.255 6.345a.013.013 0 00-.013.014v.057h.027V6.36a.013.013 0 00-.014-.014z" fill="#000"/><path d="M3.353 6.188v.079a.02.02 0 01-.02.02h-.157a.02.02 0 01-.017-.02v-.079h.04v.039h.037v-.039h.04v.039h.037v-.039h.04z" fill="#FF0"/><path d="M3.333 6.295h-.157a.027.027 0 01-.026-.026v-.087h.055v.039h.022v-.039h.054v.039h.022v-.039h.054v.087a.026.026 0 01-.024.026zm-.168-.099v.072a.012.012 0 00.013.012h.157a.012.012 0 00.012-.007v-.077h-.026v.039h-.05v-.039h-.026v.039h-.05v-.039h-.03z" fill="#000"/><path d="M3.557 6.899h-.604a.03.03 0 01-.03-.028.029.029 0 01.03-.03h.604a.029.029 0 01.029.029.03.03 0 01-.029.028z" fill="#FF0"/><path d="M3.557 6.906h-.604a.036.036 0 01-.038-.02.036.036 0 01.023-.05.036.036 0 01.015 0h.604a.036.036 0 01.03.035.036.036 0 01-.03.035zm-.604-.057a.021.021 0 100 .043h.604a.021.021 0 100-.043h-.604z" fill="#000"/><path d="M3.526 6.62h-.542a.026.026 0 01-.026-.026c0-.007.003-.014.008-.018a.026.026 0 01.018-.008h.542a.026.026 0 01.026.026.026.026 0 01-.026.026z" fill="#FF0"/><path d="M3.526 6.626h-.542a.034.034 0 010-.067h.542a.035.035 0 01.03.034.034.034 0 01-.03.033zm-.542-.053a.02.02 0 00-.015.02.02.02 0 00.015.019h.542c.005 0 .01-.002.013-.006a.019.019 0 00.006-.013.02.02 0 00-.005-.014.02.02 0 00-.014-.006h-.542z" fill="#000"/><path d="M3.544 6.572h-.58a.027.027 0 01-.026-.026.026.026 0 01.027-.026h.58c.006 0 .013.002.018.007a.026.026 0 01.008.019.026.026 0 01-.016.025.026.026 0 01-.01.001z" fill="#FF0"/><path d="M3.544 6.58h-.579a.033.033 0 110-.067h.579a.034.034 0 01.034.033.033.033 0 01-.034.033zm-.579-.054a.02.02 0 00-.016.004.02.02 0 00-.005.024.02.02 0 00.022.01h.578a.02.02 0 00.016-.004.02.02 0 00-.007-.033.02.02 0 00-.009 0h-.579z" fill="#000"/><path d="M6.803 6.618h-.549l-.02.236h.587l-.018-.236z" fill="#FF0"/><path d="M6.832 6.865h-.604v-.008l.022-.246h.559v.007l.023.247zm-.588-.014h.573l-.02-.225h-.534l-.019.225z" fill="#000"/><path d="M6.683 6.844h-.307v-.007a.164.164 0 11.307 0v.007zm-.293-.013h.278a.148.148 0 10-.278 0z" fill="#000"/><path d="M6.624 6.847h-.188v-.008c0-.104.06-.157.094-.157.033 0 .094.054.094.157v.008zm-.174-.015h.157c0-.089-.057-.136-.079-.136s-.075.046-.078.136z" fill="#000"/><path d="M6.414 6.386h-.148v.13h.148v-.13z" fill="#FF0"/><path d="M6.42 6.523h-.16v-.144h.16v.144zm-.147-.014h.133v-.115h-.133v.115z" fill="#000"/><path d="M6.34 6.423a.013.013 0 00-.013.013v.045h.026v-.045a.012.012 0 00-.013-.013z" fill="#000"/><path d="M6.437 6.299v.078a.02.02 0 01-.02.02h-.156a.02.02 0 01-.02-.02V6.3h.04v.038h.037V6.3h.04v.038H6.4V6.3h.037z" fill="#FF0"/><path d="M6.418 6.406h-.156a.027.027 0 01-.027-.027v-.087h.055v.038h.022v-.038h.055v.038h.026v-.038h.055v.087a.027.027 0 01-.03.027zm-.167-.1v.073a.013.013 0 00.012.013h.157a.012.012 0 00.012-.008v-.077h-.025v.037h-.05v-.037H6.33v.037h-.05v-.037h-.03z" fill="#000"/><path d="M6.792 6.386h-.147v.13h.147v-.13z" fill="#FF0"/><path d="M6.8 6.523h-.162v-.144h.161v.144zm-.148-.014h.133v-.115h-.133v.115z" fill="#000"/><path d="M6.718 6.423a.013.013 0 00-.013.013v.045h.026v-.045a.012.012 0 00-.013-.013z" fill="#000"/><path d="M6.816 6.299v.078a.02.02 0 01-.02.02H6.64a.02.02 0 01-.02-.02V6.3h.042v.038h.036V6.3h.04v.038h.036V6.3h.043z" fill="#FF0"/><path d="M6.796 6.406H6.64a.027.027 0 01-.026-.027v-.087h.055v.038h.02v-.038h.056v.038h.022v-.038h.055v.087a.027.027 0 01-.025.027zm-.168-.1v.073a.013.013 0 00.012.013h.157a.012.012 0 00.01-.004.012.012 0 00.003-.009v-.072h-.026v.037h-.05v-.037h-.027v.037h-.05v-.037h-.029z" fill="#000"/><path d="M6.599 6.276h-.14l-.003.24h.147l-.004-.24z" fill="#FF0"/><path d="M6.61 6.522H6.45l.004-.254h.152v.007l.005.247zm-.147-.014h.131l-.003-.225h-.124l-.004.225z" fill="#000"/><path d="M6.529 6.345a.013.013 0 00-.013.014v.057h.026V6.36a.012.012 0 00-.008-.013h-.005z" fill="#000"/><path d="M6.627 6.188v.079a.02.02 0 01-.02.02H6.45a.02.02 0 01-.02-.02v-.079h.042v.039h.036v-.039h.04v.039h.037v-.039h.042z" fill="#FF0"/><path d="M6.608 6.295h-.157a.027.027 0 01-.026-.026v-.087h.055v.039h.02v-.039h.056v.039h.022v-.039h.054v.087a.027.027 0 01-.024.026zm-.168-.099v.072a.012.012 0 00.013.012h.157a.012.012 0 00.012-.007v-.077h-.026v.039h-.05v-.039h-.027v.039h-.05v-.039H6.44z" fill="#000"/><path d="M6.83 6.899h-.603a.03.03 0 01-.03-.028.029.029 0 01.03-.03h.604a.029.029 0 01.029.029.029.029 0 01-.03.029z" fill="#FF0"/><path d="M6.83 6.906h-.603a.035.035 0 01-.025-.06.036.036 0 01.025-.011h.604a.036.036 0 01.038.02.036.036 0 01-.023.05.037.037 0 01-.015.001zm-.603-.057a.021.021 0 100 .043h.604a.021.021 0 100-.043h-.604z" fill="#000"/><path d="M6.8 6.62h-.542a.026.026 0 01-.026-.026c0-.007.003-.014.008-.018a.026.026 0 01.018-.008H6.8c.007 0 .014.003.019.008a.026.026 0 010 .036.026.026 0 01-.019.007z" fill="#FF0"/><path d="M6.8 6.626h-.542a.034.034 0 010-.067H6.8a.035.035 0 01.03.034.034.034 0 01-.03.033zm-.542-.053a.02.02 0 00-.015.02.02.02 0 00.015.019H6.8c.005 0 .01-.002.014-.006a.019.019 0 00.005-.013.02.02 0 00-.005-.014.02.02 0 00-.014-.006h-.542z" fill="#000"/><path d="M6.818 6.572h-.58a.027.027 0 01-.026-.026.026.026 0 01.027-.027h.58c.006 0 .013.003.018.008a.026.026 0 01-.019.045z" fill="#FF0"/><path d="M6.818 6.58h-.58a.033.033 0 01-.024-.057.034.034 0 01.025-.01h.58a.034.034 0 01.033.033.034.034 0 01-.034.033zm-.58-.054a.02.02 0 00-.02.011.02.02 0 00.004.023.02.02 0 00.017.004h.58a.02.02 0 00.02-.01.02.02 0 00-.004-.024.02.02 0 00-.017-.004h-.58z" fill="#000"/></g></svg>