<svg width="14" height="14" fill="none" xmlns="http://www.w3.org/2000/svg"><g clip-path="url(#a)"><path d="M7 14A7 7 0 107 0a7 7 0 000 14z" fill="#D80027"/><path d="M10.957 5.196H8.42A.913.913 0 107 4.06a.912.912 0 10-1.421 1.135H3.044c0 .672.585 1.217 1.257 1.217h-.04c0 .672.545 1.217 1.217 1.217 0 .218.058.422.158.599l-1.01 1.01.775.775 1.099-1.1a.834.834 0 00.133.038L5.97 10.45 7 11.565l1.03-1.114-.663-1.5a.83.83 0 00.133-.036l1.1 1.099.774-.775-1.01-1.01c.1-.177.158-.381.158-.599.672 0 1.217-.545 1.217-1.217H9.7c.672 0 1.258-.545 1.258-1.217z" fill="#000"/></g><defs><clipPath id="a"><path fill="#fff" d="M0 0H14V14H0z"/></clipPath></defs></svg>